<mxfile host="Electron" agent="Mozilla/5.0 (Windows NT 10.0; Win64; x64) AppleWebKit/537.36 (KHTML, like Gecko) draw.io/24.7.17 Chrome/128.0.6613.36 Electron/32.0.1 Safari/537.36" version="24.7.17">
  <diagram name="HRPro(MultiHard)" id="HRPro(MultiLite222)">
    <mxGraphModel dx="1183" dy="685" grid="1" gridSize="10" guides="1" tooltips="1" connect="1" arrows="1" fold="1" page="1" pageScale="1" pageWidth="827" pageHeight="1169" math="0" shadow="0">
      <root>
        <mxCell id="0" />
        <mxCell id="1" parent="0" />
        <UserObject label="" tags="Фон" id="2">
          <mxCell style="vsdxID=1;fillColor=none;gradientColor=none;points=[];labelBackgroundColor=none;rounded=0;strokeColor=none;html=1;whiteSpace=wrap;" parent="1" vertex="1">
            <mxGeometry x="693" y="505" width="504" height="404" as="geometry" />
          </mxCell>
        </UserObject>
        <mxCell id="3" value="&lt;div style=&quot;font-size: 1px&quot;&gt;&lt;/div&gt;" style="verticalAlign=middle;align=center;overflow=width;vsdxID=2;fillColor=#ffffff;gradientColor=none;shape=stencil(nZFLDsIwDERP4y0KyQKxLuUCnCAihliEpEpL+ZyetANS6YJFs7JnXmxpTKZqvW2YtGq7nC58F9d5MjvSWqLnLF2pyNRkqlPKfM7pFh36xhZSq1Fhhz/rgdbK5uNBXgxts9r+PjAYck39sPwBVMF6foYp9HugQeIE/ZqL4D/oQnC2vhRjPAhOQkC6U38eZ5FwClO/AQ==);strokeColor=#7c7c7c;strokeWidth=2;points=[[1,0.5,0],[0.5,0.5,0],[0.5,0,0]];labelBackgroundColor=#FFFFFF;rounded=1;html=1;whiteSpace=wrap;" parent="2" vertex="1">
          <mxGeometry width="504" height="404" as="geometry" />
        </mxCell>
        <mxCell id="4" value="&lt;div style=&quot;font-size: 1px&quot;&gt;&lt;/div&gt;" style="verticalAlign=middle;align=center;overflow=width;vsdxID=3;rotation=90;fillColor=none;gradientColor=none;shape=stencil(nZFLDsIwDERP4y0KyQKxLuUCnCAihliEpEpL+ZyetANS6YJFs7JnXmxpTKZqvW2YtGq7nC58F9d5MjvSWqLnLF2pyNRkqlPKfM7pFh36xhZSq1Fhhz/rgdbK5uNBXgxts9r+PjAYck39sPwBVMF6foYp9HugQeIE/ZqL4D/oQnC2vhRjPAhOQkC6U38eZ5FwClO/AQ==);strokeColor=#7c7c7c;strokeWidth=2;points=[[1,0.5,0],[0.5,0.5,0],[0.5,0,0]];labelBackgroundColor=#FFFFFF;rounded=1;html=1;whiteSpace=wrap;" parent="2" vertex="1">
          <mxGeometry x="119" y="-100" width="264" height="488" as="geometry" />
        </mxCell>
        <mxCell id="8" value="&lt;div style=&quot;font-size: 1px&quot;&gt;&lt;font style=&quot;font-size:19.76px;font-family:Segoe UI;color:#000000;direction:ltr;letter-spacing:0px;line-height:120%;opacity:1&quot;&gt;Узел Веб-сервер&amp;nbsp;&lt;/font&gt;&lt;font style=&quot;font-size:19.76px;font-family:Segoe UI;color:#000000;direction:ltr;letter-spacing:0px;line-height:120%;opacity:1&quot;&gt;Directum RX&lt;br&gt;&lt;/font&gt;&lt;/div&gt;" style="verticalAlign=middle;align=center;overflow=width;vsdxID=7;fillColor=none;gradientColor=none;shape=stencil(nZBLDoAgDERP0z3SIyjew0SURgSD+Lu9kMZoXLhwN9O+tukAlrNpJg1SzDH4QW/URgNYgZTkjA4UkwJUgGXng+6DX1zLfmoymdXo17xh5zmRJ6Q42BWCfc2oJfdAr+Yv+AP9Cb7OJ3H/2JG1HNGz/84klThPVCc=);strokeColor=none;points=[[1,0.5,0],[0.5,0.5,0],[0.5,0,0]];labelBackgroundColor=none;rounded=0;html=1;whiteSpace=wrap;" parent="2" vertex="1">
          <mxGeometry x="6" y="12" width="488" height="26" as="geometry" />
        </mxCell>
        <mxCell id="8MSi6_7zFtZhW2bontoD-250" value="&lt;div style=&quot;font-size: 1px&quot;&gt;&lt;font style=&quot;font-size:12.7px;font-family:Segoe UI;color:#FFFFFF;direction:ltr;letter-spacing:0px;line-height:120%;opacity:1&quot;&gt;Веб-сервер&lt;/font&gt;&lt;/div&gt;" style="verticalAlign=middle;align=center;overflow=width;vsdxID=152;fillColor=#00b050;gradientColor=none;shape=stencil(nZBLDsIwEENPM1sUMoILlHIBThCRQEaEpErD9/SkNUhVFyy6G9vPGsnETe9N50irvuR0cQ+xxRPvSGuJ3mUp9SJuiZtTyu6c0y1a6M5UUqvRcRad9UBrZfLxIG8Hb7viDWz0ruk+/HsiVYhe376C3gMNEifoL1wE/0EXgrP39RgXwVYSAgad5vMFq4X1uf0A);strokeColor=#8c8c8c;strokeWidth=2;points=[[1,0.5,0],[0.5,0.5,0],[0.5,0,0]];labelBackgroundColor=none;rounded=1;html=1;whiteSpace=wrap;" parent="2" vertex="1">
          <mxGeometry x="256" y="217" width="112" height="51" as="geometry" />
        </mxCell>
        <mxCell id="8MSi6_7zFtZhW2bontoD-251" value="&lt;div style=&quot;font-size: 1px&quot;&gt;&lt;font style=&quot;font-size:12.7px;font-family:Segoe UI;color:#FFFFFF;direction:ltr;letter-spacing:0px;line-height:120%;opacity:1&quot;&gt;Веб-клиент&lt;/font&gt;&lt;/div&gt;" style="verticalAlign=middle;align=center;overflow=width;vsdxID=152;fillColor=#00b050;gradientColor=none;shape=stencil(nZBLDsIwEENPM1sUMoILlHIBThCRQEaEpErD9/SkNUhVFyy6G9vPGsnETe9N50irvuR0cQ+xxRPvSGuJ3mUp9SJuiZtTyu6c0y1a6M5UUqvRcRad9UBrZfLxIG8Hb7viDWz0ruk+/HsiVYhe376C3gMNEifoL1wE/0EXgrP39RgXwVYSAgad5vMFq4X1uf0A);strokeColor=#8c8c8c;strokeWidth=2;points=[[1,0.5,0],[0.5,0.5,0],[0.5,0,0]];labelBackgroundColor=none;rounded=1;html=1;whiteSpace=wrap;" parent="2" vertex="1">
          <mxGeometry x="379" y="217" width="112" height="51" as="geometry" />
        </mxCell>
        <UserObject label="&lt;div style=&quot;font-size: 1px&quot;&gt;&lt;/div&gt;" tags="Блок-схема" id="9">
          <mxCell style="verticalAlign=middle;align=center;overflow=width;vsdxID=13;fillColor=#ffffff;gradientColor=none;shape=stencil(nZFLDsIwDERP4y0KyQKxLuUCnCAihliEpEpL+ZyetANS6YJFs7JnXmxpTKZqvW2YtGq7nC58F9d5MjvSWqLnLF2pyNRkqlPKfM7pFh36xhZSq1Fhhz/rgdbK5uNBXgxts9r+PjAYck39sPwBVMF6foYp9HugQeIE/ZqL4D/oQnC2vhRjPAhOQkC6U38eZ5FwClO/AQ==);strokeColor=#7c7c7c;strokeWidth=2;points=[[1,0.5,0],[0.5,0.5,0],[0.5,0,0]];labelBackgroundColor=#FFFFFF;rounded=1;html=1;whiteSpace=wrap;" parent="1" vertex="1">
            <mxGeometry x="454" y="37" width="403" height="119" as="geometry" />
          </mxCell>
        </UserObject>
        <UserObject label="&lt;div style=&quot;font-size: 1px&quot;&gt;&lt;font style=&quot;font-size:16.93px;font-family:Segoe UI;color:#FFFFFF;direction:ltr;letter-spacing:0px;line-height:120%;opacity:1&quot;&gt;Веб-агент&lt;br/&gt;&lt;/font&gt;&lt;/div&gt;" tags="Блок-схема" id="10">
          <mxCell style="verticalAlign=middle;align=center;overflow=width;vsdxID=14;fillColor=#8ea7b5;gradientColor=none;shape=stencil(nZBLDsIwEENPM1sUMoILlHIBThCRQEaEpErD9/SkNUhVFyy6G9vPGsnETe9N50irvuR0cQ+xxRPvSGuJ3mUp9SJuiZtTyu6c0y1a6M5UUqvRcRad9UBrZfLxIG8Hb7viDWz0ruk+/HsiVYhe376C3gMNEifoL1wE/0EXgrP39RgXwVYSAgad5vMFq4X1uf0A);strokeColor=none;strokeWidth=3;points=[[0.5,1,0],[0.5,0,0],[1,0.5,0]];labelBackgroundColor=none;rounded=1;html=1;whiteSpace=wrap;" parent="1" vertex="1">
            <mxGeometry x="464" y="66" width="112" height="30" as="geometry" />
          </mxCell>
        </UserObject>
        <UserObject label="&lt;div style=&quot;font-size: 1px&quot;&gt;&lt;font style=&quot;font-size:19.76px;font-family:Segoe UI;color:#445368;direction:ltr;letter-spacing:0px;line-height:120%;opacity:1&quot;&gt;Клиентские приложения&lt;br/&gt;&lt;/font&gt;&lt;/div&gt;" tags="Блок-схема" id="11">
          <mxCell style="verticalAlign=middle;align=center;overflow=width;vsdxID=16;fillColor=none;gradientColor=none;shape=stencil(nZBLDoAgDERP0z3SIyjew0SURgSD+Lu9kMZoXLhwN9O+tukAlrNpJg1SzDH4QW/URgNYgZTkjA4UkwJUgGXng+6DX1zLfmoymdXo17xh5zmRJ6Q42BWCfc2oJfdAr+Yv+AP9Cb7OJ3H/2JG1HNGz/84klThPVCc=);strokeColor=none;points=[[1,0.5,0],[0.5,0.5,0],[0.5,0,0]];labelBackgroundColor=none;rounded=0;html=1;whiteSpace=wrap;" parent="1" vertex="1">
            <mxGeometry x="524" y="36" width="252" height="30" as="geometry" />
          </mxCell>
        </UserObject>
        <UserObject label="&lt;div style=&quot;font-size: 1px&quot;&gt;&lt;font style=&quot;font-size:16.93px;font-family:Segoe UI;color:#FFFFFF;direction:ltr;letter-spacing:0px;line-height:120%;opacity:1&quot;&gt;Веб&lt;/font&gt;&lt;font style=&quot;font-size:16.93px;font-family:Segoe UI;color:#FFFFFF;direction:ltr;letter-spacing:0px;line-height:120%;opacity:1&quot;&gt;-клиент DirectumRX&lt;br/&gt;&lt;/font&gt;&lt;/div&gt;" tags="Блок-схема" id="12">
          <mxCell style="verticalAlign=middle;align=center;overflow=width;vsdxID=17;fillColor=#6fb3c4;gradientColor=none;shape=stencil(nZBLDsIwEENPM1sUMoILlHIBThCRQEaEpErD9/SkNUhVFyy6G9vPGsnETe9N50irvuR0cQ+xxRPvSGuJ3mUp9SJuiZtTyu6c0y1a6M5UUqvRcRad9UBrZfLxIG8Hb7viDWz0ruk+/HsiVYhe376C3gMNEifoL1wE/0EXgrP39RgXwVYSAgad5vMFq4X1uf0A);strokeColor=none;strokeWidth=3;points=[[0.5,1,0],[0.5,0,0],[1,0.5,0]];labelBackgroundColor=none;rounded=1;html=1;whiteSpace=wrap;" parent="1" vertex="1">
            <mxGeometry x="618" y="66" width="224" height="30" as="geometry" />
          </mxCell>
        </UserObject>
        <UserObject label="" tags="Фон" id="13">
          <mxCell style="vsdxID=45;fillColor=none;gradientColor=none;points=[];labelBackgroundColor=none;rounded=0;strokeColor=none;html=1;whiteSpace=wrap;" parent="1" vertex="1">
            <mxGeometry x="614" y="1883" width="152" height="180" as="geometry" />
          </mxCell>
        </UserObject>
        <mxCell id="15" value="&lt;div style=&quot;font-size: 1px&quot;&gt;&lt;font style=&quot;font-size:16.93px;font-family:Ubuntu Light;color:#000000;direction:ltr;letter-spacing:0px;line-height:120%;opacity:1&quot;&gt;&lt;br/&gt;&lt;br/&gt;&lt;/font&gt;&lt;/div&gt;" style="verticalAlign=middle;align=center;overflow=width;vsdxID=47;fillColor=none;gradientColor=none;shape=stencil(nZBLDsIwEENPM1sUMoILlHIBThCRQEaEpErD9/SkNUhVFyy6G9vPGsnETe9N50irvuR0cQ+xxRPvSGuJ3mUp9SJuiZtTyu6c0y1a6M5UUqvRcRad9UBrZfLxIG8Hb7viDWz0ruk+/HsiVYhe376C3gMNEifoL1wE/0EXgrP39RgXwVYSAgad5vMFq4X1uf0A);strokeColor=#7c7c7c;strokeWidth=2;points=[[1,0.5,0],[0.5,0.5,0],[0.5,0,0],[0,0.26,0],[0,0.34,0]];labelBackgroundColor=none;rounded=1;html=1;whiteSpace=wrap;" parent="13" vertex="1">
          <mxGeometry width="152" height="180" as="geometry" />
        </mxCell>
        <mxCell id="16" value="&lt;div style=&quot;font-size: 1px&quot;&gt;&lt;font style=&quot;font-size:16.93px;font-family:Ubuntu Light;color:#000000;direction:ltr;letter-spacing:0px;line-height:120%;opacity:1&quot;&gt;Файловое хранилище;&lt;/font&gt;&lt;font style=&quot;font-size:16.93px;font-family:Ubuntu Light;color:#000000;direction:ltr;letter-spacing:0px;line-height:120%;opacity:1&quot;&gt;&lt;br/&gt;&lt;/font&gt;&lt;font style=&quot;font-size:16.93px;font-family:Ubuntu Light;color:#000000;direction:ltr;letter-spacing:0px;line-height:120%;opacity:1&quot;&gt;СХД дисков ВМ&lt;br/&gt;&lt;/font&gt;&lt;/div&gt;" style="verticalAlign=middle;align=center;overflow=width;vsdxID=48;fillColor=#ffffff;gradientColor=none;fillOpacity=0;shape=stencil(nZBLDoAgDERP0z3SIyjew0SURgSD+Lu9kMZoXLhwN9O+tukAlrNpJg1SzDH4QW/URgNYgZTkjA4UkwJUgGXng+6DX1zLfmoymdXo17xh5zmRJ6Q42BWCfc2oJfdAr+Yv+AP9Cb7OJ3H/2JG1HNGz/84klThPVCc=);strokeColor=none;points=[];labelBackgroundColor=none;rounded=0;html=1;whiteSpace=wrap;" parent="13" vertex="1">
          <mxGeometry x="4" y="114" width="140" height="58" as="geometry" />
        </mxCell>
        <mxCell id="17" style="vsdxID=49;fillColor=none;gradientColor=none;points=[[0.5,0.54,0]];labelBackgroundColor=none;rounded=0;strokeColor=none;html=1;whiteSpace=wrap;" parent="13" vertex="1">
          <mxGeometry x="36" y="4" width="72" height="102" as="geometry" />
        </mxCell>
        <mxCell id="18" style="vsdxID=50;fillColor=#FF00FF;gradientColor=none;fillOpacity=0;strokeOpacity=0;shape=stencil(vZTbUoMwEIafhkt2ciKH61rfI2NDmxGhE6jFtzcYwAY01Bn1Lux+/252l01Gd+1Jn01GUNu55tlc7aE7ZfQhI8TWJ+Ns508Z3Wd0VzbOHF1zqQ/h+6wHcji9NK9DhD7ohADMBxVBb8GiFCj8YXkMgsrWsYBEvERA1Q94H1+KW351oQ1euyfvdSPPgMvAu1FAw+folxTIIiCfJX2ue9vmrul0Z5s6+FHwVdodTe6T5WWlj5GrvRpzXpm/LH+dXijgPCFAUMS8hASOEYppDEzcj2MKKoFzDAWLBIlS48iEgGAJGNDiN8KAi+/HzBmIIp4zw3OMEaJiqmaeNQOC/2vWhS8qTi8VCJLcja3li5cDi2UGikGyRNvEomcEGNvoGeXTwv1JzxYXLECtxjpN+o6qf+uKUdP94fO9LG1Vhef21r98X70pvM10/w4=);points=[[0.5,0.54,0]];labelBackgroundColor=none;rounded=0;html=1;whiteSpace=wrap;" parent="17" vertex="1">
          <mxGeometry y="-1" width="72" height="108" as="geometry" />
        </mxCell>
        <mxCell id="19" style="vsdxID=51;fillColor=#00b050;gradientColor=#00ec6a;gradientDirection=north;shape=stencil(fVHbEoIgEP0aHmFQvD6X/QeTqEwEzkJpfx9ETtrtbffc2GUR29mBjwKl1DowJzHJ1g2I7VGaSj0IkM5XiDWI7ToDogdz0W3sRx6UoTqba0iYo4+VpM6DK6W3iCSUPvpDlCupV/KFXMTeXlW/5UVC8mxj+JO9TfbWolyLORw9C0tyQaokGmAZPMlIWUdstV35dTs6Yz5Li8E47qTRmxEUh15g/yDuFO83lJ2EGD/g54i+eP1zJ5WKZ1rz73fxULwpa+4=);strokeColor=#ffffff;points=[[0.5,0.54,0]];labelBackgroundColor=none;rounded=0;html=1;whiteSpace=wrap;" parent="17" vertex="1">
          <mxGeometry width="72" height="39" as="geometry" />
        </mxCell>
        <mxCell id="20" style="vsdxID=52;fillColor=#00b050;gradientColor=#00ec6a;shape=stencil(rVJBEoMgDHwNRxkEHfFs7T+YisqUihNptb8vFDtVO3rqLcnuJiwJYsXQil4iSgYL5ipHVdkWsROiVHWtBGVdhFiJWFEbkA2Ye1eFvBee6aObefgOU9DFhHgNJc85zzFP35VzoAu4OBQ+9CzBMQ8KmCUpxykLpZm1bjlnUyQmNURgrLDKdCtMC2hk5EZFtRbNChpGKftFOV4+TqtO7o3lMc6SIycEp1snGWZ05eTne8h/3ZB9N3mO8+R4Ny747rVWWoezWOLbO3ClcEOsfAE=);strokeColor=#ffffff;points=[[0.5,0.54,0]];labelBackgroundColor=none;rounded=0;html=1;whiteSpace=wrap;" parent="17" vertex="1">
          <mxGeometry y="24" width="27" height="77" as="geometry" />
        </mxCell>
        <mxCell id="21" style="vsdxID=53;fillColor=#00b050;gradientColor=#00ec6a;shape=stencil(UzV2Ls5ILEhVNTIoLinKz04tz0wpyVA1dlE1MsrMy0gtyiwBslSNXVWNndPyi1LTi/JL81Ig/IJEkEoQKze/DGRCBUSfAUiHkUElhGdkoWdqBhZxgyjOyczDqdjQwAC3UpgkTLG5oZ65EfHK8ZhMwMVABsKvaZk5OZCgQpZHDxugECRcjV0B);strokeColor=#ffffff;points=[[0.5,0.54,0]];labelBackgroundColor=none;rounded=0;html=1;whiteSpace=wrap;" parent="17" vertex="1">
          <mxGeometry x="27" y="15" width="44" height="86" as="geometry" />
        </mxCell>
        <mxCell id="22" value="&lt;div style=&quot;font-size: 1px&quot;&gt;&lt;/div&gt;" style="verticalAlign=middle;align=center;overflow=width;vsdxID=54;fillColor=#00b050;gradientColor=none;shape=stencil(jZLdEoIgEIWfhksZBPzp2uw9mERlMnFWSnv7MHQSraa73bPfgV0WxLK+Fp1ElPQG9EUOqjA1YkdEqWprCcrYCLEcsazUICvQt7ZweScmcoqu+j6dMDpfSMjkoeQx5xyn7KWcHN6odoXHIY64ZyDfYf9kynHIf8CYUI9P4w0v4GyrsHRiG3U8zAbOcJQ4aWZYgg+JP94y7hiIUfUBaCOM0q3XcCOgkoG9LigbUXmlfpCy28kfB9q+bBLhNP4f3y3CBu8luv2va9uFW8l9FpY/AQ==);points=[[0.5,0.54,0]];labelBackgroundColor=none;rounded=0;html=1;whiteSpace=wrap;" parent="17" vertex="1">
          <mxGeometry width="72" height="102" as="geometry" />
        </mxCell>
        <mxCell id="23" style="vsdxID=55;rotation=340;fillColor=#00b050;gradientColor=#00ec6a;shape=stencil(vVHLDsIgEPwajiQI6RfU+h8bu22JCGRB2/69kG1iazx58DazM/vIjjBtmiCi0CplCjecbZ8nYc5Ca+snJJsLEqYTph0C4Ujh4XvmEaqzont41gkL96naodXKrGF6YSfQtUi0OXXDVlqPfJNP6usotUhYbJIUMmQb/GGrAxpRljVycDBuc1hKM2LclX8/7H9nFfB+82Cd45T2+mcspcSRmu4F);strokeColor=#000000;points=[[0.5,0.54,0]];labelBackgroundColor=none;rounded=0;html=1;whiteSpace=wrap;" parent="17" vertex="1">
          <mxGeometry x="10" y="62" width="4" height="5" as="geometry" />
        </mxCell>
        <mxCell id="24" style="vsdxID=56;fillColor=#00b050;gradientColor=#00ec6a;gradientDirection=north;shape=stencil(xZLLDoIwEEW/pkuaMuVR16j/0UiBRqRkqIJ/b0kbxUdwZdzNnbkz7Uku4cXQyF4RYINFc1SjLm1D+JYA6K5RqK2rCN8RXlQGVY3m3JVe93J2ztXJXOYLk99j8waw61LtvVHiwU0wGGGTeisGLwigeex7wROz53NpRmMIjkhOeojQWGm16fxcJDQPV1uJtYrck1HVyvrpb8OoVP/W3n+ngZhuklUiyuADFF+FygVl2f+gEk6F+AKVfIBKV6Hu+ldIrnhE0Kd3OXuNq2v5qPPdDQ==);strokeColor=#000000;strokeWidth=2;points=[[0.5,0.54,0]];labelBackgroundColor=none;rounded=0;html=1;whiteSpace=wrap;" parent="17" vertex="1">
          <mxGeometry x="4" y="75" width="18" height="17" as="geometry" />
        </mxCell>
        <mxCell id="25" style="vsdxID=57;fillColor=none;gradientColor=none;points=[[0.5,0.54,0]];labelBackgroundColor=none;rounded=0;strokeColor=none;html=1;whiteSpace=wrap;" parent="17" vertex="1">
          <mxGeometry x="3" y="36" width="19" height="21" as="geometry" />
        </mxCell>
        <mxCell id="26" style="vsdxID=58;fillColor=#00b050;gradientColor=none;shape=stencil(vZPdcoMgEIWfhkt3gEXQ6zR5D6ZBZWLFQfLTty8W+kPatDdt7tZzzsLHjktwswx6NoTTJXh3MGe7DwPBB8K5nQbjbYgVwS3BTee86b07Tvv0Pes1uVZP7rSecEl9CMjWJk6fk8AECHxVdimv/WN0fc5zFFAnn/rcgi0H0SYtx1oJvCnPpTQnKn2xS+Vd0MG6KbnZG7XvTRVvrLpR94W1nI2Zv8jfMgpQsiRU0Kpf+Jr4bnEvwngdsKshNgwUFpA1MFXOEFD+KSK7jYhAm5Iw4siCjwLlBV8Nqr7XCOX7tN74GANeAv7wc/8LYSw+9qyz45jW9LN/vZdRSjuN2xc=);strokeColor=#000000;points=[[0.5,0.54,0]];labelBackgroundColor=none;rounded=0;html=1;whiteSpace=wrap;" parent="25" vertex="1">
          <mxGeometry width="19" height="11" as="geometry" />
        </mxCell>
        <mxCell id="27" style="vsdxID=59;fillColor=#00b050;gradientColor=#00ec6a;shape=stencil(pVFLDoIwED1NlzTTFhDWfu7RSIFGpGSoire3OBBFceVu5n2mr3lMbftad4ZJ6D26k7nZwtdM7ZiUtq0NWh8mpvZMbUuHpkJ3aQvaOz0qx+nsruOFgXwCYPRIuNOeZxzEEzmQXOMxsDjLZcxVQg6cLEKkPMkIm2SSx5vFWQkcZkmkB9tH6Lz21rXEZzkXMfGNxspE4dmobHRF9JSxvxnTfcGrQTPgIl3mTGMu5CLm78+vp4T/EobhVUNpm4ZafOc/awsQVa72Dw==);strokeColor=#FFFFFF;strokeWidth=0;points=[[0.5,0.54,0]];labelBackgroundColor=none;rounded=0;html=1;whiteSpace=wrap;" parent="25" vertex="1">
          <mxGeometry x="5" y="5" width="5" height="3" as="geometry" />
        </mxCell>
        <mxCell id="28" style="vsdxID=60;fillColor=#00b050;gradientColor=#00ec6a;shape=stencil(rVJLEoIwDD1Nl3RK4lBc+7lHRwt0rJQJVfD2lqkfQHTlLp/3krwkDDdtpRrNQLSe3El35ugrhlsGYOpKk/HBYrhjuCkc6ZLcpT5Gv1EDcrDO7jpU6CNPDAwQt7G3j0Br6q9ARC5xDFZ0CFl6gEGmHFaRQU8KZDyPoQcqFdOiL79PVG/ahJxX3rh6MoBVVOoktEsKq8pJqu20bj7Ci2rmrbOMg/yhJxcc1jM9KLmc6Fna5b+0pOPhgvG+Z2Gsje8wzs/vH0Lxd3B3Bw==);strokeColor=none;strokeWidth=0;points=[[0.5,0.54,0]];labelBackgroundColor=none;rounded=0;html=1;whiteSpace=wrap;" parent="25" vertex="1">
          <mxGeometry y="6" width="18" height="14" as="geometry" />
        </mxCell>
        <mxCell id="29" style="vsdxID=61;fillColor=#00b050;gradientColor=none;shape=stencil(rVLLEoIwDPyaHun0gRbOiP/R0QIdK2XSqvj3Fouj1UEv3pLNbpKdBPHKdXJQiBHnwR7URe99h/gGMab7ToH2IUK8RrxqLKgW7Knfx3yQE3OKjvY8dRijjkwKRq4xoxSz8o5sI1nCLlRhJrN8hVciKmCW8HKNSRGxmUbJW9dHPmZy1C4D66XXtk82MBJalYV5WWNkm5TcRanhA543NLpXy6OLAgv6xZCgOOepoZwLLMrEUNrzv2bospkftwnB86qNNiY+xWv9/QsCFD+I1zc=);strokeColor=none;points=[[0.5,0.54,0]];labelBackgroundColor=none;rounded=0;html=1;whiteSpace=wrap;" parent="25" vertex="1">
          <mxGeometry y="7" width="18" height="10" as="geometry" />
        </mxCell>
        <mxCell id="30" style="vsdxID=62;fillColor=none;gradientColor=none;shape=stencil(dVDRDoIwDPyaPY6M1ojviP+xyBiLuJFuCv69W4YKGt/uendtcwxr38tRMRA+kLuoybShZ3hkAMb2ikyIiGHDsO4cKU3uZtvMR5mcCV3dPW2Yc06kBIjHmp2ycTD2rxGxqHBtlnSOKi1mqMoCdjlBrwjsi0MeLa5SbJe++czlbDwnF2Qwzm4eGCRpxeM53g1SbyQ/KTX+jJcHI/h0kOtba999xVHuGpsn);strokeColor=#FFFFFF;points=[[0.5,0.54,0]];labelBackgroundColor=none;rounded=0;html=1;whiteSpace=wrap;" parent="25" vertex="1">
          <mxGeometry y="6" width="18" height="14" as="geometry" />
        </mxCell>
        <mxCell id="31" style="vsdxID=63;fillColor=#00b050;gradientColor=#00ec6a;shape=stencil(fVDLDsIgEPwajjR0N2n1XPU/iKUtsUKzoK1/L4QawYO3mZ0HZBh2bpKLYiCcJ3tTq+79xPDEALSZFGkfEMMzw26wpEayD9MnvsjojOhun7FhS7laiJgB8Sr5JZlnbf6Ym6aCNrdLugaVdjscRAXHlKA9gthWKfIpLSt3tnG5acfJeum1NYU2SxoVD0/xYZZjIblVqSU71/nnAviukAbMtd/Fwimtjec3);strokeColor=#000000;points=[[0.5,0.54,0]];labelBackgroundColor=none;rounded=0;html=1;whiteSpace=wrap;" parent="25" vertex="1">
          <mxGeometry y="6" width="18" height="14" as="geometry" />
        </mxCell>
        <mxCell id="32" style="vsdxID=64;fillColor=none;gradientColor=none;points=[[0.5,0.54,0]];labelBackgroundColor=none;rounded=0;strokeColor=none;html=1;whiteSpace=wrap;" parent="17" vertex="1">
          <mxGeometry x="36" y="72" width="25" height="35" as="geometry" />
        </mxCell>
        <mxCell id="33" value="&lt;div style=&quot;font-size: 1px&quot;&gt;&lt;/div&gt;" style="verticalAlign=middle;align=center;overflow=width;vsdxID=65;fillColor=#FFFFFF;gradientColor=#f0daac;shape=stencil(tVPNcsIgEH4ajtlZIFQ4W/sejJKEKQ0ZQmv69pJiVNSmp96W/X7Y5FsI346dHgxhOMbg383RHmJH+CthzPadCTamivAd4dvGB9MG/9kf8nnQM3OuPvzX7DBlnaQgZxHD79yoEdTLT+ct853t1/hKQUHXYZ/AcKbTGlBkflgEgHXuTBcHRQtPqZYZcKr0ZMcq+Kij9X3GMWNOh9ZU6cKqcbotoPFozPDQfvpFj9dzCUL8LhAMRMFnCJSu8BNcCihfFaSBVMFfmx428t77/H+fB6KAyjIQyoDzIhEsHRHqJbF/T+PvfUzFdZkb69wtcr/2qZWfDN+dAA==);strokeColor=#000000;points=[[0.5,0.54,0]];labelBackgroundColor=none;rounded=0;html=1;whiteSpace=wrap;" parent="32" vertex="1">
          <mxGeometry width="23" height="35" as="geometry" />
        </mxCell>
        <mxCell id="34" value="&lt;div style=&quot;font-size: 1px&quot;&gt;&lt;/div&gt;" style="verticalAlign=middle;align=center;overflow=width;vsdxID=66;fillColor=#FFFFFF;gradientColor=#f3e2c0;shape=stencil(hZDdDsIgDIWfprekUlnkes73WDImRISFMX/eXpAsbibTu3Pa7zRtgepRt4MCjmMM/qLuposa6AicG6dVMDEpoAao7n1Q5+An1xU/tJnM6upvecKj5DAnOD6LqwQT/F05Fdgat4ClZAexCuwQt/G5OcO0Zyi3cWRYrfgfo/+sncTn4N5Yu+x8vyaVylupeQE=);strokeColor=#000000;points=[[0.5,0.54,0]];labelBackgroundColor=none;rounded=0;html=1;whiteSpace=wrap;" parent="32" vertex="1">
          <mxGeometry y="3" width="19" height="32" as="geometry" />
        </mxCell>
        <mxCell id="35" style="vsdxID=67;fillColor=#00b050;gradientColor=none;shape=stencil(hZCxDoMwDES/xity4w7NTOl/IBGaCEhQSEv79yRyEUkXtrP97qQzUL3odlYgcAneDWo1XdBAdxDCWK28CVEBNUB177x6eveyHc9zm8ikJvdOCR/2YXII/ObTg8HR2Ay8YIkSVShzvMw9xct0KavbtTDsAT88iqMCt89v/3Xjil9FzQY=);strokeColor=#d0bc9d;points=[[0.5,0.54,0]];labelBackgroundColor=none;rounded=0;html=1;whiteSpace=wrap;" parent="32" vertex="1">
          <mxGeometry x="1" y="4" width="18" height="31" as="geometry" />
        </mxCell>
        <mxCell id="36" style="vsdxID=68;fillColor=#00b050;gradientColor=none;shape=stencil(hZDNDoMgEISfZq8G2Zro2Z/3MJEWooJBqu3bC1lNoRdvs7vfTDILWK+yXwRwtjprRrGrwUnABjhXWgqrnFeALWD9NFa8rHnrgealD2RQs9lCwod8LDg4+8ZTR+CkdATmLEXxkWFMp7F3dJpdVVlZJPzlP3EvfgWoe3z7L+tX9ChsDw==);strokeColor=#FFFFFF;points=[[0.5,0.54,0]];labelBackgroundColor=none;rounded=0;html=1;whiteSpace=wrap;" parent="32" vertex="1">
          <mxGeometry y="3" width="19" height="31" as="geometry" />
        </mxCell>
        <mxCell id="37" value="&lt;div style=&quot;font-size: 1px&quot;&gt;&lt;/div&gt;" style="verticalAlign=middle;align=center;overflow=width;vsdxID=69;fillColor=#00b050;gradientColor=none;shape=stencil(vZNNcsMgDIVPw9IaQOCYdZreg0mIzdQ1Hkwa5/bFJT8maZxddkL6nhCjB8H10OjeEE6H4N2XOdpdaAh+EM5t1xhvQ4wIbgiu986b2rtDt0vnXk/kFH27n6nDmHR0UnB6SqdSAV39ZT4T3NpuBlcMqoxXCso5rv02Fv0ZZwKoTLy/CIBiyozXDoplPauYKc9MoUc7FN4FHazrsolb7WtTxAuLfavrrDQcjekf0v++6PF6rEDK5wLJQYpMwCkwtiCggBnPEJhYmAiUyvil6UGq+974fB94HeWyDqZAqGwfuR8YBSHetYsXVozBzcTJ//PaveFjKn0W3PwC);points=[[0.5,0.54,0]];labelBackgroundColor=none;rounded=0;html=1;whiteSpace=wrap;" parent="32" vertex="1">
          <mxGeometry width="23" height="35" as="geometry" />
        </mxCell>
        <UserObject label="&lt;div style=&quot;font-size: 1px&quot;&gt;&lt;font style=&quot;font-size:19.76px;font-family:Segoe UI;color:#000000;direction:ltr;letter-spacing:0px;line-height:120%;opacity:1&quot;&gt;Virtual IP&lt;br/&gt;&lt;/font&gt;&lt;/div&gt;" tags="Блок-схема" id="38">
          <mxCell style="verticalAlign=middle;align=center;overflow=width;vsdxID=70;fillColor=#ffffff;gradientColor=none;shape=stencil(nZBLDsIwEENPM1sUMoILlHIBThCRQEaEpErD9/SkNUhVFyy6G9vPGsnETe9N50irvuR0cQ+xxRPvSGuJ3mUp9SJuiZtTyu6c0y1a6M5UUqvRcRad9UBrZfLxIG8Hb7viDWz0ruk+/HsiVYhe376C3gMNEifoL1wE/0EXgrP39RgXwVYSAgad5vMFq4X1uf0A);dashed=1;dashPattern=1.00 2.00;strokeColor=#7c7c7c;strokeWidth=2;points=[[1,0.5,0],[0.5,1,0],[0.5,0,0],[0.5,0,0]];labelBackgroundColor=#FFFFFF;rounded=1;html=1;whiteSpace=wrap;" parent="1" vertex="1">
            <mxGeometry x="574" y="195" width="162" height="29" as="geometry" />
          </mxCell>
        </UserObject>
        <UserObject label="&lt;div style=&quot;font-size: 1px&quot;&gt;&lt;font style=&quot;font-size:19.76px;font-family:Segoe UI;color:#000000;direction:ltr;letter-spacing:0px;line-height:120%;opacity:1&quot;&gt;Virtual IP&lt;br/&gt;&lt;/font&gt;&lt;/div&gt;" tags="Блок-схема" id="39">
          <mxCell style="verticalAlign=middle;align=center;overflow=width;vsdxID=133;fillColor=#ffffff;gradientColor=none;shape=stencil(nZBLDsIwEENPM1sUMoILlHIBThCRQEaEpErD9/SkNUhVFyy6G9vPGsnETe9N50irvuR0cQ+xxRPvSGuJ3mUp9SJuiZtTyu6c0y1a6M5UUqvRcRad9UBrZfLxIG8Hb7viDWz0ruk+/HsiVYhe376C3gMNEifoL1wE/0EXgrP39RgXwVYSAgad5vMFq4X1uf0A);dashed=1;dashPattern=1.00 2.00;strokeColor=#7c7c7c;strokeWidth=2;points=[[1,0.5,0],[0.5,1,0],[0.5,0,0],[0,0.57,0]];labelBackgroundColor=#FFFFFF;rounded=1;html=1;whiteSpace=wrap;" parent="1" vertex="1">
            <mxGeometry x="574" y="1239" width="162" height="29" as="geometry" />
          </mxCell>
        </UserObject>
        <UserObject label="" tags="Фон" id="40">
          <mxCell style="vsdxID=134;fillColor=none;gradientColor=none;points=[];labelBackgroundColor=none;rounded=0;strokeColor=none;html=1;whiteSpace=wrap;" parent="1" vertex="1">
            <mxGeometry x="105" y="505" width="504" height="404" as="geometry" />
          </mxCell>
        </UserObject>
        <mxCell id="41" value="&lt;div style=&quot;font-size: 1px&quot;&gt;&lt;/div&gt;" style="verticalAlign=middle;align=center;overflow=width;vsdxID=135;fillColor=#ffffff;gradientColor=none;shape=stencil(nZFLDsIwDERP4y0KyQKxLuUCnCAihliEpEpL+ZyetANS6YJFs7JnXmxpTKZqvW2YtGq7nC58F9d5MjvSWqLnLF2pyNRkqlPKfM7pFh36xhZSq1Fhhz/rgdbK5uNBXgxts9r+PjAYck39sPwBVMF6foYp9HugQeIE/ZqL4D/oQnC2vhRjPAhOQkC6U38eZ5FwClO/AQ==);strokeColor=#7c7c7c;strokeWidth=2;points=[[1,0.5,0],[0.5,0.5,0],[0.5,0,0]];labelBackgroundColor=#FFFFFF;rounded=1;html=1;whiteSpace=wrap;" parent="40" vertex="1">
          <mxGeometry x="1" width="504" height="404" as="geometry" />
        </mxCell>
        <mxCell id="44" value="&lt;div style=&quot;font-size: 1px&quot;&gt;&lt;/div&gt;" style="verticalAlign=middle;align=center;overflow=width;vsdxID=138;rotation=90;fillColor=none;gradientColor=none;shape=stencil(nZFLDsIwDERP4y0KyQKxLuUCnCAihliEpEpL+ZyetANS6YJFs7JnXmxpTKZqvW2YtGq7nC58F9d5MjvSWqLnLF2pyNRkqlPKfM7pFh36xhZSq1Fhhz/rgdbK5uNBXgxts9r+PjAYck39sPwBVMF6foYp9HugQeIE/ZqL4D/oQnC2vhRjPAhOQkC6U38eZ5FwClO/AQ==);strokeColor=#7c7c7c;strokeWidth=2;points=[[1,0.5,0],[0.5,0.5,0],[0.5,0,0]];labelBackgroundColor=#FFFFFF;rounded=1;html=1;whiteSpace=wrap;" parent="40" vertex="1">
          <mxGeometry x="119" y="-101" width="265" height="488" as="geometry" />
        </mxCell>
        <mxCell id="45" value="&lt;div style=&quot;font-size: 1px&quot;&gt;&lt;font style=&quot;font-size:12.7px;font-family:Segoe UI;color:#FFFFFF;direction:ltr;letter-spacing:0px;line-height:120%;opacity:1&quot;&gt;Сервис&lt;br/&gt;ключей&lt;br/&gt;&lt;/font&gt;&lt;/div&gt;" style="verticalAlign=middle;align=center;overflow=width;vsdxID=140;fillColor=#00b050;gradientColor=none;shape=stencil(nZBLDsIwEENPM1sUMoILlHIBThCRQEaEpErD9/SkNUhVFyy6G9vPGsnETe9N50irvuR0cQ+xxRPvSGuJ3mUp9SJuiZtTyu6c0y1a6M5UUqvRcRad9UBrZfLxIG8Hb7viDWz0ruk+/HsiVYhe376C3gMNEifoL1wE/0EXgrP39RgXwVYSAgad5vMFq4X1uf0A);strokeColor=#8c8c8c;strokeWidth=2;points=[[1,0.5,0],[0.5,0.5,0],[0.5,0,0]];labelBackgroundColor=none;rounded=1;html=1;whiteSpace=wrap;" parent="40" vertex="1">
          <mxGeometry x="136" y="40" width="112" height="51" as="geometry" />
        </mxCell>
        <mxCell id="46" value="&lt;div style=&quot;font-size: 1px&quot;&gt;&lt;font style=&quot;font-size:12.7px;font-family:Segoe UI;color:#FFFFFF;direction:ltr;letter-spacing:0px;line-height:120%;opacity:1&quot;&gt;Сервисы Workflow&lt;/font&gt;&lt;font style=&quot;font-size:12.7px;font-family:Segoe UI;color:#FFFFFF;direction:ltr;letter-spacing:0px;line-height:120%;opacity:1&quot;&gt;&lt;br/&gt;&lt;/font&gt;&lt;/div&gt;" style="verticalAlign=middle;align=center;overflow=width;vsdxID=141;fillColor=#00b050;gradientColor=none;shape=stencil(nZBLDsIwEENPM1sUMoILlHIBThCRQEaEpErD9/SkNUhVFyy6G9vPGsnETe9N50irvuR0cQ+xxRPvSGuJ3mUp9SJuiZtTyu6c0y1a6M5UUqvRcRad9UBrZfLxIG8Hb7viDWz0ruk+/HsiVYhe376C3gMNEifoL1wE/0EXgrP39RgXwVYSAgad5vMFq4X1uf0A);strokeColor=#8c8c8c;strokeWidth=2;points=[[1,0.5,0],[0.5,0.5,0],[0.5,0,0]];labelBackgroundColor=none;rounded=1;html=1;whiteSpace=wrap;" parent="40" vertex="1">
          <mxGeometry x="376" y="40" width="112" height="51" as="geometry" />
        </mxCell>
        <mxCell id="47" value="&lt;div style=&quot;font-size: 1px&quot;&gt;&lt;font style=&quot;font-size:12.7px;font-family:Segoe UI;color:#FFFFFF;direction:ltr;letter-spacing:0px;line-height:120%;opacity:1&quot;&gt;Сервис асинхронных событий&lt;/font&gt;&lt;font style=&quot;font-size:12.7px;font-family:Segoe UI;color:#FFFFFF;direction:ltr;letter-spacing:0px;line-height:120%;opacity:1&quot;&gt;&lt;br/&gt;&lt;/font&gt;&lt;/div&gt;" style="verticalAlign=middle;align=center;overflow=width;vsdxID=142;fillColor=#00b050;gradientColor=none;shape=stencil(nZBLDsIwEENPM1sUMoILlHIBThCRQEaEpErD9/SkNUhVFyy6G9vPGsnETe9N50irvuR0cQ+xxRPvSGuJ3mUp9SJuiZtTyu6c0y1a6M5UUqvRcRad9UBrZfLxIG8Hb7viDWz0ruk+/HsiVYhe376C3gMNEifoL1wE/0EXgrP39RgXwVYSAgad5vMFq4X1uf0A);strokeColor=#8c8c8c;strokeWidth=2;points=[[1,0.5,0],[0.5,0.5,0],[0.5,0,0]];labelBackgroundColor=none;rounded=1;html=1;whiteSpace=wrap;" parent="40" vertex="1">
          <mxGeometry x="16" y="99" width="112" height="51" as="geometry" />
        </mxCell>
        <mxCell id="48" value="&lt;div style=&quot;font-size: 1px&quot;&gt;&lt;font style=&quot;font-size:12.7px;font-family:Segoe UI;color:#FFFFFF;direction:ltr;letter-spacing:0px;line-height:120%;opacity:1&quot;&gt;Сервис &lt;br/&gt;хранилищ&lt;br/&gt;&lt;/font&gt;&lt;/div&gt;" style="verticalAlign=middle;align=center;overflow=width;vsdxID=143;fillColor=#00b050;gradientColor=none;shape=stencil(nZBLDsIwEENPM1sUMoILlHIBThCRQEaEpErD9/SkNUhVFyy6G9vPGsnETe9N50irvuR0cQ+xxRPvSGuJ3mUp9SJuiZtTyu6c0y1a6M5UUqvRcRad9UBrZfLxIG8Hb7viDWz0ruk+/HsiVYhe376C3gMNEifoL1wE/0EXgrP39RgXwVYSAgad5vMFq4X1uf0A);strokeColor=#8c8c8c;strokeWidth=2;points=[[1,0.5,0],[0.5,0.5,0],[0.5,0,0]];labelBackgroundColor=none;rounded=1;html=1;whiteSpace=wrap;" parent="40" vertex="1">
          <mxGeometry x="136" y="99" width="112" height="51" as="geometry" />
        </mxCell>
        <mxCell id="49" value="&lt;div style=&quot;font-size: 1px&quot;&gt;&lt;font style=&quot;font-size:12.7px;font-family:Segoe UI;color:#FFFFFF;direction:ltr;letter-spacing:0px;line-height:120%;opacity:1&quot;&gt;Сервисы предпросмотра&lt;/font&gt;&lt;font style=&quot;font-size:12.7px;font-family:Segoe UI;color:#FFFFFF;direction:ltr;letter-spacing:0px;line-height:120%;opacity:1&quot;&gt;&lt;br/&gt;&lt;/font&gt;&lt;/div&gt;" style="verticalAlign=middle;align=center;overflow=width;vsdxID=144;fillColor=#00b050;gradientColor=none;shape=stencil(nZBLDsIwEENPM1sUMoILlHIBThCRQEaEpErD9/SkNUhVFyy6G9vPGsnETe9N50irvuR0cQ+xxRPvSGuJ3mUp9SJuiZtTyu6c0y1a6M5UUqvRcRad9UBrZfLxIG8Hb7viDWz0ruk+/HsiVYhe376C3gMNEifoL1wE/0EXgrP39RgXwVYSAgad5vMFq4X1uf0A);strokeColor=#8c8c8c;strokeWidth=2;points=[[1,0.5,0],[0.5,0.5,0],[0.5,0,0]];labelBackgroundColor=none;rounded=1;html=1;whiteSpace=wrap;" parent="40" vertex="1">
          <mxGeometry x="256" y="99" width="112" height="51" as="geometry" />
        </mxCell>
        <mxCell id="50" value="&lt;div style=&quot;font-size: 1px&quot;&gt;&lt;font style=&quot;font-size:12.7px;font-family:Segoe UI;color:#ffffff;direction:ltr;letter-spacing:0px;line-height:120%;opacity:1&quot;&gt;Сервис планировщика&lt;/font&gt;&lt;font style=&quot;font-size:12.7px;font-family:Segoe UI;color:#FFFFFF;direction:ltr;letter-spacing:0px;line-height:120%;opacity:1&quot;&gt;&lt;br/&gt;&lt;/font&gt;&lt;/div&gt;" style="verticalAlign=middle;align=center;overflow=width;vsdxID=145;fillColor=#00b050;gradientColor=none;shape=stencil(nZBLDsIwEENPM1sUMoILlHIBThCRQEaEpErD9/SkNUhVFyy6G9vPGsnETe9N50irvuR0cQ+xxRPvSGuJ3mUp9SJuiZtTyu6c0y1a6M5UUqvRcRad9UBrZfLxIG8Hb7viDWz0ruk+/HsiVYhe376C3gMNEifoL1wE/0EXgrP39RgXwVYSAgad5vMFq4X1uf0A);strokeColor=#8c8c8c;strokeWidth=2;points=[[1,0.5,0],[0.5,0.5,0],[0.5,0,0]];labelBackgroundColor=none;rounded=1;html=1;whiteSpace=wrap;" parent="40" vertex="1">
          <mxGeometry x="256" y="41" width="112" height="51" as="geometry" />
        </mxCell>
        <mxCell id="51" value="&lt;div style=&quot;font-size: 1px&quot;&gt;&lt;font style=&quot;font-size:12.7px;font-family:Segoe UI;color:#FFFFFF;direction:ltr;letter-spacing:0px;line-height:120%;opacity:1&quot;&gt;Сервис &lt;br/&gt;индексирования&lt;/font&gt;&lt;font style=&quot;font-size:12.7px;font-family:Segoe UI;color:#FFFFFF;direction:ltr;letter-spacing:0px;line-height:120%;opacity:1&quot;&gt;&lt;br/&gt;&lt;/font&gt;&lt;/div&gt;" style="verticalAlign=middle;align=center;overflow=width;vsdxID=146;fillColor=#00b050;gradientColor=none;shape=stencil(nZBLDsIwEENPM1sUMoILlHIBThCRQEaEpErD9/SkNUhVFyy6G9vPGsnETe9N50irvuR0cQ+xxRPvSGuJ3mUp9SJuiZtTyu6c0y1a6M5UUqvRcRad9UBrZfLxIG8Hb7viDWz0ruk+/HsiVYhe376C3gMNEifoL1wE/0EXgrP39RgXwVYSAgad5vMFq4X1uf0A);strokeColor=#8c8c8c;strokeWidth=2;points=[[1,0.5,0],[0.5,0.5,0],[0.5,0,0]];labelBackgroundColor=none;rounded=1;html=1;whiteSpace=wrap;" parent="40" vertex="1">
          <mxGeometry x="376" y="99" width="112" height="51" as="geometry" />
        </mxCell>
        <mxCell id="52" value="&lt;div style=&quot;font-size: 1px&quot;&gt;&lt;font style=&quot;font-size:12.7px;font-family:Segoe UI;color:#FFFFFF;direction:ltr;letter-spacing:0px;line-height:120%;opacity:1&quot;&gt;Сервис &lt;br/&gt;клиентских подключений&lt;br/&gt;&lt;/font&gt;&lt;/div&gt;" style="verticalAlign=middle;align=center;overflow=width;vsdxID=147;fillColor=#00b050;gradientColor=none;shape=stencil(nZBLDsIwEENPM1sUMoILlHIBThCRQEaEpErD9/SkNUhVFyy6G9vPGsnETe9N50irvuR0cQ+xxRPvSGuJ3mUp9SJuiZtTyu6c0y1a6M5UUqvRcRad9UBrZfLxIG8Hb7viDWz0ruk+/HsiVYhe376C3gMNEifoL1wE/0EXgrP39RgXwVYSAgad5vMFq4X1uf0A);strokeColor=#8c8c8c;strokeWidth=2;points=[[1,0.5,0],[0.5,0.5,0],[0.5,0,0]];labelBackgroundColor=none;rounded=1;html=1;whiteSpace=wrap;" parent="40" vertex="1">
          <mxGeometry x="16" y="40" width="112" height="51" as="geometry" />
        </mxCell>
        <mxCell id="53" value="&lt;div style=&quot;font-size: 1px&quot;&gt;&lt;p style=&quot;text-align:center;margin-left:0;margin-right:0;margin-top:0px;margin-bottom:0px;text-indent:0;vertical-align:middle;direction:ltr;&quot;&gt;&lt;font style=&quot;font-size:12.7px;font-family:Segoe UI;color:#FFFFFF;direction:ltr;letter-spacing:0px;line-height:120%;opacity:1&quot;&gt;Сервис &lt;br/&gt;&lt;/font&gt;&lt;/p&gt;&lt;p style=&quot;text-align:center;margin-left:0;margin-right:0;margin-top:0px;margin-bottom:0px;text-indent:0;vertical-align:middle;direction:ltr;&quot;&gt;&lt;font style=&quot;font-size:12.7px;font-family:Segoe UI;color:#FFFFFF;direction:ltr;letter-spacing:0px;line-height:120%;opacity:1&quot;&gt;интеграций&lt;/font&gt;&lt;font style=&quot;font-size:12.7px;font-family:Segoe UI;color:#FFFFFF;direction:ltr;letter-spacing:0px;line-height:120%;opacity:1&quot;&gt;&lt;br/&gt;&lt;/font&gt;&lt;/p&gt;&lt;/div&gt;" style="verticalAlign=middle;align=center;overflow=width;vsdxID=148;fillColor=#00b050;gradientColor=none;shape=stencil(nZBLDsIwEENPM1sUMoILlHIBThCRQEaEpErD9/SkNUhVFyy6G9vPGsnETe9N50irvuR0cQ+xxRPvSGuJ3mUp9SJuiZtTyu6c0y1a6M5UUqvRcRad9UBrZfLxIG8Hb7viDWz0ruk+/HsiVYhe376C3gMNEifoL1wE/0EXgrP39RgXwVYSAgad5vMFq4X1uf0A);strokeColor=#8c8c8c;strokeWidth=2;points=[[1,0.5,0],[0.5,0.5,0],[0.5,0,0]];labelBackgroundColor=none;rounded=1;html=1;whiteSpace=wrap;" parent="40" vertex="1">
          <mxGeometry x="136" y="157" width="112" height="51" as="geometry" />
        </mxCell>
        <mxCell id="55" value="&lt;div style=&quot;font-size: 1px&quot;&gt;&lt;font style=&quot;font-size:19.76px;font-family:Segoe UI;color:#000000;direction:ltr;letter-spacing:0px;line-height:120%;opacity:1&quot;&gt;Узел Веб-сервер&amp;nbsp;&lt;/font&gt;&lt;font style=&quot;font-size:19.76px;font-family:Segoe UI;color:#000000;direction:ltr;letter-spacing:0px;line-height:120%;opacity:1&quot;&gt;Directum RX&lt;br&gt;&lt;/font&gt;&lt;/div&gt;" style="verticalAlign=middle;align=center;overflow=width;vsdxID=151;fillColor=none;gradientColor=none;shape=stencil(nZBLDoAgDERP0z3SIyjew0SURgSD+Lu9kMZoXLhwN9O+tukAlrNpJg1SzDH4QW/URgNYgZTkjA4UkwJUgGXng+6DX1zLfmoymdXo17xh5zmRJ6Q42BWCfc2oJfdAr+Yv+AP9Cb7OJ3H/2JG1HNGz/84klThPVCc=);strokeColor=none;points=[[1,0.5,0],[0.5,0.5,0],[0.5,0,0]];labelBackgroundColor=none;rounded=0;html=1;whiteSpace=wrap;" parent="40" vertex="1">
          <mxGeometry x="8" y="10" width="489" height="26" as="geometry" />
        </mxCell>
        <mxCell id="56" value="&lt;div style=&quot;font-size: 1px&quot;&gt;&lt;font style=&quot;font-size:12.7px;font-family:Segoe UI;color:#FFFFFF;direction:ltr;letter-spacing:0px;line-height:120%;opacity:1&quot;&gt;Сервис &lt;br/&gt;виджетов&lt;br/&gt;&lt;/font&gt;&lt;/div&gt;" style="verticalAlign=middle;align=center;overflow=width;vsdxID=152;fillColor=#00b050;gradientColor=none;shape=stencil(nZBLDsIwEENPM1sUMoILlHIBThCRQEaEpErD9/SkNUhVFyy6G9vPGsnETe9N50irvuR0cQ+xxRPvSGuJ3mUp9SJuiZtTyu6c0y1a6M5UUqvRcRad9UBrZfLxIG8Hb7viDWz0ruk+/HsiVYhe376C3gMNEifoL1wE/0EXgrP39RgXwVYSAgad5vMFq4X1uf0A);strokeColor=#8c8c8c;strokeWidth=2;points=[[1,0.5,0],[0.5,0.5,0],[0.5,0,0]];labelBackgroundColor=none;rounded=1;html=1;whiteSpace=wrap;" parent="40" vertex="1">
          <mxGeometry x="256" y="157" width="112" height="51" as="geometry" />
        </mxCell>
        <mxCell id="57" value="&lt;div style=&quot;font-size: 1px&quot;&gt;&lt;p style=&quot;text-align:center;margin-left:0;margin-right:0;margin-top:0px;margin-bottom:0px;text-indent:0;vertical-align:middle;direction:ltr;&quot;&gt;&lt;font style=&quot;font-size:12.7px;font-family:Segoe UI;color:#FFFFFF;direction:ltr;letter-spacing:0px;line-height:120%;opacity:1&quot;&gt;Сервис &lt;br/&gt;&lt;/font&gt;&lt;/p&gt;&lt;p style=&quot;text-align:center;margin-left:0;margin-right:0;margin-top:0px;margin-bottom:0px;text-indent:0;vertical-align:middle;direction:ltr;&quot;&gt;&lt;font style=&quot;font-size:12.7px;font-family:Segoe UI;color:#FFFFFF;direction:ltr;letter-spacing:0px;line-height:120%;opacity:1&quot;&gt;отчетов&lt;br/&gt;&lt;/font&gt;&lt;/p&gt;&lt;/div&gt;" style="verticalAlign=middle;align=center;overflow=width;vsdxID=153;fillColor=#00b050;gradientColor=none;shape=stencil(nZBLDsIwEENPM1sUMoILlHIBThCRQEaEpErD9/SkNUhVFyy6G9vPGsnETe9N50irvuR0cQ+xxRPvSGuJ3mUp9SJuiZtTyu6c0y1a6M5UUqvRcRad9UBrZfLxIG8Hb7viDWz0ruk+/HsiVYhe376C3gMNEifoL1wE/0EXgrP39RgXwVYSAgad5vMFq4X1uf0A);strokeColor=#8c8c8c;strokeWidth=2;points=[[1,0.5,0],[0.5,0.5,0],[0.5,0,0]];labelBackgroundColor=none;rounded=1;html=1;whiteSpace=wrap;" parent="40" vertex="1">
          <mxGeometry x="376" y="157" width="112" height="51" as="geometry" />
        </mxCell>
        <mxCell id="8MSi6_7zFtZhW2bontoD-248" value="&lt;div style=&quot;font-size: 1px&quot;&gt;&lt;font style=&quot;font-size:12.7px;font-family:Segoe UI;color:#FFFFFF;direction:ltr;letter-spacing:0px;line-height:120%;opacity:1&quot;&gt;Веб-сервер&lt;/font&gt;&lt;/div&gt;" style="verticalAlign=middle;align=center;overflow=width;vsdxID=152;fillColor=#00b050;gradientColor=none;shape=stencil(nZBLDsIwEENPM1sUMoILlHIBThCRQEaEpErD9/SkNUhVFyy6G9vPGsnETe9N50irvuR0cQ+xxRPvSGuJ3mUp9SJuiZtTyu6c0y1a6M5UUqvRcRad9UBrZfLxIG8Hb7viDWz0ruk+/HsiVYhe376C3gMNEifoL1wE/0EXgrP39RgXwVYSAgad5vMFq4X1uf0A);strokeColor=#8c8c8c;strokeWidth=2;points=[[1,0.5,0],[0.5,0.5,0],[0.5,0,0]];labelBackgroundColor=none;rounded=1;html=1;whiteSpace=wrap;" parent="40" vertex="1">
          <mxGeometry x="253" y="215" width="112" height="51" as="geometry" />
        </mxCell>
        <mxCell id="8MSi6_7zFtZhW2bontoD-249" value="&lt;div style=&quot;font-size: 1px&quot;&gt;&lt;font style=&quot;font-size:12.7px;font-family:Segoe UI;color:#FFFFFF;direction:ltr;letter-spacing:0px;line-height:120%;opacity:1&quot;&gt;Веб-клиент&lt;/font&gt;&lt;/div&gt;" style="verticalAlign=middle;align=center;overflow=width;vsdxID=152;fillColor=#00b050;gradientColor=none;shape=stencil(nZBLDsIwEENPM1sUMoILlHIBThCRQEaEpErD9/SkNUhVFyy6G9vPGsnETe9N50irvuR0cQ+xxRPvSGuJ3mUp9SJuiZtTyu6c0y1a6M5UUqvRcRad9UBrZfLxIG8Hb7viDWz0ruk+/HsiVYhe376C3gMNEifoL1wE/0EXgrP39RgXwVYSAgad5vMFq4X1uf0A);strokeColor=#8c8c8c;strokeWidth=2;points=[[1,0.5,0],[0.5,0.5,0],[0.5,0,0]];labelBackgroundColor=none;rounded=1;html=1;whiteSpace=wrap;" parent="40" vertex="1">
          <mxGeometry x="376" y="215" width="112" height="51" as="geometry" />
        </mxCell>
        <UserObject label="&lt;div style=&quot;font-size: 1px&quot;&gt;&lt;font style=&quot;font-size:12.7px;font-family:Segoe UI;color:#FFFFFF;direction:ltr;letter-spacing:0px;line-height:120%;opacity:1&quot;&gt;Сервис&lt;br/&gt;ключей&lt;br/&gt;&lt;/font&gt;&lt;/div&gt;" tags="Блок-схема" id="58">
          <mxCell style="verticalAlign=middle;align=center;overflow=width;vsdxID=191;fillColor=#00b050;gradientColor=none;shape=stencil(nZBLDsIwEENPM1sUMoILlHIBThCRQEaEpErD9/SkNUhVFyy6G9vPGsnETe9N50irvuR0cQ+xxRPvSGuJ3mUp9SJuiZtTyu6c0y1a6M5UUqvRcRad9UBrZfLxIG8Hb7viDWz0ruk+/HsiVYhe376C3gMNEifoL1wE/0EXgrP39RgXwVYSAgad5vMFq4X1uf0A);strokeColor=#8c8c8c;strokeWidth=2;points=[[1,0.5,0],[0.5,0.5,0],[0.5,0,0]];labelBackgroundColor=none;rounded=1;html=1;whiteSpace=wrap;" parent="1" vertex="1">
            <mxGeometry x="830" y="549" width="112" height="51" as="geometry" />
          </mxCell>
        </UserObject>
        <UserObject label="&lt;div style=&quot;font-size: 1px&quot;&gt;&lt;font style=&quot;font-size:12.7px;font-family:Segoe UI;color:#FFFFFF;direction:ltr;letter-spacing:0px;line-height:120%;opacity:1&quot;&gt;Сервисы Workflow&lt;/font&gt;&lt;font style=&quot;font-size:12.7px;font-family:Segoe UI;color:#FFFFFF;direction:ltr;letter-spacing:0px;line-height:120%;opacity:1&quot;&gt;&lt;br/&gt;&lt;/font&gt;&lt;/div&gt;" tags="Блок-схема" id="59">
          <mxCell style="verticalAlign=middle;align=center;overflow=width;vsdxID=192;fillColor=#00b050;gradientColor=none;shape=stencil(nZBLDsIwEENPM1sUMoILlHIBThCRQEaEpErD9/SkNUhVFyy6G9vPGsnETe9N50irvuR0cQ+xxRPvSGuJ3mUp9SJuiZtTyu6c0y1a6M5UUqvRcRad9UBrZfLxIG8Hb7viDWz0ruk+/HsiVYhe376C3gMNEifoL1wE/0EXgrP39RgXwVYSAgad5vMFq4X1uf0A);strokeColor=#8c8c8c;strokeWidth=2;points=[[1,0.5,0],[0.5,0.5,0],[0.5,0,0]];labelBackgroundColor=none;rounded=1;html=1;whiteSpace=wrap;" parent="1" vertex="1">
            <mxGeometry x="1070" y="549" width="112" height="51" as="geometry" />
          </mxCell>
        </UserObject>
        <UserObject label="&lt;div style=&quot;font-size: 1px&quot;&gt;&lt;font style=&quot;font-size:12.7px;font-family:Segoe UI;color:#FFFFFF;direction:ltr;letter-spacing:0px;line-height:120%;opacity:1&quot;&gt;Сервис асинхронных событий&lt;/font&gt;&lt;font style=&quot;font-size:12.7px;font-family:Segoe UI;color:#FFFFFF;direction:ltr;letter-spacing:0px;line-height:120%;opacity:1&quot;&gt;&lt;br/&gt;&lt;/font&gt;&lt;/div&gt;" tags="Блок-схема" id="60">
          <mxCell style="verticalAlign=middle;align=center;overflow=width;vsdxID=193;fillColor=#00b050;gradientColor=none;shape=stencil(nZBLDsIwEENPM1sUMoILlHIBThCRQEaEpErD9/SkNUhVFyy6G9vPGsnETe9N50irvuR0cQ+xxRPvSGuJ3mUp9SJuiZtTyu6c0y1a6M5UUqvRcRad9UBrZfLxIG8Hb7viDWz0ruk+/HsiVYhe376C3gMNEifoL1wE/0EXgrP39RgXwVYSAgad5vMFq4X1uf0A);strokeColor=#8c8c8c;strokeWidth=2;points=[[1,0.5,0],[0.5,0.5,0],[0.5,0,0]];labelBackgroundColor=none;rounded=1;html=1;whiteSpace=wrap;" parent="1" vertex="1">
            <mxGeometry x="710" y="608" width="112" height="51" as="geometry" />
          </mxCell>
        </UserObject>
        <UserObject label="&lt;div style=&quot;font-size: 1px&quot;&gt;&lt;font style=&quot;font-size:12.7px;font-family:Segoe UI;color:#FFFFFF;direction:ltr;letter-spacing:0px;line-height:120%;opacity:1&quot;&gt;Сервис &lt;br/&gt;хранилищ&lt;br/&gt;&lt;/font&gt;&lt;/div&gt;" tags="Блок-схема" id="61">
          <mxCell style="verticalAlign=middle;align=center;overflow=width;vsdxID=194;fillColor=#00b050;gradientColor=none;shape=stencil(nZBLDsIwEENPM1sUMoILlHIBThCRQEaEpErD9/SkNUhVFyy6G9vPGsnETe9N50irvuR0cQ+xxRPvSGuJ3mUp9SJuiZtTyu6c0y1a6M5UUqvRcRad9UBrZfLxIG8Hb7viDWz0ruk+/HsiVYhe376C3gMNEifoL1wE/0EXgrP39RgXwVYSAgad5vMFq4X1uf0A);strokeColor=#8c8c8c;strokeWidth=2;points=[[1,0.5,0],[0.5,0.5,0],[0.5,0,0]];labelBackgroundColor=none;rounded=1;html=1;whiteSpace=wrap;" parent="1" vertex="1">
            <mxGeometry x="830" y="608" width="112" height="51" as="geometry" />
          </mxCell>
        </UserObject>
        <UserObject label="&lt;div style=&quot;font-size: 1px&quot;&gt;&lt;font style=&quot;font-size:12.7px;font-family:Segoe UI;color:#FFFFFF;direction:ltr;letter-spacing:0px;line-height:120%;opacity:1&quot;&gt;Сервисы предпросмотра&lt;/font&gt;&lt;font style=&quot;font-size:12.7px;font-family:Segoe UI;color:#FFFFFF;direction:ltr;letter-spacing:0px;line-height:120%;opacity:1&quot;&gt;&lt;br/&gt;&lt;/font&gt;&lt;/div&gt;" tags="Блок-схема" id="62">
          <mxCell style="verticalAlign=middle;align=center;overflow=width;vsdxID=195;fillColor=#00b050;gradientColor=none;shape=stencil(nZBLDsIwEENPM1sUMoILlHIBThCRQEaEpErD9/SkNUhVFyy6G9vPGsnETe9N50irvuR0cQ+xxRPvSGuJ3mUp9SJuiZtTyu6c0y1a6M5UUqvRcRad9UBrZfLxIG8Hb7viDWz0ruk+/HsiVYhe376C3gMNEifoL1wE/0EXgrP39RgXwVYSAgad5vMFq4X1uf0A);strokeColor=#8c8c8c;strokeWidth=2;points=[[1,0.5,0],[0.5,0.5,0],[0.5,0,0]];labelBackgroundColor=none;rounded=1;html=1;whiteSpace=wrap;" parent="1" vertex="1">
            <mxGeometry x="950" y="608" width="112" height="51" as="geometry" />
          </mxCell>
        </UserObject>
        <UserObject label="&lt;div style=&quot;font-size: 1px&quot;&gt;&lt;font style=&quot;font-size:12.7px;font-family:Segoe UI;color:#ffffff;direction:ltr;letter-spacing:0px;line-height:120%;opacity:1&quot;&gt;Сервис планировщика&lt;/font&gt;&lt;font style=&quot;font-size:12.7px;font-family:Segoe UI;color:#FFFFFF;direction:ltr;letter-spacing:0px;line-height:120%;opacity:1&quot;&gt;&lt;br/&gt;&lt;/font&gt;&lt;/div&gt;" tags="Блок-схема" id="63">
          <mxCell style="verticalAlign=middle;align=center;overflow=width;vsdxID=196;fillColor=#00b050;gradientColor=none;shape=stencil(nZBLDsIwEENPM1sUMoILlHIBThCRQEaEpErD9/SkNUhVFyy6G9vPGsnETe9N50irvuR0cQ+xxRPvSGuJ3mUp9SJuiZtTyu6c0y1a6M5UUqvRcRad9UBrZfLxIG8Hb7viDWz0ruk+/HsiVYhe376C3gMNEifoL1wE/0EXgrP39RgXwVYSAgad5vMFq4X1uf0A);strokeColor=#8c8c8c;strokeWidth=2;points=[[1,0.5,0],[0.5,0.5,0],[0.5,0,0]];labelBackgroundColor=none;rounded=1;html=1;whiteSpace=wrap;" parent="1" vertex="1">
            <mxGeometry x="950" y="550" width="112" height="51" as="geometry" />
          </mxCell>
        </UserObject>
        <UserObject label="&lt;div style=&quot;font-size: 1px&quot;&gt;&lt;font style=&quot;font-size:12.7px;font-family:Segoe UI;color:#FFFFFF;direction:ltr;letter-spacing:0px;line-height:120%;opacity:1&quot;&gt;Сервис &lt;br/&gt;индексирования&lt;/font&gt;&lt;font style=&quot;font-size:12.7px;font-family:Segoe UI;color:#FFFFFF;direction:ltr;letter-spacing:0px;line-height:120%;opacity:1&quot;&gt;&lt;br/&gt;&lt;/font&gt;&lt;/div&gt;" tags="Блок-схема" id="64">
          <mxCell style="verticalAlign=middle;align=center;overflow=width;vsdxID=197;fillColor=#00b050;gradientColor=none;shape=stencil(nZBLDsIwEENPM1sUMoILlHIBThCRQEaEpErD9/SkNUhVFyy6G9vPGsnETe9N50irvuR0cQ+xxRPvSGuJ3mUp9SJuiZtTyu6c0y1a6M5UUqvRcRad9UBrZfLxIG8Hb7viDWz0ruk+/HsiVYhe376C3gMNEifoL1wE/0EXgrP39RgXwVYSAgad5vMFq4X1uf0A);strokeColor=#8c8c8c;strokeWidth=2;points=[[1,0.5,0],[0.5,0.5,0],[0.5,0,0]];labelBackgroundColor=none;rounded=1;html=1;whiteSpace=wrap;" parent="1" vertex="1">
            <mxGeometry x="1070" y="608" width="112" height="51" as="geometry" />
          </mxCell>
        </UserObject>
        <UserObject label="&lt;div style=&quot;font-size: 1px&quot;&gt;&lt;font style=&quot;font-size:12.7px;font-family:Segoe UI;color:#FFFFFF;direction:ltr;letter-spacing:0px;line-height:120%;opacity:1&quot;&gt;Сервис &lt;br/&gt;клиентских подключений&lt;br/&gt;&lt;/font&gt;&lt;/div&gt;" tags="Блок-схема" id="65">
          <mxCell style="verticalAlign=middle;align=center;overflow=width;vsdxID=198;fillColor=#00b050;gradientColor=none;shape=stencil(nZBLDsIwEENPM1sUMoILlHIBThCRQEaEpErD9/SkNUhVFyy6G9vPGsnETe9N50irvuR0cQ+xxRPvSGuJ3mUp9SJuiZtTyu6c0y1a6M5UUqvRcRad9UBrZfLxIG8Hb7viDWz0ruk+/HsiVYhe376C3gMNEifoL1wE/0EXgrP39RgXwVYSAgad5vMFq4X1uf0A);strokeColor=#8c8c8c;strokeWidth=2;points=[[1,0.5,0],[0.5,0.5,0],[0.5,0,0]];labelBackgroundColor=none;rounded=1;html=1;whiteSpace=wrap;" parent="1" vertex="1">
            <mxGeometry x="710" y="549" width="112" height="51" as="geometry" />
          </mxCell>
        </UserObject>
        <UserObject label="&lt;div style=&quot;font-size: 1px&quot;&gt;&lt;p style=&quot;text-align:center;margin-left:0;margin-right:0;margin-top:0px;margin-bottom:0px;text-indent:0;vertical-align:middle;direction:ltr;&quot;&gt;&lt;font style=&quot;font-size:12.7px;font-family:Segoe UI;color:#FFFFFF;direction:ltr;letter-spacing:0px;line-height:120%;opacity:1&quot;&gt;Сервис &lt;br/&gt;&lt;/font&gt;&lt;/p&gt;&lt;p style=&quot;text-align:center;margin-left:0;margin-right:0;margin-top:0px;margin-bottom:0px;text-indent:0;vertical-align:middle;direction:ltr;&quot;&gt;&lt;font style=&quot;font-size:12.7px;font-family:Segoe UI;color:#FFFFFF;direction:ltr;letter-spacing:0px;line-height:120%;opacity:1&quot;&gt;интеграций&lt;/font&gt;&lt;font style=&quot;font-size:12.7px;font-family:Segoe UI;color:#FFFFFF;direction:ltr;letter-spacing:0px;line-height:120%;opacity:1&quot;&gt;&lt;br/&gt;&lt;/font&gt;&lt;/p&gt;&lt;/div&gt;" tags="Блок-схема" id="66">
          <mxCell style="verticalAlign=middle;align=center;overflow=width;vsdxID=199;fillColor=#00b050;gradientColor=none;shape=stencil(nZBLDsIwEENPM1sUMoILlHIBThCRQEaEpErD9/SkNUhVFyy6G9vPGsnETe9N50irvuR0cQ+xxRPvSGuJ3mUp9SJuiZtTyu6c0y1a6M5UUqvRcRad9UBrZfLxIG8Hb7viDWz0ruk+/HsiVYhe376C3gMNEifoL1wE/0EXgrP39RgXwVYSAgad5vMFq4X1uf0A);strokeColor=#8c8c8c;strokeWidth=2;points=[[1,0.5,0],[0.5,0.5,0],[0.5,0,0]];labelBackgroundColor=none;rounded=1;html=1;whiteSpace=wrap;" parent="1" vertex="1">
            <mxGeometry x="830" y="666" width="112" height="51" as="geometry" />
          </mxCell>
        </UserObject>
        <UserObject label="&lt;div style=&quot;font-size: 1px&quot;&gt;&lt;font style=&quot;font-size:12.7px;font-family:Segoe UI;color:#FFFFFF;direction:ltr;letter-spacing:0px;line-height:120%;opacity:1&quot;&gt;Сервис &lt;br/&gt;виджетов&lt;br/&gt;&lt;/font&gt;&lt;/div&gt;" tags="Блок-схема" id="67">
          <mxCell style="verticalAlign=middle;align=center;overflow=width;vsdxID=200;fillColor=#00b050;gradientColor=none;shape=stencil(nZBLDsIwEENPM1sUMoILlHIBThCRQEaEpErD9/SkNUhVFyy6G9vPGsnETe9N50irvuR0cQ+xxRPvSGuJ3mUp9SJuiZtTyu6c0y1a6M5UUqvRcRad9UBrZfLxIG8Hb7viDWz0ruk+/HsiVYhe376C3gMNEifoL1wE/0EXgrP39RgXwVYSAgad5vMFq4X1uf0A);strokeColor=#8c8c8c;strokeWidth=2;points=[[1,0.5,0],[0.5,0.5,0],[0.5,0,0]];labelBackgroundColor=none;rounded=1;html=1;whiteSpace=wrap;" parent="1" vertex="1">
            <mxGeometry x="950" y="666" width="112" height="51" as="geometry" />
          </mxCell>
        </UserObject>
        <UserObject label="&lt;div style=&quot;font-size: 1px&quot;&gt;&lt;p style=&quot;text-align:center;margin-left:0;margin-right:0;margin-top:0px;margin-bottom:0px;text-indent:0;vertical-align:middle;direction:ltr;&quot;&gt;&lt;font style=&quot;font-size:12.7px;font-family:Segoe UI;color:#FFFFFF;direction:ltr;letter-spacing:0px;line-height:120%;opacity:1&quot;&gt;Сервис &lt;br/&gt;&lt;/font&gt;&lt;/p&gt;&lt;p style=&quot;text-align:center;margin-left:0;margin-right:0;margin-top:0px;margin-bottom:0px;text-indent:0;vertical-align:middle;direction:ltr;&quot;&gt;&lt;font style=&quot;font-size:12.7px;font-family:Segoe UI;color:#FFFFFF;direction:ltr;letter-spacing:0px;line-height:120%;opacity:1&quot;&gt;отчетов&lt;br/&gt;&lt;/font&gt;&lt;/p&gt;&lt;/div&gt;" tags="Блок-схема" id="68">
          <mxCell style="verticalAlign=middle;align=center;overflow=width;vsdxID=201;fillColor=#00b050;gradientColor=none;shape=stencil(nZBLDsIwEENPM1sUMoILlHIBThCRQEaEpErD9/SkNUhVFyy6G9vPGsnETe9N50irvuR0cQ+xxRPvSGuJ3mUp9SJuiZtTyu6c0y1a6M5UUqvRcRad9UBrZfLxIG8Hb7viDWz0ruk+/HsiVYhe376C3gMNEifoL1wE/0EXgrP39RgXwVYSAgad5vMFq4X1uf0A);strokeColor=#8c8c8c;strokeWidth=2;points=[[1,0.5,0],[0.5,0.5,0],[0.5,0,0]];labelBackgroundColor=none;rounded=1;html=1;whiteSpace=wrap;" parent="1" vertex="1">
            <mxGeometry x="1070" y="666" width="112" height="51" as="geometry" />
          </mxCell>
        </UserObject>
        <UserObject label="" tags="Фон" id="69">
          <mxCell style="vsdxID=203;fillColor=none;gradientColor=none;points=[];labelBackgroundColor=none;rounded=0;strokeColor=none;html=1;whiteSpace=wrap;" parent="1" vertex="1">
            <mxGeometry x="61" y="993" width="659" height="168" as="geometry" />
          </mxCell>
        </UserObject>
        <mxCell id="70" value="&lt;div style=&quot;font-size: 1px&quot;&gt;&lt;/div&gt;" style="verticalAlign=middle;align=center;overflow=width;vsdxID=204;fillColor=#ffffff;gradientColor=none;shape=stencil(nZFLDsIwDERP4y0KyQKxLuUCnCAihliEpEpL+ZyetANS6YJFs7JnXmxpTKZqvW2YtGq7nC58F9d5MjvSWqLnLF2pyNRkqlPKfM7pFh36xhZSq1Fhhz/rgdbK5uNBXgxts9r+PjAYck39sPwBVMF6foYp9HugQeIE/ZqL4D/oQnC2vhRjPAhOQkC6U38eZ5FwClO/AQ==);strokeColor=#7c7c7c;strokeWidth=2;points=[[1,0.5,0],[0.5,0.5,0],[0.5,0,0]];labelBackgroundColor=#FFFFFF;rounded=1;html=1;whiteSpace=wrap;" parent="69" vertex="1">
          <mxGeometry x="56" y="5" width="522" height="164" as="geometry" />
        </mxCell>
        <mxCell id="71" value="&lt;div style=&quot;font-size: 1px&quot;&gt;&lt;font style=&quot;font-size:19.76px;font-family:Segoe UI;color:#000000;direction:ltr;letter-spacing:0px;line-height:120%;opacity:1&quot;&gt;Решение «Личный кабинет»&lt;br/&gt;&lt;/font&gt;&lt;/div&gt;" style="verticalAlign=middle;align=center;overflow=width;vsdxID=205;fillColor=none;gradientColor=none;shape=stencil(nZBLDoAgDERP0z3SIyjew0SURgSD+Lu9kMZoXLhwN9O+tukAlrNpJg1SzDH4QW/URgNYgZTkjA4UkwJUgGXng+6DX1zLfmoymdXo17xh5zmRJ6Q42BWCfc2oJfdAr+Yv+AP9Cb7OJ3H/2JG1HNGz/84klThPVCc=);strokeColor=none;points=[[1,0.5,0],[0.5,0.5,0],[0.5,0,0]];labelBackgroundColor=none;rounded=0;html=1;whiteSpace=wrap;" parent="69" vertex="1">
          <mxGeometry x="133" y="11" width="362" height="21" as="geometry" />
        </mxCell>
        <UserObject label="" tags="Фон" id="72">
          <mxCell style="vsdxID=206;fillColor=none;gradientColor=none;points=[];labelBackgroundColor=none;rounded=0;strokeColor=none;html=1;whiteSpace=wrap;" parent="1" vertex="1">
            <mxGeometry x="612" y="992" width="659" height="168" as="geometry" />
          </mxCell>
        </UserObject>
        <mxCell id="73" value="&lt;div style=&quot;font-size: 1px&quot;&gt;&lt;/div&gt;" style="verticalAlign=middle;align=center;overflow=width;vsdxID=207;fillColor=#ffffff;gradientColor=none;shape=stencil(nZFLDsIwDERP4y0KyQKxLuUCnCAihliEpEpL+ZyetANS6YJFs7JnXmxpTKZqvW2YtGq7nC58F9d5MjvSWqLnLF2pyNRkqlPKfM7pFh36xhZSq1Fhhz/rgdbK5uNBXgxts9r+PjAYck39sPwBVMF6foYp9HugQeIE/ZqL4D/oQnC2vhRjPAhOQkC6U38eZ5FwClO/AQ==);strokeColor=#7c7c7c;strokeWidth=2;points=[[1,0.5,0],[0.5,0.5,0],[0.5,0,0]];labelBackgroundColor=#FFFFFF;rounded=1;html=1;whiteSpace=wrap;" parent="72" vertex="1">
          <mxGeometry x="60" y="5" width="528" height="164" as="geometry" />
        </mxCell>
        <mxCell id="74" value="&lt;div style=&quot;font-size: 1px&quot;&gt;&lt;font style=&quot;font-size:19.76px;font-family:Segoe UI;color:#000000;direction:ltr;letter-spacing:0px;line-height:120%;opacity:1&quot;&gt;Решение «Личный кабинет»&lt;br/&gt;&lt;/font&gt;&lt;/div&gt;" style="verticalAlign=middle;align=center;overflow=width;vsdxID=208;fillColor=none;gradientColor=none;shape=stencil(nZBLDoAgDERP0z3SIyjew0SURgSD+Lu9kMZoXLhwN9O+tukAlrNpJg1SzDH4QW/URgNYgZTkjA4UkwJUgGXng+6DX1zLfmoymdXo17xh5zmRJ6Q42BWCfc2oJfdAr+Yv+AP9Cb7OJ3H/2JG1HNGz/84klThPVCc=);strokeColor=none;points=[[1,0.5,0],[0.5,0.5,0],[0.5,0,0]];labelBackgroundColor=none;rounded=0;html=1;whiteSpace=wrap;" parent="72" vertex="1">
          <mxGeometry x="142" y="11" width="362" height="21" as="geometry" />
        </mxCell>
        <UserObject label="&lt;div style=&quot;font-size: 1px&quot;&gt;&lt;font style=&quot;font-size:12.7px;font-family:Segoe UI;color:#FFFFFF;direction:ltr;letter-spacing:0px;line-height:120%;opacity:1&quot;&gt;Сервер приложения ЛК&lt;br/&gt;&lt;/font&gt;&lt;/div&gt;" tags="Блок-схема" id="75">
          <mxCell style="verticalAlign=middle;align=center;overflow=width;vsdxID=217;fillColor=#00b050;gradientColor=none;shape=stencil(nZBLDsIwEENPM1sUMoILlHIBThCRQEaEpErD9/SkNUhVFyy6G9vPGsnETe9N50irvuR0cQ+xxRPvSGuJ3mUp9SJuiZtTyu6c0y1a6M5UUqvRcRad9UBrZfLxIG8Hb7viDWz0ruk+/HsiVYhe376C3gMNEifoL1wE/0EXgrP39RgXwVYSAgad5vMFq4X1uf0A);strokeColor=#8c8c8c;strokeWidth=2;points=[[1,0.5,0],[0.5,0.5,0],[0.5,0,0]];labelBackgroundColor=none;rounded=1;html=1;whiteSpace=wrap;" parent="1" vertex="1">
            <mxGeometry x="140" y="1033" width="112" height="51" as="geometry" />
          </mxCell>
        </UserObject>
        <UserObject label="&lt;div style=&quot;font-size: 1px&quot;&gt;&lt;font style=&quot;font-size:12.7px;font-family:Segoe UI;color:#FFFFFF;direction:ltr;letter-spacing:0px;line-height:120%;opacity:1&quot;&gt;Сайт ЛК&lt;br/&gt;&lt;/font&gt;&lt;/div&gt;" tags="Блок-схема" id="76">
          <mxCell style="verticalAlign=middle;align=center;overflow=width;vsdxID=218;fillColor=#00b050;gradientColor=none;shape=stencil(nZBLDsIwEENPM1sUMoILlHIBThCRQEaEpErD9/SkNUhVFyy6G9vPGsnETe9N50irvuR0cQ+xxRPvSGuJ3mUp9SJuiZtTyu6c0y1a6M5UUqvRcRad9UBrZfLxIG8Hb7viDWz0ruk+/HsiVYhe376C3gMNEifoL1wE/0EXgrP39RgXwVYSAgad5vMFq4X1uf0A);strokeColor=#8c8c8c;strokeWidth=2;points=[[1,0.5,0],[0.5,0.5,0],[0.5,0,0]];labelBackgroundColor=none;rounded=1;html=1;whiteSpace=wrap;" parent="1" vertex="1">
            <mxGeometry x="140" y="1095" width="112" height="51" as="geometry" />
          </mxCell>
        </UserObject>
        <UserObject label="&lt;div style=&quot;font-size: 1px&quot;&gt;&lt;font style=&quot;font-size:12.7px;font-family:Segoe UI;color:#FFFFFF;direction:ltr;letter-spacing:0px;line-height:120%;opacity:1&quot;&gt;Сервис идентификации&lt;br/&gt;&lt;/font&gt;&lt;/div&gt;" tags="Блок-схема" id="77">
          <mxCell style="verticalAlign=middle;align=center;overflow=width;vsdxID=219;fillColor=#00b050;gradientColor=none;shape=stencil(nZBLDsIwEENPM1sUMoILlHIBThCRQEaEpErD9/SkNUhVFyy6G9vPGsnETe9N50irvuR0cQ+xxRPvSGuJ3mUp9SJuiZtTyu6c0y1a6M5UUqvRcRad9UBrZfLxIG8Hb7viDWz0ruk+/HsiVYhe376C3gMNEifoL1wE/0EXgrP39RgXwVYSAgad5vMFq4X1uf0A);strokeColor=#8c8c8c;strokeWidth=2;points=[[1,0.5,0],[0.5,0.5,0],[0.5,0,0]];labelBackgroundColor=none;rounded=1;html=1;whiteSpace=wrap;" parent="1" vertex="1">
            <mxGeometry x="261" y="1033" width="112" height="51" as="geometry" />
          </mxCell>
        </UserObject>
        <UserObject label="&lt;div style=&quot;font-size: 1px&quot;&gt;&lt;font style=&quot;font-size:12.7px;font-family:Segoe UI;color:#FFFFFF;direction:ltr;letter-spacing:0px;line-height:120%;opacity:1&quot;&gt;Сервис подписания&lt;br/&gt;&lt;/font&gt;&lt;/div&gt;" tags="Блок-схема" id="78">
          <mxCell style="verticalAlign=middle;align=center;overflow=width;vsdxID=220;fillColor=#00b050;gradientColor=none;shape=stencil(nZBLDsIwEENPM1sUMoILlHIBThCRQEaEpErD9/SkNUhVFyy6G9vPGsnETe9N50irvuR0cQ+xxRPvSGuJ3mUp9SJuiZtTyu6c0y1a6M5UUqvRcRad9UBrZfLxIG8Hb7viDWz0ruk+/HsiVYhe376C3gMNEifoL1wE/0EXgrP39RgXwVYSAgad5vMFq4X1uf0A);strokeColor=#8c8c8c;strokeWidth=2;points=[[1,0.5,0],[0.5,0.5,0],[0.5,0,0]];labelBackgroundColor=none;rounded=1;html=1;whiteSpace=wrap;" parent="1" vertex="1">
            <mxGeometry x="381" y="1033" width="112" height="51" as="geometry" />
          </mxCell>
        </UserObject>
        <UserObject label="&lt;div style=&quot;font-size: 1px&quot;&gt;&lt;font style=&quot;font-size:12.7px;font-family:Segoe UI;color:#FFFFFF;direction:ltr;letter-spacing:0px;line-height:120%;opacity:1&quot;&gt;Сервис хранилищ&lt;br/&gt;&lt;/font&gt;&lt;/div&gt;" tags="Блок-схема" id="79">
          <mxCell style="verticalAlign=middle;align=center;overflow=width;vsdxID=221;fillColor=#00b050;gradientColor=none;shape=stencil(nZBLDsIwEENPM1sUMoILlHIBThCRQEaEpErD9/SkNUhVFyy6G9vPGsnETe9N50irvuR0cQ+xxRPvSGuJ3mUp9SJuiZtTyu6c0y1a6M5UUqvRcRad9UBrZfLxIG8Hb7viDWz0ruk+/HsiVYhe376C3gMNEifoL1wE/0EXgrP39RgXwVYSAgad5vMFq4X1uf0A);strokeColor=#8c8c8c;strokeWidth=2;points=[[1,0.5,0],[0.5,0.5,0],[0.5,0,0]];labelBackgroundColor=none;rounded=1;html=1;whiteSpace=wrap;" parent="1" vertex="1">
            <mxGeometry x="381" y="1095" width="112" height="51" as="geometry" />
          </mxCell>
        </UserObject>
        <UserObject label="&lt;div style=&quot;font-size: 1px&quot;&gt;&lt;font style=&quot;font-size:12.7px;font-family:Segoe UI;color:#FFFFFF;direction:ltr;letter-spacing:0px;line-height:120%;opacity:1&quot;&gt;Сервис предпросмотра&lt;br/&gt;&lt;/font&gt;&lt;/div&gt;" tags="Блок-схема" id="80">
          <mxCell style="verticalAlign=middle;align=center;overflow=width;vsdxID=222;fillColor=#00b050;gradientColor=none;shape=stencil(nZBLDsIwEENPM1sUMoILlHIBThCRQEaEpErD9/SkNUhVFyy6G9vPGsnETe9N50irvuR0cQ+xxRPvSGuJ3mUp9SJuiZtTyu6c0y1a6M5UUqvRcRad9UBrZfLxIG8Hb7viDWz0ruk+/HsiVYhe376C3gMNEifoL1wE/0EXgrP39RgXwVYSAgad5vMFq4X1uf0A);strokeColor=#8c8c8c;strokeWidth=2;points=[[1,0.5,0],[0.5,0.5,0],[0.5,0,0]];labelBackgroundColor=none;rounded=1;html=1;whiteSpace=wrap;" parent="1" vertex="1">
            <mxGeometry x="501" y="1033" width="112" height="51" as="geometry" />
          </mxCell>
        </UserObject>
        <UserObject label="&lt;div style=&quot;font-size: 1px&quot;&gt;&lt;font style=&quot;font-size:12.7px;font-family:Segoe UI;color:#FFFFFF;direction:ltr;letter-spacing:0px;line-height:120%;opacity:1&quot;&gt;Сервис хранения файлов предпросмотра&lt;br/&gt;&lt;/font&gt;&lt;/div&gt;" tags="Блок-схема" id="81">
          <mxCell style="verticalAlign=middle;align=center;overflow=width;vsdxID=223;fillColor=#00b050;gradientColor=none;shape=stencil(nZBLDsIwEENPM1sUMoILlHIBThCRQEaEpErD9/SkNUhVFyy6G9vPGsnETe9N50irvuR0cQ+xxRPvSGuJ3mUp9SJuiZtTyu6c0y1a6M5UUqvRcRad9UBrZfLxIG8Hb7viDWz0ruk+/HsiVYhe376C3gMNEifoL1wE/0EXgrP39RgXwVYSAgad5vMFq4X1uf0A);strokeColor=#8c8c8c;strokeWidth=2;points=[[1,0.5,0],[0.5,0.5,0],[0.5,0,0]];labelBackgroundColor=none;rounded=1;html=1;whiteSpace=wrap;" parent="1" vertex="1">
            <mxGeometry x="501" y="1095" width="112" height="51" as="geometry" />
          </mxCell>
        </UserObject>
        <UserObject label="&lt;div style=&quot;font-size: 1px&quot;&gt;&lt;font style=&quot;font-size:12.7px;font-family:Segoe UI;color:#FFFFFF;direction:ltr;letter-spacing:0px;line-height:120%;opacity:1&quot;&gt;Сервер приложения ЛК&lt;br/&gt;&lt;/font&gt;&lt;/div&gt;" tags="Блок-схема" id="82">
          <mxCell style="verticalAlign=middle;align=center;overflow=width;vsdxID=224;fillColor=#00b050;gradientColor=none;shape=stencil(nZBLDsIwEENPM1sUMoILlHIBThCRQEaEpErD9/SkNUhVFyy6G9vPGsnETe9N50irvuR0cQ+xxRPvSGuJ3mUp9SJuiZtTyu6c0y1a6M5UUqvRcRad9UBrZfLxIG8Hb7viDWz0ruk+/HsiVYhe376C3gMNEifoL1wE/0EXgrP39RgXwVYSAgad5vMFq4X1uf0A);strokeColor=#8c8c8c;strokeWidth=2;points=[[1,0.5,0],[0.5,0.5,0],[0.5,0,0]];labelBackgroundColor=none;rounded=1;html=1;whiteSpace=wrap;" parent="1" vertex="1">
            <mxGeometry x="699" y="1034" width="112" height="51" as="geometry" />
          </mxCell>
        </UserObject>
        <UserObject label="&lt;div style=&quot;font-size: 1px&quot;&gt;&lt;font style=&quot;font-size:12.7px;font-family:Segoe UI;color:#FFFFFF;direction:ltr;letter-spacing:0px;line-height:120%;opacity:1&quot;&gt;Сайт ЛК&lt;br/&gt;&lt;/font&gt;&lt;/div&gt;" tags="Блок-схема" id="83">
          <mxCell style="verticalAlign=middle;align=center;overflow=width;vsdxID=225;fillColor=#00b050;gradientColor=none;shape=stencil(nZBLDsIwEENPM1sUMoILlHIBThCRQEaEpErD9/SkNUhVFyy6G9vPGsnETe9N50irvuR0cQ+xxRPvSGuJ3mUp9SJuiZtTyu6c0y1a6M5UUqvRcRad9UBrZfLxIG8Hb7viDWz0ruk+/HsiVYhe376C3gMNEifoL1wE/0EXgrP39RgXwVYSAgad5vMFq4X1uf0A);strokeColor=#8c8c8c;strokeWidth=2;points=[[1,0.5,0],[0.5,0.5,0],[0.5,0,0]];labelBackgroundColor=none;rounded=1;html=1;whiteSpace=wrap;" parent="1" vertex="1">
            <mxGeometry x="700" y="1097" width="112" height="51" as="geometry" />
          </mxCell>
        </UserObject>
        <UserObject label="&lt;div style=&quot;font-size: 1px&quot;&gt;&lt;font style=&quot;font-size:12.7px;font-family:Segoe UI;color:#FFFFFF;direction:ltr;letter-spacing:0px;line-height:120%;opacity:1&quot;&gt;Сервис идентификации&lt;br/&gt;&lt;/font&gt;&lt;/div&gt;" tags="Блок-схема" id="84">
          <mxCell style="verticalAlign=middle;align=center;overflow=width;vsdxID=226;fillColor=#00b050;gradientColor=none;shape=stencil(nZBLDsIwEENPM1sUMoILlHIBThCRQEaEpErD9/SkNUhVFyy6G9vPGsnETe9N50irvuR0cQ+xxRPvSGuJ3mUp9SJuiZtTyu6c0y1a6M5UUqvRcRad9UBrZfLxIG8Hb7viDWz0ruk+/HsiVYhe376C3gMNEifoL1wE/0EXgrP39RgXwVYSAgad5vMFq4X1uf0A);strokeColor=#8c8c8c;strokeWidth=2;points=[[1,0.5,0],[0.5,0.5,0],[0.5,0,0]];labelBackgroundColor=none;rounded=1;html=1;whiteSpace=wrap;" parent="1" vertex="1">
            <mxGeometry x="820" y="1034" width="112" height="51" as="geometry" />
          </mxCell>
        </UserObject>
        <UserObject label="&lt;div style=&quot;font-size: 1px&quot;&gt;&lt;font style=&quot;font-size:12.7px;font-family:Segoe UI;color:#FFFFFF;direction:ltr;letter-spacing:0px;line-height:120%;opacity:1&quot;&gt;Сервис документов&lt;br/&gt;&lt;/font&gt;&lt;/div&gt;" tags="Блок-схема" id="85">
          <mxCell style="verticalAlign=middle;align=center;overflow=width;vsdxID=227;fillColor=#00b050;gradientColor=none;shape=stencil(nZBLDsIwEENPM1sUMoILlHIBThCRQEaEpErD9/SkNUhVFyy6G9vPGsnETe9N50irvuR0cQ+xxRPvSGuJ3mUp9SJuiZtTyu6c0y1a6M5UUqvRcRad9UBrZfLxIG8Hb7viDWz0ruk+/HsiVYhe376C3gMNEifoL1wE/0EXgrP39RgXwVYSAgad5vMFq4X1uf0A);strokeColor=#8c8c8c;strokeWidth=2;points=[[1,0.5,0],[0.5,0.5,0],[0.5,0,0]];labelBackgroundColor=none;rounded=1;html=1;whiteSpace=wrap;" parent="1" vertex="1">
            <mxGeometry x="820" y="1097" width="112" height="51" as="geometry" />
          </mxCell>
        </UserObject>
        <UserObject label="&lt;div style=&quot;font-size: 1px&quot;&gt;&lt;font style=&quot;font-size:12.7px;font-family:Segoe UI;color:#FFFFFF;direction:ltr;letter-spacing:0px;line-height:120%;opacity:1&quot;&gt;Сервис подписания&lt;br/&gt;&lt;/font&gt;&lt;/div&gt;" tags="Блок-схема" id="86">
          <mxCell style="verticalAlign=middle;align=center;overflow=width;vsdxID=228;fillColor=#00b050;gradientColor=none;shape=stencil(nZBLDsIwEENPM1sUMoILlHIBThCRQEaEpErD9/SkNUhVFyy6G9vPGsnETe9N50irvuR0cQ+xxRPvSGuJ3mUp9SJuiZtTyu6c0y1a6M5UUqvRcRad9UBrZfLxIG8Hb7viDWz0ruk+/HsiVYhe376C3gMNEifoL1wE/0EXgrP39RgXwVYSAgad5vMFq4X1uf0A);strokeColor=#8c8c8c;strokeWidth=2;points=[[1,0.5,0],[0.5,0.5,0],[0.5,0,0]];labelBackgroundColor=none;rounded=1;html=1;whiteSpace=wrap;" parent="1" vertex="1">
            <mxGeometry x="940" y="1034" width="112" height="51" as="geometry" />
          </mxCell>
        </UserObject>
        <UserObject label="&lt;div style=&quot;font-size: 1px&quot;&gt;&lt;font style=&quot;font-size:12.7px;font-family:Segoe UI;color:#FFFFFF;direction:ltr;letter-spacing:0px;line-height:120%;opacity:1&quot;&gt;Сервис хранилищ&lt;br/&gt;&lt;/font&gt;&lt;/div&gt;" tags="Блок-схема" id="87">
          <mxCell style="verticalAlign=middle;align=center;overflow=width;vsdxID=229;fillColor=#00b050;gradientColor=none;shape=stencil(nZBLDsIwEENPM1sUMoILlHIBThCRQEaEpErD9/SkNUhVFyy6G9vPGsnETe9N50irvuR0cQ+xxRPvSGuJ3mUp9SJuiZtTyu6c0y1a6M5UUqvRcRad9UBrZfLxIG8Hb7viDWz0ruk+/HsiVYhe376C3gMNEifoL1wE/0EXgrP39RgXwVYSAgad5vMFq4X1uf0A);strokeColor=#8c8c8c;strokeWidth=2;points=[[1,0.5,0],[0.5,0.5,0],[0.5,0,0]];labelBackgroundColor=none;rounded=1;html=1;whiteSpace=wrap;" parent="1" vertex="1">
            <mxGeometry x="940" y="1097" width="112" height="51" as="geometry" />
          </mxCell>
        </UserObject>
        <UserObject label="&lt;div style=&quot;font-size: 1px&quot;&gt;&lt;font style=&quot;font-size:12.7px;font-family:Segoe UI;color:#FFFFFF;direction:ltr;letter-spacing:0px;line-height:120%;opacity:1&quot;&gt;Сервис предпросмотра&lt;br/&gt;&lt;/font&gt;&lt;/div&gt;" tags="Блок-схема" id="88">
          <mxCell style="verticalAlign=middle;align=center;overflow=width;vsdxID=230;fillColor=#00b050;gradientColor=none;shape=stencil(nZBLDsIwEENPM1sUMoILlHIBThCRQEaEpErD9/SkNUhVFyy6G9vPGsnETe9N50irvuR0cQ+xxRPvSGuJ3mUp9SJuiZtTyu6c0y1a6M5UUqvRcRad9UBrZfLxIG8Hb7viDWz0ruk+/HsiVYhe376C3gMNEifoL1wE/0EXgrP39RgXwVYSAgad5vMFq4X1uf0A);strokeColor=#8c8c8c;strokeWidth=2;points=[[1,0.5,0],[0.5,0.5,0],[0.5,0,0]];labelBackgroundColor=none;rounded=1;html=1;whiteSpace=wrap;" parent="1" vertex="1">
            <mxGeometry x="1060" y="1034" width="112" height="51" as="geometry" />
          </mxCell>
        </UserObject>
        <UserObject label="&lt;div style=&quot;font-size: 1px&quot;&gt;&lt;font style=&quot;font-size:12.7px;font-family:Segoe UI;color:#FFFFFF;direction:ltr;letter-spacing:0px;line-height:120%;opacity:1&quot;&gt;Сервис хранения файлов предпросмотра&lt;br/&gt;&lt;/font&gt;&lt;/div&gt;" tags="Блок-схема" id="89">
          <mxCell style="verticalAlign=middle;align=center;overflow=width;vsdxID=231;fillColor=#00b050;gradientColor=none;shape=stencil(nZBLDsIwEENPM1sUMoILlHIBThCRQEaEpErD9/SkNUhVFyy6G9vPGsnETe9N50irvuR0cQ+xxRPvSGuJ3mUp9SJuiZtTyu6c0y1a6M5UUqvRcRad9UBrZfLxIG8Hb7viDWz0ruk+/HsiVYhe376C3gMNEifoL1wE/0EXgrP39RgXwVYSAgad5vMFq4X1uf0A);strokeColor=#8c8c8c;strokeWidth=2;points=[[1,0.5,0],[0.5,0.5,0],[0.5,0,0]];labelBackgroundColor=none;rounded=1;html=1;whiteSpace=wrap;" parent="1" vertex="1">
            <mxGeometry x="1060" y="1097" width="112" height="51" as="geometry" />
          </mxCell>
        </UserObject>
        <UserObject label="&lt;div style=&quot;font-size: 1px&quot;&gt;&lt;p style=&quot;text-align:right;margin-left:0;margin-right:0;margin-top:0px;margin-bottom:0px;text-indent:0;vertical-align:middle;direction:ltr;&quot;&gt;&lt;font style=&quot;font-size:16.93px;font-family:Calibri;color:#000000;direction:ltr;letter-spacing:0px;line-height:120%;opacity:1&quot;&gt;&lt;br/&gt;&lt;br/&gt;&lt;br/&gt;&lt;br/&gt;&lt;br/&gt;&lt;br/&gt;&lt;br/&gt;&lt;/font&gt;&lt;font style=&quot;font-size:16.93px;font-family:Themed;color:#000000;direction:ltr;letter-spacing:0px;line-height:120%;opacity:1&quot;&gt;&lt;br/&gt;&lt;/font&gt;&lt;font style=&quot;font-size:16.93px;font-family:Themed;color:#000000;direction:ltr;letter-spacing:0px;line-height:120%;opacity:1&quot;&gt;&lt;br/&gt;&lt;/font&gt;&lt;font style=&quot;font-size:16.93px;font-family:Themed;color:#000000;direction:ltr;letter-spacing:0px;line-height:120%;opacity:1&quot;&gt;Docker Swarm&lt;br/&gt;&lt;/font&gt;&lt;/p&gt;&lt;/div&gt;" tags="Фон" id="90">
          <mxCell style="verticalAlign=middle;align=right;overflow=width;vsdxID=232;fillColor=#FFFFFF;gradientColor=none;fillOpacity=0;shape=stencil(nZBLDoAgDERP0z3SIyjew0SURgSD+Lu9kMZoXLhwN9O+tukAlrNpJg1SzDH4QW/URgNYgZTkjA4UkwJUgGXng+6DX1zLfmoymdXo17xh5zmRJ6Q42BWCfc2oJfdAr+Yv+AP9Cb7OJ3H/2JG1HNGz/84klThPVCc=);dashed=1;points=[];labelBackgroundColor=none;rounded=0;html=1;whiteSpace=wrap;" parent="1" vertex="1">
            <mxGeometry x="95" y="985" width="1116" height="199" as="geometry" />
          </mxCell>
        </UserObject>
        <UserObject label="&lt;div style=&quot;font-size: 1px&quot;&gt;&lt;font style=&quot;font-size:12.7px;font-family:Segoe UI;color:#FFFFFF;direction:ltr;letter-spacing:0px;line-height:120%;opacity:1&quot;&gt;Сервис документов&lt;br/&gt;&lt;/font&gt;&lt;/div&gt;" tags="Блок-схема" id="91">
          <mxCell style="verticalAlign=middle;align=center;overflow=width;vsdxID=233;fillColor=#00b050;gradientColor=none;shape=stencil(nZBLDsIwEENPM1sUMoILlHIBThCRQEaEpErD9/SkNUhVFyy6G9vPGsnETe9N50irvuR0cQ+xxRPvSGuJ3mUp9SJuiZtTyu6c0y1a6M5UUqvRcRad9UBrZfLxIG8Hb7viDWz0ruk+/HsiVYhe376C3gMNEifoL1wE/0EXgrP39RgXwVYSAgad5vMFq4X1uf0A);strokeColor=#8c8c8c;strokeWidth=2;points=[[1,0.5,0],[0.5,0.5,0],[0.5,0,0]];labelBackgroundColor=none;rounded=1;html=1;whiteSpace=wrap;" parent="1" vertex="1">
            <mxGeometry x="262" y="1095" width="112" height="51" as="geometry" />
          </mxCell>
        </UserObject>
        <UserObject label="&lt;div style=&quot;font-size: 1px&quot;&gt;&lt;font style=&quot;font-size:16.93px;font-family:Segoe UI;color:#FFFFFF;direction:ltr;letter-spacing:0px;line-height:120%;opacity:1&quot;&gt;Веб&lt;/font&gt;&lt;font style=&quot;font-size:16.93px;font-family:Segoe UI;color:#FFFFFF;direction:ltr;letter-spacing:0px;line-height:120%;opacity:1&quot;&gt;-клиент &lt;/font&gt;&lt;font style=&quot;font-size:16.93px;font-family:Segoe UI;color:#FFFFFF;direction:ltr;letter-spacing:0px;line-height:120%;opacity:1&quot;&gt;р&lt;/font&gt;&lt;font style=&quot;font-size:16.93px;font-family:Segoe UI;color:#FFFFFF;direction:ltr;letter-spacing:0px;line-height:120%;opacity:1&quot;&gt;ешения «Личный кабинет»&lt;br/&gt;&lt;/font&gt;&lt;/div&gt;" tags="Блок-схема" id="93">
          <mxCell style="verticalAlign=middle;align=center;overflow=width;vsdxID=261;fillColor=#6fb3c4;gradientColor=none;shape=stencil(nZBLDsIwEENPM1sUMoILlHIBThCRQEaEpErD9/SkNUhVFyy6G9vPGsnETe9N50irvuR0cQ+xxRPvSGuJ3mUp9SJuiZtTyu6c0y1a6M5UUqvRcRad9UBrZfLxIG8Hb7viDWz0ruk+/HsiVYhe376C3gMNEifoL1wE/0EXgrP39RgXwVYSAgad5vMFq4X1uf0A);strokeColor=none;strokeWidth=3;points=[[0.5,1,0],[0.5,0,0],[1,0.5,0]];labelBackgroundColor=none;rounded=1;html=1;whiteSpace=wrap;" parent="1" vertex="1">
            <mxGeometry x="662" y="101" width="182" height="45" as="geometry" />
          </mxCell>
        </UserObject>
        <UserObject label="&lt;div style=&quot;font-size: 1px&quot;&gt;&lt;font style=&quot;font-size:12.7px;font-family:Segoe UI;color:#FFFFFF;direction:ltr;letter-spacing:0px;line-height:120%;opacity:1&quot;&gt;Сервис отложенных операций&lt;br/&gt;&lt;/font&gt;&lt;/div&gt;" tags="Блок-схема" id="94">
          <mxCell style="verticalAlign=middle;align=center;overflow=width;vsdxID=295;fillColor=#00b050;gradientColor=none;shape=stencil(nZBLDsIwEENPM1sUMoILlHIBThCRQEaEpErD9/SkNUhVFyy6G9vPGsnETe9N50irvuR0cQ+xxRPvSGuJ3mUp9SJuiZtTyu6c0y1a6M5UUqvRcRad9UBrZfLxIG8Hb7viDWz0ruk+/HsiVYhe376C3gMNEifoL1wE/0EXgrP39RgXwVYSAgad5vMFq4X1uf0A);strokeColor=#8c8c8c;strokeWidth=2;points=[[1,0.5,0],[0.5,0.5,0],[0.5,0,0]];labelBackgroundColor=none;rounded=1;html=1;whiteSpace=wrap;" parent="1" vertex="1">
            <mxGeometry x="122" y="721" width="112" height="51" as="geometry" />
          </mxCell>
        </UserObject>
        <UserObject label="&lt;div style=&quot;font-size: 1px&quot;&gt;&lt;font style=&quot;font-size:12.7px;font-family:Segoe UI;color:#FFFFFF;direction:ltr;letter-spacing:0px;line-height:120%;opacity:1&quot;&gt;Сервис логирования&lt;br/&gt;&lt;/font&gt;&lt;/div&gt;" tags="Блок-схема" id="95">
          <mxCell style="verticalAlign=middle;align=center;overflow=width;vsdxID=296;fillColor=#00b050;gradientColor=none;shape=stencil(nZBLDsIwEENPM1sUMoILlHIBThCRQEaEpErD9/SkNUhVFyy6G9vPGsnETe9N50irvuR0cQ+xxRPvSGuJ3mUp9SJuiZtTyu6c0y1a6M5UUqvRcRad9UBrZfLxIG8Hb7viDWz0ruk+/HsiVYhe376C3gMNEifoL1wE/0EXgrP39RgXwVYSAgad5vMFq4X1uf0A);strokeColor=#8c8c8c;strokeWidth=2;points=[[1,0.5,0],[0.5,0.5,0],[0.5,0,0]];labelBackgroundColor=none;rounded=1;html=1;whiteSpace=wrap;" parent="1" vertex="1">
            <mxGeometry x="242" y="721" width="112" height="51" as="geometry" />
          </mxCell>
        </UserObject>
        <UserObject label="&lt;div style=&quot;font-size: 1px&quot;&gt;&lt;font style=&quot;font-size:12.7px;font-family:Segoe UI;color:#FFFFFF;direction:ltr;letter-spacing:0px;line-height:120%;opacity:1&quot;&gt;Сервис изолированного кода&lt;br/&gt;&lt;/font&gt;&lt;/div&gt;" tags="Блок-схема" id="96">
          <mxCell style="verticalAlign=middle;align=center;overflow=width;vsdxID=297;fillColor=#00b050;gradientColor=none;shape=stencil(nZBLDsIwEENPM1sUMoILlHIBThCRQEaEpErD9/SkNUhVFyy6G9vPGsnETe9N50irvuR0cQ+xxRPvSGuJ3mUp9SJuiZtTyu6c0y1a6M5UUqvRcRad9UBrZfLxIG8Hb7viDWz0ruk+/HsiVYhe376C3gMNEifoL1wE/0EXgrP39RgXwVYSAgad5vMFq4X1uf0A);strokeColor=#8c8c8c;strokeWidth=2;points=[[1,0.5,0],[0.5,0.5,0],[0.5,0,0]];labelBackgroundColor=none;rounded=1;html=1;whiteSpace=wrap;" parent="1" vertex="1">
            <mxGeometry x="122" y="662" width="112" height="51" as="geometry" />
          </mxCell>
        </UserObject>
        <UserObject label="&lt;div style=&quot;font-size: 1px&quot;&gt;&lt;font style=&quot;font-size:12.7px;font-family:Segoe UI;color:#FFFFFF;direction:ltr;letter-spacing:0px;line-height:120%;opacity:1&quot;&gt;Сервис отложенных операций&lt;br/&gt;&lt;/font&gt;&lt;/div&gt;" tags="Блок-схема" id="97">
          <mxCell style="verticalAlign=middle;align=center;overflow=width;vsdxID=299;fillColor=#00b050;gradientColor=none;shape=stencil(nZBLDsIwEENPM1sUMoILlHIBThCRQEaEpErD9/SkNUhVFyy6G9vPGsnETe9N50irvuR0cQ+xxRPvSGuJ3mUp9SJuiZtTyu6c0y1a6M5UUqvRcRad9UBrZfLxIG8Hb7viDWz0ruk+/HsiVYhe376C3gMNEifoL1wE/0EXgrP39RgXwVYSAgad5vMFq4X1uf0A);strokeColor=#8c8c8c;strokeWidth=2;points=[[1,0.5,0],[0.5,0.5,0],[0.5,0,0]];labelBackgroundColor=none;rounded=1;html=1;whiteSpace=wrap;" parent="1" vertex="1">
            <mxGeometry x="710" y="722" width="112" height="51" as="geometry" />
          </mxCell>
        </UserObject>
        <UserObject label="&lt;div style=&quot;font-size: 1px&quot;&gt;&lt;font style=&quot;font-size:12.7px;font-family:Segoe UI;color:#FFFFFF;direction:ltr;letter-spacing:0px;line-height:120%;opacity:1&quot;&gt;Сервис логирования&lt;br/&gt;&lt;/font&gt;&lt;/div&gt;" tags="Блок-схема" id="98">
          <mxCell style="verticalAlign=middle;align=center;overflow=width;vsdxID=300;fillColor=#00b050;gradientColor=none;shape=stencil(nZBLDsIwEENPM1sUMoILlHIBThCRQEaEpErD9/SkNUhVFyy6G9vPGsnETe9N50irvuR0cQ+xxRPvSGuJ3mUp9SJuiZtTyu6c0y1a6M5UUqvRcRad9UBrZfLxIG8Hb7viDWz0ruk+/HsiVYhe376C3gMNEifoL1wE/0EXgrP39RgXwVYSAgad5vMFq4X1uf0A);strokeColor=#8c8c8c;strokeWidth=2;points=[[1,0.5,0],[0.5,0.5,0],[0.5,0,0]];labelBackgroundColor=none;rounded=1;html=1;whiteSpace=wrap;" parent="1" vertex="1">
            <mxGeometry x="831" y="722" width="112" height="51" as="geometry" />
          </mxCell>
        </UserObject>
        <UserObject label="&lt;div style=&quot;font-size: 1px&quot;&gt;&lt;font style=&quot;font-size:12.7px;font-family:Segoe UI;color:#FFFFFF;direction:ltr;letter-spacing:0px;line-height:120%;opacity:1&quot;&gt;Сервис изолированного кода&lt;br/&gt;&lt;/font&gt;&lt;/div&gt;" tags="Блок-схема" id="99">
          <mxCell style="verticalAlign=middle;align=center;overflow=width;vsdxID=301;fillColor=#00b050;gradientColor=none;shape=stencil(nZBLDsIwEENPM1sUMoILlHIBThCRQEaEpErD9/SkNUhVFyy6G9vPGsnETe9N50irvuR0cQ+xxRPvSGuJ3mUp9SJuiZtTyu6c0y1a6M5UUqvRcRad9UBrZfLxIG8Hb7viDWz0ruk+/HsiVYhe376C3gMNEifoL1wE/0EXgrP39RgXwVYSAgad5vMFq4X1uf0A);strokeColor=#8c8c8c;strokeWidth=2;points=[[1,0.5,0],[0.5,0.5,0],[0.5,0,0]];labelBackgroundColor=none;rounded=1;html=1;whiteSpace=wrap;" parent="1" vertex="1">
            <mxGeometry x="710" y="666" width="112" height="51" as="geometry" />
          </mxCell>
        </UserObject>
        <UserObject label="&lt;div style=&quot;font-size: 1px&quot;&gt;&lt;/div&gt;" tags="Блок-схема" id="100">
          <mxCell style="verticalAlign=bottom;align=center;overflow=width;vsdxID=574;fillColor=#00b050;gradientColor=none;fillOpacity=21;shape=stencil(nZBLDsIwEENPM1sUMoILlHIBThCRQEaEpErD9/SkNUhVFyy6G9vPGsnETe9N50irvuR0cQ+xxRPvSGuJ3mUp9SJuiZtTyu6c0y1a6M5UUqvRcRad9UBrZfLxIG8Hb7viDWz0ruk+/HsiVYhe376C3gMNEifoL1wE/0EXgrP39RgXwVYSAgad5vMFq4X1uf0A);dashed=1;strokeColor=#b2b2b2;strokeWidth=2;points=[[1,0.5,0],[0.5,0.5,0],[0.5,0,0]];labelBackgroundColor=none;rounded=1;html=1;whiteSpace=wrap;" parent="1" vertex="1">
            <mxGeometry x="265" y="1348" width="814" height="63" as="geometry" />
          </mxCell>
        </UserObject>
        <UserObject label="&lt;div style=&quot;font-size: 1px&quot;&gt;&lt;p style=&quot;text-align:center;margin-left:0;margin-right:0;margin-top:0px;margin-bottom:0px;text-indent:0;vertical-align:middle;direction:ltr;&quot;&gt;&lt;font style=&quot;font-size:14.11px;font-family:Calibri;color:#FFFFFF;direction:ltr;letter-spacing:0px;line-height:120%;opacity:1&quot;&gt;etcd – haproxy–keepalived&lt;br/&gt;&lt;/font&gt;&lt;/p&gt;&lt;/div&gt;" tags="Блок-схема" id="101">
          <mxCell style="verticalAlign=middle;align=center;overflow=width;vsdxID=575;fillColor=#ff0000;gradientColor=none;shape=stencil(nZBLDsIwEENPM1sUMoILlHIBThCRQEaEpErD9/SkNUhVFyy6G9vPGsnETe9N50irvuR0cQ+xxRPvSGuJ3mUp9SJuiZtTyu6c0y1a6M5UUqvRcRad9UBrZfLxIG8Hb7viDWz0ruk+/HsiVYhe376C3gMNEifoL1wE/0EXgrP39RgXwVYSAgad5vMFq4X1uf0A);strokeColor=none;strokeWidth=2;points=[[1,0.5,0],[0.5,0.5,0],[0.5,0,0]];labelBackgroundColor=none;rounded=1;html=1;whiteSpace=wrap;" parent="1" vertex="1">
            <mxGeometry x="296" y="1359" width="172" height="42" as="geometry" />
          </mxCell>
        </UserObject>
        <UserObject label="&lt;div style=&quot;font-size: 1px&quot;&gt;&lt;/div&gt;" tags="Блок-схема" id="102">
          <mxCell style="verticalAlign=bottom;align=center;overflow=width;vsdxID=577;fillColor=#94a3d0;gradientColor=none;fillOpacity=21;shape=stencil(nZBLDsIwEENPM1sUMoILlHIBThCRQEaEpErD9/SkNUhVFyy6G9vPGsnETe9N50irvuR0cQ+xxRPvSGuJ3mUp9SJuiZtTyu6c0y1a6M5UUqvRcRad9UBrZfLxIG8Hb7viDWz0ruk+/HsiVYhe376C3gMNEifoL1wE/0EXgrP39RgXwVYSAgad5vMFq4X1uf0A);strokeColor=#b2b2b2;strokeWidth=2;points=[[1,0.5,0],[0.5,0.5,0],[0.5,0,0]];labelBackgroundColor=none;rounded=1;html=1;whiteSpace=wrap;" parent="1" vertex="1">
            <mxGeometry x="265" y="1436" width="814" height="63" as="geometry" />
          </mxCell>
        </UserObject>
        <UserObject label="" tags="Фон" id="103">
          <mxCell style="vsdxID=578;fillColor=none;gradientColor=none;points=[];labelBackgroundColor=none;rounded=0;strokeColor=none;html=1;whiteSpace=wrap;" parent="1" vertex="1">
            <mxGeometry x="120" y="1688" width="162" height="168" as="geometry" />
          </mxCell>
        </UserObject>
        <mxCell id="104" value="&lt;div style=&quot;font-size: 1px&quot;&gt;&lt;font style=&quot;font-size:16.93px;font-family:Ubuntu Light;color:#000000;direction:ltr;letter-spacing:0px;line-height:120%;opacity:1&quot;&gt;Сервер системы резервного копирования&lt;br/&gt;&lt;/font&gt;&lt;/div&gt;" style="verticalAlign=middle;align=center;overflow=width;vsdxID=579;fillColor=#ffffff;gradientColor=none;fillOpacity=0;shape=stencil(nZBLDoAgDERP0z3SIyjew0SURgSD+Lu9kMZoXLhwN9O+tukAlrNpJg1SzDH4QW/URgNYgZTkjA4UkwJUgGXng+6DX1zLfmoymdXo17xh5zmRJ6Q42BWCfc2oJfdAr+Yv+AP9Cb7OJ3H/2JG1HNGz/84klThPVCc=);strokeColor=none;points=[];labelBackgroundColor=none;rounded=0;html=1;whiteSpace=wrap;" parent="103" vertex="1">
          <mxGeometry y="111" width="162" height="57" as="geometry" />
        </mxCell>
        <mxCell id="105" style="vsdxID=580;fillColor=none;gradientColor=none;points=[[0.5,0.54,0]];labelBackgroundColor=none;rounded=0;strokeColor=none;html=1;whiteSpace=wrap;" parent="103" vertex="1">
          <mxGeometry x="44" width="72" height="100" as="geometry" />
        </mxCell>
        <mxCell id="106" style="vsdxID=581;fillColor=#FF00FF;gradientColor=none;fillOpacity=0;strokeOpacity=0;shape=stencil(vZTbUoMwEIafhkt2ciKH61rfI2NDmxGhE6jFtzcYwAY01Bn1Lux+/252l01Gd+1Jn01GUNu55tlc7aE7ZfQhI8TWJ+Ns508Z3Wd0VzbOHF1zqQ/h+6wHcji9NK9DhD7ohADMBxVBb8GiFCj8YXkMgsrWsYBEvERA1Q94H1+KW351oQ1euyfvdSPPgMvAu1FAw+folxTIIiCfJX2ue9vmrul0Z5s6+FHwVdodTe6T5WWlj5GrvRpzXpm/LH+dXijgPCFAUMS8hASOEYppDEzcj2MKKoFzDAWLBIlS48iEgGAJGNDiN8KAi+/HzBmIIp4zw3OMEaJiqmaeNQOC/2vWhS8qTi8VCJLcja3li5cDi2UGikGyRNvEomcEGNvoGeXTwv1JzxYXLECtxjpN+o6qf+uKUdP94fO9LG1Vhef21r98X70pvM10/w4=);points=[[0.5,0.54,0]];labelBackgroundColor=none;rounded=0;html=1;whiteSpace=wrap;" parent="105" vertex="1">
          <mxGeometry y="-1" width="72" height="106" as="geometry" />
        </mxCell>
        <mxCell id="107" style="vsdxID=582;fillColor=#28ff89;gradientColor=#00b050;gradientDirection=north;shape=stencil(fVHbEoIgEP0aHmFQvD6X/QeTqEwEzkJpfx9ETtrtbffc2GUR29mBjwKl1DowJzHJ1g2I7VGaSj0IkM5XiDWI7ToDogdz0W3sRx6UoTqba0iYo4+VpM6DK6W3iCSUPvpDlCupV/KFXMTeXlW/5UVC8mxj+JO9TfbWolyLORw9C0tyQaokGmAZPMlIWUdstV35dTs6Yz5Li8E47qTRmxEUh15g/yDuFO83lJ2EGD/g54i+eP1zJ5WKZ1rz73fxULwpa+4=);strokeColor=#ffffff;points=[[0.5,0.54,0]];labelBackgroundColor=none;rounded=0;html=1;whiteSpace=wrap;" parent="105" vertex="1">
          <mxGeometry width="72" height="39" as="geometry" />
        </mxCell>
        <mxCell id="108" style="vsdxID=583;fillColor=#28ff89;gradientColor=#00b050;shape=stencil(rVJBEoMgDHwNRxkEHfFs7T+YisqUihNptb8vFDtVO3rqLcnuJiwJYsXQil4iSgYL5ipHVdkWsROiVHWtBGVdhFiJWFEbkA2Ye1eFvBee6aObefgOU9DFhHgNJc85zzFP35VzoAu4OBQ+9CzBMQ8KmCUpxykLpZm1bjlnUyQmNURgrLDKdCtMC2hk5EZFtRbNChpGKftFOV4+TqtO7o3lMc6SIycEp1snGWZ05eTne8h/3ZB9N3mO8+R4Ny747rVWWoezWOLbO3ClcEOsfAE=);strokeColor=#ffffff;points=[[0.5,0.54,0]];labelBackgroundColor=none;rounded=0;html=1;whiteSpace=wrap;" parent="105" vertex="1">
          <mxGeometry y="24" width="27" height="75" as="geometry" />
        </mxCell>
        <mxCell id="109" style="vsdxID=584;fillColor=#28ff89;gradientColor=#00b050;shape=stencil(UzV2Ls5ILEhVNTIoLinKz04tz0wpyVA1dlE1MsrMy0gtyiwBslSNXVWNndPyi1LTi/JL81Ig/IJEkEoQKze/DGRCBUSfAUiHkUElhGdkoWdqBhZxgyjOyczDqdjQwAC3UpgkTLG5oZ65EfHK8ZhMwMVABsKvaZk5OZCgQpZHDxugECRcjV0B);strokeColor=#ffffff;points=[[0.5,0.54,0]];labelBackgroundColor=none;rounded=0;html=1;whiteSpace=wrap;" parent="105" vertex="1">
          <mxGeometry x="27" y="14" width="44" height="85" as="geometry" />
        </mxCell>
        <mxCell id="110" value="&lt;div style=&quot;font-size: 1px&quot;&gt;&lt;/div&gt;" style="verticalAlign=middle;align=center;overflow=width;vsdxID=585;fillColor=#00b050;gradientColor=none;shape=stencil(jZLdEoIgEIWfhksZBPzp2uw9mERlMnFWSnv7MHQSraa73bPfgV0WxLK+Fp1ElPQG9EUOqjA1YkdEqWprCcrYCLEcsazUICvQt7ZweScmcoqu+j6dMDpfSMjkoeQx5xyn7KWcHN6odoXHIY64ZyDfYf9kynHIf8CYUI9P4w0v4GyrsHRiG3U8zAbOcJQ4aWZYgg+JP94y7hiIUfUBaCOM0q3XcCOgkoG9LigbUXmlfpCy28kfB9q+bBLhNP4f3y3CBu8luv2va9uFW8l9FpY/AQ==);points=[[0.5,0.54,0]];labelBackgroundColor=none;rounded=0;html=1;whiteSpace=wrap;" parent="105" vertex="1">
          <mxGeometry width="72" height="100" as="geometry" />
        </mxCell>
        <mxCell id="111" style="vsdxID=586;rotation=340;fillColor=#28ff89;gradientColor=#00b050;shape=stencil(vVHLDsIgEPwajiQI6RfU+h8bu22JCGRB2/69kG1iazx58DazM/vIjjBtmiCi0CplCjecbZ8nYc5Ca+snJJsLEqYTph0C4Ujh4XvmEaqzont41gkL96naodXKrGF6YSfQtUi0OXXDVlqPfJNP6usotUhYbJIUMmQb/GGrAxpRljVycDBuc1hKM2LclX8/7H9nFfB+82Cd45T2+mcspcSRmu4F);strokeColor=#000000;points=[[0.5,0.54,0]];labelBackgroundColor=none;rounded=0;html=1;whiteSpace=wrap;" parent="105" vertex="1">
          <mxGeometry x="10" y="61" width="4" height="5" as="geometry" />
        </mxCell>
        <mxCell id="112" style="vsdxID=587;fillColor=#28ff89;gradientColor=#00b050;gradientDirection=north;shape=stencil(xZLdDoIwDIWfZpcsowMc1wrvseiARWWkzL+3d6So+BO8Mt61PafdvuQwuewb3RkGovfotuZkN75hcsUAbNsYtD5UTBZMLiuHpkZ3aDfUd3pwDtXeHYcLZ9oTwwaIy7QryahxHRQcjaByLhS58XKbKZ7kNBttsXi+mGY8htER6bPtI3Ree+ta0pXkaUb6TmNtovBqVO10/fS9/mRM9zYuvwNBzPNkHip+Z0phlmmhuMj+x5RIrtQXJvgAlcxC3ftfIYXiEULK71R7DWwYUdhlcQU=);strokeColor=#000000;strokeWidth=2;points=[[0.5,0.54,0]];labelBackgroundColor=none;rounded=0;html=1;whiteSpace=wrap;" parent="105" vertex="1">
          <mxGeometry x="4" y="74" width="18" height="16" as="geometry" />
        </mxCell>
        <mxCell id="113" style="vsdxID=588;fillColor=none;gradientColor=none;points=[[0.5,0.54,0]];labelBackgroundColor=none;rounded=0;strokeColor=none;html=1;whiteSpace=wrap;" parent="105" vertex="1">
          <mxGeometry x="3" y="35" width="19" height="21" as="geometry" />
        </mxCell>
        <mxCell id="114" style="vsdxID=589;fillColor=#00b050;gradientColor=none;shape=stencil(vZPdcoMgEIWfhkt3gEXQ6zR5D6ZBZWLFQfLTty8W+kPatDdt7tZzzsLHjktwswx6NoTTJXh3MGe7DwPBB8K5nQbjbYgVwS3BTee86b07Tvv0Pes1uVZP7rSecEl9CMjWJk6fk8AECHxVdimv/WN0fc5zFFAnn/rcgi0H0SYtx1oJvCnPpTQnKn2xS+Vd0MG6KbnZG7XvTRVvrLpR94W1nI2Zv8jfMgpQsiRU0Kpf+Jr4bnEvwngdsKshNgwUFpA1MFXOEFD+KSK7jYhAm5Iw4siCjwLlBV8Nqr7XCOX7tN74GANeAv7wc/8LYSw+9qyz45jW9LN/vZdRSjuN2xc=);strokeColor=#000000;points=[[0.5,0.54,0]];labelBackgroundColor=none;rounded=0;html=1;whiteSpace=wrap;" parent="113" vertex="1">
          <mxGeometry width="19" height="11" as="geometry" />
        </mxCell>
        <mxCell id="115" style="vsdxID=590;fillColor=#28ff89;gradientColor=#00b050;shape=stencil(pVFLDoIwED1NlzTTlmBZ+7lHIwUakZKhCt7e4mAUxZW7mffpvOYxte1r01kmoQ/oT3ZwRaiZ2jEpXVtbdCFOTO2Z2pYebYX+0ha0d2ZSTtPZX6cXRvIJgMkj4UZ7rjmIB3IgucFjZPEpl4JrRQ6cLUJonueEzTLJ083iWQkc9CxJzOj6BH0wwfmWeJ1zugqNwcom8WpSNqYido7YD9Z2X/BqTg1cZMuYWcqFXKT8/ff1kPBfwji8Wihd01CJ7/xnaxGixtX+Dg==);strokeColor=#FFFFFF;strokeWidth=0;points=[[0.5,0.54,0]];labelBackgroundColor=none;rounded=0;html=1;whiteSpace=wrap;" parent="113" vertex="1">
          <mxGeometry x="5" y="5" width="5" height="3" as="geometry" />
        </mxCell>
        <mxCell id="116" style="vsdxID=591;fillColor=#28ff89;gradientColor=#00b050;shape=stencil(rVJLEoIwDD1Nl3RK4lBc+7lHRwt0rJQJVfD2lqkfQHTlLp/3krwkDDdtpRrNQLSe3El35ugrhlsGYOpKk/HBYrhjuCkc6ZLcpT5Gv1EDcrDO7jpU6CNPDAwQt7G3j0Br6q9ARC5xDFZ0CFl6gEGmHFaRQU8KZDyPoQcqFdOiL79PVG/ahJxX3rh6MoBVVOoktEsKq8pJqu20bj7Ci2rmrbOMg/yhJxcc1jM9KLmc6Fna5b+0pOPhgvG+Z2Gsje8wzs/vH0Lxd3B3Bw==);strokeColor=none;strokeWidth=0;points=[[0.5,0.54,0]];labelBackgroundColor=none;rounded=0;html=1;whiteSpace=wrap;" parent="113" vertex="1">
          <mxGeometry y="6" width="18" height="14" as="geometry" />
        </mxCell>
        <mxCell id="117" style="vsdxID=592;fillColor=#00b050;gradientColor=none;shape=stencil(rVLLEoIwDPyaHun0gRbOiP/R0QIdK2XSqvj3Fouj1UEv3pLNbpKdBPHKdXJQiBHnwR7URe99h/gGMab7ToH2IUK8RrxqLKgW7Knfx3yQE3OKjvY8dRijjkwKRq4xoxSz8o5sI1nCLlRhJrN8hVciKmCW8HKNSRGxmUbJW9dHPmZy1C4D66XXtk82MBJalYV5WWNkm5TcRanhA543NLpXy6OLAgv6xZCgOOepoZwLLMrEUNrzv2bospkftwnB86qNNiY+xWv9/QsCFD+I1zc=);strokeColor=none;points=[[0.5,0.54,0]];labelBackgroundColor=none;rounded=0;html=1;whiteSpace=wrap;" parent="113" vertex="1">
          <mxGeometry y="7" width="18" height="10" as="geometry" />
        </mxCell>
        <mxCell id="118" style="vsdxID=593;fillColor=none;gradientColor=none;shape=stencil(dVDRDoIwDPyaPY6M1ojviP+xyBiLuJFuCv69W4YKGt/uendtcwxr38tRMRA+kLuoybShZ3hkAMb2ikyIiGHDsO4cKU3uZtvMR5mcCV3dPW2Yc06kBIjHmp2ycTD2rxGxqHBtlnSOKi1mqMoCdjlBrwjsi0MeLa5SbJe++czlbDwnF2Qwzm4eGCRpxeM53g1SbyQ/KTX+jJcHI/h0kOtba999xVHuGpsn);strokeColor=#FFFFFF;points=[[0.5,0.54,0]];labelBackgroundColor=none;rounded=0;html=1;whiteSpace=wrap;" parent="113" vertex="1">
          <mxGeometry y="6" width="18" height="14" as="geometry" />
        </mxCell>
        <mxCell id="119" style="vsdxID=594;fillColor=#28ff89;gradientColor=#00b050;shape=stencil(fVDLDsIgEPwajjR0N2n1XPU/iKUtsUKzoK1/L4QawYO3mZ0HZBh2bpKLYiCcJ3tTq+79xPDEALSZFGkfEMMzw26wpEayD9MnvsjojOhun7FhS7laiJgB8Sr5JZlnbf6Ym6aCNrdLugaVdjscRAXHlKA9gthWKfIpLSt3tnG5acfJeum1NYU2SxoVD0/xYZZjIblVqSU71/nnAviukAbMtd/Fwimtjec3);strokeColor=#000000;points=[[0.5,0.54,0]];labelBackgroundColor=none;rounded=0;html=1;whiteSpace=wrap;" parent="113" vertex="1">
          <mxGeometry y="6" width="18" height="14" as="geometry" />
        </mxCell>
        <mxCell id="120" style="vsdxID=595;fillColor=none;gradientColor=none;points=[[0.5,0.54,0]];labelBackgroundColor=none;rounded=0;strokeColor=none;html=1;whiteSpace=wrap;" parent="105" vertex="1">
          <mxGeometry x="36" y="71" width="25" height="35" as="geometry" />
        </mxCell>
        <mxCell id="121" value="&lt;div style=&quot;font-size: 1px&quot;&gt;&lt;/div&gt;" style="verticalAlign=middle;align=center;overflow=width;vsdxID=596;fillColor=#FFFFFF;gradientColor=#f0daac;shape=stencil(tVPNcsIgEH4ajtlZIFQ4W/sejJKEKQ0ZQmv69pJiVNSmp96W/X7Y5FsI346dHgxhOMbg383RHmJH+CthzPadCTamivAd4dvGB9MG/9kf8nnQM3OuPvzX7DBlnaQgZxHD79yoEdTLT+ct853t1/hKQUHXYZ/AcKbTGlBkflgEgHXuTBcHRQtPqZYZcKr0ZMcq+Kij9X3GMWNOh9ZU6cKqcbotoPFozPDQfvpFj9dzCUL8LhAMRMFnCJSu8BNcCihfFaSBVMFfmx428t77/H+fB6KAyjIQyoDzIhEsHRHqJbF/T+PvfUzFdZkb69wtcr/2qZWfDN+dAA==);strokeColor=#000000;points=[[0.5,0.54,0]];labelBackgroundColor=none;rounded=0;html=1;whiteSpace=wrap;" parent="120" vertex="1">
          <mxGeometry width="23" height="35" as="geometry" />
        </mxCell>
        <mxCell id="122" value="&lt;div style=&quot;font-size: 1px&quot;&gt;&lt;/div&gt;" style="verticalAlign=middle;align=center;overflow=width;vsdxID=597;fillColor=#FFFFFF;gradientColor=#f3e2c0;shape=stencil(hZDdDsIgDIWfprekUlnkes73WDImRISFMX/eXpAsbibTu3Pa7zRtgepRt4MCjmMM/qLuposa6AicG6dVMDEpoAao7n1Q5+An1xU/tJnM6upvecKj5DAnOD6LqwQT/F05Fdgat4ClZAexCuwQt/G5OcO0Zyi3cWRYrfgfo/+sncTn4N5Yu+x8vyaVylupeQE=);strokeColor=#000000;points=[[0.5,0.54,0]];labelBackgroundColor=none;rounded=0;html=1;whiteSpace=wrap;" parent="120" vertex="1">
          <mxGeometry y="3" width="19" height="31" as="geometry" />
        </mxCell>
        <mxCell id="123" style="vsdxID=598;fillColor=#00b050;gradientColor=none;shape=stencil(hZCxDoMwDES/xity4w7NTOl/IBGaCEhQSEv79yRyEUkXtrP97qQzUL3odlYgcAneDWo1XdBAdxDCWK28CVEBNUB177x6eveyHc9zm8ikJvdOCR/2YXII/ObTg8HR2Ay8YIkSVShzvMw9xct0KavbtTDsAT88iqMCt89v/3Xjil9FzQY=);strokeColor=#d0bc9d;points=[[0.5,0.54,0]];labelBackgroundColor=none;rounded=0;html=1;whiteSpace=wrap;" parent="120" vertex="1">
          <mxGeometry x="1" y="3" width="18" height="30" as="geometry" />
        </mxCell>
        <mxCell id="124" style="vsdxID=599;fillColor=#00b050;gradientColor=none;shape=stencil(hZDNDoMgEISfZq8G2Zro2Z/3MJEWooJBqu3bC1lNoRdvs7vfTDILWK+yXwRwtjprRrGrwUnABjhXWgqrnFeALWD9NFa8rHnrgealD2RQs9lCwod8LDg4+8ZTR+CkdATmLEXxkWFMp7F3dJpdVVlZJPzlP3EvfgWoe3z7L+tX9ChsDw==);strokeColor=#FFFFFF;points=[[0.5,0.54,0]];labelBackgroundColor=none;rounded=0;html=1;whiteSpace=wrap;" parent="120" vertex="1">
          <mxGeometry y="3" width="19" height="31" as="geometry" />
        </mxCell>
        <mxCell id="125" value="&lt;div style=&quot;font-size: 1px&quot;&gt;&lt;/div&gt;" style="verticalAlign=middle;align=center;overflow=width;vsdxID=600;fillColor=#00b050;gradientColor=none;shape=stencil(vZNNcsMgDIVPw9IaQOCYdZreg0mIzdQ1Hkwa5/bFJT8maZxddkL6nhCjB8H10OjeEE6H4N2XOdpdaAh+EM5t1xhvQ4wIbgiu986b2rtDt0vnXk/kFH27n6nDmHR0UnB6SqdSAV39ZT4T3NpuBlcMqoxXCso5rv02Fv0ZZwKoTLy/CIBiyozXDoplPauYKc9MoUc7FN4FHazrsolb7WtTxAuLfavrrDQcjekf0v++6PF6rEDK5wLJQYpMwCkwtiCggBnPEJhYmAiUyvil6UGq+974fB94HeWyDqZAqGwfuR8YBSHetYsXVozBzcTJ//PaveFjKn0W3PwC);points=[[0.5,0.54,0]];labelBackgroundColor=none;rounded=0;html=1;whiteSpace=wrap;" parent="120" vertex="1">
          <mxGeometry width="23" height="35" as="geometry" />
        </mxCell>
        <UserObject label="&lt;div style=&quot;font-size: 1px&quot;&gt;&lt;font style=&quot;font-size:16.93px;font-family:Ubuntu Light;color:#FFFFFF;direction:ltr;letter-spacing:0px;line-height:120%;opacity:1&quot;&gt;Patroni&lt;br/&gt;&lt;/font&gt;&lt;/div&gt;" tags="Блок-схема" id="126">
          <mxCell style="verticalAlign=middle;align=center;overflow=width;vsdxID=626;fillColor=#00b050;gradientColor=none;shape=stencil(nZBLDsIwEENPM1sUMoILlHIBThCRQEaEpErD9/SkNUhVFyy6G9vPGsnETe9N50irvuR0cQ+xxRPvSGuJ3mUp9SJuiZtTyu6c0y1a6M5UUqvRcRad9UBrZfLxIG8Hb7viDWz0ruk+/HsiVYhe376C3gMNEifoL1wE/0EXgrP39RgXwVYSAgad5vMFq4X1uf0A);strokeColor=#6a819f;strokeWidth=2;points=[[1,0.5,0],[0.5,0.5,0],[0.5,0,0]];labelBackgroundColor=none;rounded=1;html=1;whiteSpace=wrap;" parent="1" vertex="1">
            <mxGeometry x="313" y="1687" width="152" height="29" as="geometry" />
          </mxCell>
        </UserObject>
        <UserObject label="&lt;div style=&quot;font-size: 1px&quot;&gt;&lt;font style=&quot;font-size:16.93px;font-family:Segoe UI;color:#FFFFFF;direction:ltr;letter-spacing:0px;line-height:120%;opacity:1&quot;&gt;Patroni&lt;br/&gt;&lt;/font&gt;&lt;/div&gt;" tags="Блок-схема" id="127">
          <mxCell style="verticalAlign=middle;align=center;overflow=width;vsdxID=627;fillColor=#ff0000;gradientColor=none;shape=stencil(nZBLDsIwEENPM1sUMoILlHIBThCRQEaEpErD9/SkNUhVFyy6G9vPGsnETe9N50irvuR0cQ+xxRPvSGuJ3mUp9SJuiZtTyu6c0y1a6M5UUqvRcRad9UBrZfLxIG8Hb7viDWz0ruk+/HsiVYhe376C3gMNEifoL1wE/0EXgrP39RgXwVYSAgad5vMFq4X1uf0A);strokeColor=#6a819f;strokeWidth=2;points=[[1,0.5,0],[0.5,0.5,0],[0.5,0,0]];labelBackgroundColor=none;rounded=1;html=1;whiteSpace=wrap;" parent="1" vertex="1">
            <mxGeometry x="890" y="1688" width="150" height="29" as="geometry" />
          </mxCell>
        </UserObject>
        <UserObject label="" tags="Фон" id="128">
          <mxCell style="vsdxID=628;fillColor=none;gradientColor=none;points=[];labelBackgroundColor=none;rounded=0;strokeColor=none;html=1;whiteSpace=wrap;" parent="1" vertex="1">
            <mxGeometry x="517" y="1745" width="103" height="110" as="geometry" />
          </mxCell>
        </UserObject>
        <mxCell id="129" style="vsdxID=629;fillColor=none;gradientColor=none;strokeColor=none;spacingTop=-3;spacingBottom=-3;spacingLeft=-3;spacingRight=-3;points=[[0.5,-0.25,0],[0.5,1.25,0],[1.21,0.5,0],[-0.21,0.5,0]];labelBackgroundColor=none;rounded=0;html=1;whiteSpace=wrap;" parent="128" vertex="1">
          <mxGeometry x="2" width="97" height="57" as="geometry" />
        </mxCell>
        <mxCell id="130" style="vsdxID=630;fillColor=none;gradientColor=none;strokeColor=none;spacingTop=-3;spacingBottom=-3;spacingLeft=-3;spacingRight=-3;points=[[0.5,-0.25,0],[0.5,1.25,0],[1.21,0.5,0],[-0.21,0.5,0]];labelBackgroundColor=none;rounded=0;html=1;whiteSpace=wrap;" parent="129" vertex="1">
          <mxGeometry y="-2" width="97" height="57" as="geometry" />
        </mxCell>
        <mxCell id="131" style="vsdxID=631;fillColor=#FFFFFF;gradientColor=none;shape=stencil(pZTbbsIwDIafpreWEydxfDkx9h5olLUao6iUjb392qQMkpWT1osoh9/OV9txQbNdtdiWhcZd1zbv5Ve97KqCngut601VtnXXzwqaFzRbNW351jb7zTKut4tBOcw+ms/BwyHaKcTBRuN3XBOCkbDzEuXrenNF7ix4e7+cFQzLB+TGnctf922EV1EgHgiV945FG6tFRvPjsQMyyrhxiDfjQY/sDMHKBxc8mupfFMDzT43GFM/tkZRS9ACKTxOspAHZGlZOvFKUkl687ogD0UoHFzplvfCbI1kGmsU0oKZZeChlWTk4UPdqb1RaKtYWXOI5jy6m8WTwaDyHgUWE03D27lAMkbie2SgRl0YUryf7VqrZgKB1DomZbFaUmKKcal5fR6dcT5OhmUjoP9/4H3k/ObWTVb1ex250fp63n34rti6a/wA=);strokeColor=none;spacingTop=-3;spacingBottom=-3;spacingLeft=-3;spacingRight=-3;points=[[0.5,-0.25,0],[0.5,1.25,0],[1.21,0.5,0],[-0.21,0.5,0]];labelBackgroundColor=none;rounded=0;html=1;whiteSpace=wrap;" parent="130" vertex="1">
          <mxGeometry width="97" height="57" as="geometry" />
        </mxCell>
        <mxCell id="132" style="vsdxID=632;fillColor=#515251;gradientColor=none;shape=stencil(jVTbboMwDP2avEaOnevj1LX/Ua10oDGoKN26v18gpAWrdENGsuNjOL5F0OZc7k+FQDj3XftRfFeHvhT0KhCrpiy6qo+aoK2gzbHtiveuvTSHZJ/2A3LQPtuv4QvXFGdgCEH4SSaS1Die7BL67dIluEoAyng1C6AsGEJyXzG5VYZn28r4ZjEhuAlPyZ/hC3OkAi+RTV01M+5L6gakNnPqT8FBavssTyW1D2SVA1ToHIBa5h2s9NrehKVNTup4Dt4osORZDQAkzB9a1sCwIkQ8KwMna1EaQyqokTNyrqs/nAgFLzE472IHQaNdsl1JlHG7kWWFfdC1e8i/+sbh8KxrgU3n6rhNyTk2nmvTvNIZti0Pkv1rvaJy38xjVddpsed+vsnxKN0CtP0F);strokeColor=none;spacingTop=-3;spacingBottom=-3;spacingLeft=-3;spacingRight=-3;points=[[0.5,-0.25,0],[0.5,1.25,0],[1.21,0.5,0],[-0.21,0.5,0]];labelBackgroundColor=none;rounded=0;html=1;whiteSpace=wrap;" parent="130" vertex="1">
          <mxGeometry x="5" y="22" width="86" height="31" as="geometry" />
        </mxCell>
        <mxCell id="133" style="vsdxID=633;fillColor=#515251;gradientColor=none;shape=stencil(vVHLDsIgEPwajiQI6RfU+h8bu22JCGRB2/69kG1iazx58DazM/vIjjBtmiCi0CplCjecbZ8nYc5Ca+snJJsLEqYTph0C4Ujh4XvmEaqzont41gkL96naodXKrGF6YSfQtUi0OXXDVlqPfJNP6usotUhYbJIUMmQb/GGrAxpRljVycDBuc1hKM2LclX8/7H9nFfB+82Cd45T2+mcspcSRmu4F);strokeColor=none;spacingTop=-3;spacingBottom=-3;spacingLeft=-3;spacingRight=-3;points=[[0.5,-0.25,0],[0.5,1.25,0],[1.21,0.5,0],[-0.21,0.5,0]];labelBackgroundColor=none;rounded=0;html=1;whiteSpace=wrap;" parent="130" vertex="1">
          <mxGeometry x="5" y="4" width="86" height="21" as="geometry" />
        </mxCell>
        <mxCell id="134" value="&lt;div style=&quot;font-size: 1px&quot;&gt;&lt;/div&gt;" style="text;vsdxID=629;fillColor=none;gradientColor=none;strokeColor=none;spacingTop=-3;spacingBottom=-3;spacingLeft=-3;spacingRight=-3;points=[[0.5,-0.25,0],[0.5,1.25,0],[1.21,0.5,0],[-0.21,0.5,0]];labelBackgroundColor=none;rounded=0;html=1;whiteSpace=wrap;verticalAlign=middle;align=center;overflow=width;;html=1;" parent="129" vertex="1">
          <mxGeometry y="-0.48" width="97.63" height="57.48" as="geometry" />
        </mxCell>
        <mxCell id="135" value="&lt;div style=&quot;font-size: 1px&quot;&gt;&lt;font style=&quot;font-size:16.93px;font-family:Segoe UI;color:#000000;direction:ltr;letter-spacing:0px;line-height:120%;opacity:1&quot;&gt;Хранилище БД (&lt;/font&gt;&lt;font style=&quot;font-size:16.93px;font-family:Segoe UI;color:#000000;direction:ltr;letter-spacing:0px;line-height:120%;opacity:1&quot;&gt;master&lt;/font&gt;&lt;font style=&quot;font-size:16.93px;font-family:Segoe UI;color:#000000;direction:ltr;letter-spacing:0px;line-height:120%;opacity:1&quot;&gt;)&lt;br/&gt;&lt;/font&gt;&lt;/div&gt;" style="verticalAlign=middle;align=center;overflow=width;vsdxID=634;fillColor=none;gradientColor=none;shape=stencil(nZBLDoAgDERP0z3SIyjew0SURgSD+Lu9kMZoXLhwN9O+tukAlrNpJg1SzDH4QW/URgNYgZTkjA4UkwJUgGXng+6DX1zLfmoymdXo17xh5zmRJ6Q42BWCfc2oJfdAr+Yv+AP9Cb7OJ3H/2JG1HNGz/84klThPVCc=);strokeColor=none;points=[];labelBackgroundColor=none;rounded=0;html=1;whiteSpace=wrap;" parent="128" vertex="1">
          <mxGeometry y="56" width="103" height="54" as="geometry" />
        </mxCell>
        <UserObject label="&lt;div style=&quot;font-size: 1px&quot;&gt;&lt;font style=&quot;font-size:16.93px;font-family:Ubuntu Light;color:#FFFFFF;direction:ltr;letter-spacing:0px;line-height:120%;opacity:1&quot;&gt;&lt;br/&gt;&lt;br/&gt;&lt;/font&gt;&lt;/div&gt;" tags="Блок-схема" id="136">
          <mxCell style="verticalAlign=middle;align=center;overflow=width;vsdxID=635;fillColor=none;gradientColor=none;shape=stencil(nZBLDsIwEENPM1sUMoILlHIBThCRQEaEpErD9/SkNUhVFyy6G9vPGsnETe9N50irvuR0cQ+xxRPvSGuJ3mUp9SJuiZtTyu6c0y1a6M5UUqvRcRad9UBrZfLxIG8Hb7viDWz0ruk+/HsiVYhe376C3gMNEifoL1wE/0EXgrP39RgXwVYSAgad5vMFq4X1uf0A);strokeColor=#7c7c7c;strokeWidth=2;points=[[1,0.5,0],[0.5,0.5,0],[0.5,0,0],[0,0.26,0],[0,0.34,0]];labelBackgroundColor=none;rounded=1;html=1;whiteSpace=wrap;" parent="1" vertex="1">
            <mxGeometry x="889" y="1686" width="152" height="228" as="geometry" />
          </mxCell>
        </UserObject>
        <UserObject label="&lt;div style=&quot;font-size: 1px&quot;&gt;&lt;font style=&quot;font-size:19.76px;font-family:Ubuntu Light;color:#000000;direction:ltr;letter-spacing:0px;line-height:120%;opacity:1&quot;&gt;Сервер БД &lt;/font&gt;&lt;font style=&quot;font-size:19.76px;font-family:Ubuntu Light;color:#000000;direction:ltr;letter-spacing:0px;line-height:120%;opacity:1&quot;&gt;PostgreSQL (slave)&lt;br/&gt;&lt;/font&gt;&lt;/div&gt;" tags="Фон" id="137">
          <mxCell style="verticalAlign=middle;align=center;overflow=width;vsdxID=636;fillColor=#ffffff;gradientColor=none;fillOpacity=0;shape=stencil(nZBLDoAgDERP0z3SIyjew0SURgSD+Lu9kMZoXLhwN9O+tukAlrNpJg1SzDH4QW/URgNYgZTkjA4UkwJUgGXng+6DX1zLfmoymdXo17xh5zmRJ6Q42BWCfc2oJfdAr+Yv+AP9Cb7OJ3H/2JG1HNGz/84klThPVCc=);strokeColor=none;points=[];labelBackgroundColor=none;rounded=0;html=1;whiteSpace=wrap;" parent="1" vertex="1">
            <mxGeometry x="888" y="1840" width="152" height="70" as="geometry" />
          </mxCell>
        </UserObject>
        <UserObject label="" tags="Фон" id="138">
          <mxCell style="vsdxID=637;fillColor=none;gradientColor=none;points=[[0.5,0.54,0]];labelBackgroundColor=none;rounded=0;strokeColor=none;html=1;whiteSpace=wrap;" parent="1" vertex="1">
            <mxGeometry x="927" y="1720" width="79" height="109" as="geometry" />
          </mxCell>
        </UserObject>
        <mxCell id="139" style="vsdxID=638;fillColor=#FF00FF;gradientColor=none;fillOpacity=0;strokeOpacity=0;shape=stencil(vVRBcoMwDHwNRzS2hTE+p+k/PI0BTylkDGno72tKmCAoNIe2N1taSbuSRhEe2tKcbSRY2/nm1V7dqSsjfIqEcHVpvevCK8JjhIe88bbwzaU+jf+zGZDD6615HzL0Y1wmQeghSrCPm4WDVF+W5zGgcvUsgDNG4EpClj4O5wlkuA1PQ/GEBLBtMM0sEuDJDhiYoDrTBd74l+D1E5NAdMT7W0CCU2OmnKhAKypvktvHpndt7JvOdK6pCeHK+MLGoVycV6YgrvZq7Xll/laQ5ICktk5AyW1BXAFfKJJA9QzLkNGcCJn+L0UP7CJd3iCJ0f4jgtI7Q02nFt2nGuac/TBV1NOq/EkXVhy5XnGUhOKe8N+iyOcUw+N+QXJXVeMBmvuXFyeYxmuFx08=);points=[[0.5,0.54,0]];labelBackgroundColor=none;rounded=0;html=1;whiteSpace=wrap;" parent="138" vertex="1">
          <mxGeometry width="79" height="109" as="geometry" />
        </mxCell>
        <mxCell id="140" style="vsdxID=639;fillColor=#ff0000;gradientColor=#c40000;gradientDirection=north;shape=stencil(fVHbEoIgEP0aHmFQvD6X/QeTqEwEzkJpfx9ETtrtbffc2GUR29mBjwKl1DowJzHJ1g2I7VGaSj0IkM5XiDWI7ToDogdz0W3sRx6UoTqba0iYo4+VpM6DK6W3iCSUPvpDlCupV/KFXMTeXlW/5UVC8mxj+JO9TfbWolyLORw9C0tyQaokGmAZPMlIWUdstV35dTs6Yz5Li8E47qTRmxEUh15g/yDuFO83lJ2EGD/g54i+eP1zJ5WKZ1rz73fxULwpa+4=);strokeColor=#ffffff;spacingTop=-3;spacingBottom=-3;spacingLeft=-3;spacingRight=-3;points=[[0.5,0.54,0]];labelBackgroundColor=none;rounded=0;html=1;whiteSpace=wrap;" parent="138" vertex="1">
          <mxGeometry width="79" height="43" as="geometry" />
        </mxCell>
        <mxCell id="141" style="vsdxID=640;fillColor=#ff0000;gradientColor=#c40000;shape=stencil(rVJBEoMgDHwNRxkEHfFs7T+YisqUihNptb8vFDtVO3rqLcnuJiwJYsXQil4iSgYL5ipHVdkWsROiVHWtBGVdhFiJWFEbkA2Ye1eFvBee6aObefgOU9DFhHgNJc85zzFP35VzoAu4OBQ+9CzBMQ8KmCUpxykLpZm1bjlnUyQmNURgrLDKdCtMC2hk5EZFtRbNChpGKftFOV4+TqtO7o3lMc6SIycEp1snGWZ05eTne8h/3ZB9N3mO8+R4Ny747rVWWoezWOLbO3ClcEOsfAE=);strokeColor=#ffffff;spacingTop=-3;spacingBottom=-3;spacingLeft=-3;spacingRight=-3;points=[[0.5,0.54,0]];labelBackgroundColor=none;rounded=0;html=1;whiteSpace=wrap;" parent="138" vertex="1">
          <mxGeometry y="26" width="30" height="83" as="geometry" />
        </mxCell>
        <mxCell id="142" style="vsdxID=641;fillColor=#ff0000;gradientColor=#c40000;shape=stencil(UzV2Ls5ILEhVNTIoLinKz04tz0wpyVA1dlE1MsrMy0gtyiwBslSNXVWNndPyi1LTi/JL81Ig/IJEkEoQKze/DGRCBUSfAUiHkUElhGdkoWdqBhZxgyjOyczDqdjQwAC3UpgkTLG5oZ65EfHK8ZhMwMVABsKvaZk5OZCgQpZHDxugECRcjV0B);strokeColor=#ffffff;spacingTop=-3;spacingBottom=-3;spacingLeft=-3;spacingRight=-3;points=[[0.5,0.54,0]];labelBackgroundColor=none;rounded=0;html=1;whiteSpace=wrap;" parent="138" vertex="1">
          <mxGeometry x="30" y="16" width="49" height="93" as="geometry" />
        </mxCell>
        <mxCell id="143" value="&lt;div style=&quot;font-size: 1px&quot;&gt;&lt;/div&gt;" style="verticalAlign=middle;align=center;overflow=width;vsdxID=642;fillColor=#ff0000;gradientColor=none;shape=stencil(jZLdEoIgEIWfhksZBPzp2uw9mERlMnFWSnv7MHQSraa73bPfgV0WxLK+Fp1ElPQG9EUOqjA1YkdEqWprCcrYCLEcsazUICvQt7ZweScmcoqu+j6dMDpfSMjkoeQx5xyn7KWcHN6odoXHIY64ZyDfYf9kynHIf8CYUI9P4w0v4GyrsHRiG3U8zAbOcJQ4aWZYgg+JP94y7hiIUfUBaCOM0q3XcCOgkoG9LigbUXmlfpCy28kfB9q+bBLhNP4f3y3CBu8luv2va9uFW8l9FpY/AQ==);strokeColor=#000000;spacingTop=-3;spacingBottom=-3;spacingLeft=-3;spacingRight=-3;points=[[0.5,0.54,0]];labelBackgroundColor=none;rounded=0;html=1;whiteSpace=wrap;" parent="138" vertex="1">
          <mxGeometry width="79" height="109" as="geometry" />
        </mxCell>
        <mxCell id="144" style="vsdxID=643;rotation=340;fillColor=#ff0000;gradientColor=#c40000;shape=stencil(vVHLDsIgEPwajiQI6RfU+h8bu22JCGRB2/69kG1iazx58DazM/vIjjBtmiCi0CplCjecbZ8nYc5Ca+snJJsLEqYTph0C4Ujh4XvmEaqzont41gkL96naodXKrGF6YSfQtUi0OXXDVlqPfJNP6usotUhYbJIUMmQb/GGrAxpRljVycDBuc1hKM2LclX8/7H9nFfB+82Cd45T2+mcspcSRmu4F);strokeColor=#000000;points=[[0.5,0.54,0]];labelBackgroundColor=none;rounded=0;html=1;whiteSpace=wrap;" parent="138" vertex="1">
          <mxGeometry x="11" y="67" width="4" height="6" as="geometry" />
        </mxCell>
        <mxCell id="145" style="vsdxID=644;fillColor=#ff0000;gradientColor=#c40000;gradientDirection=north;shape=stencil(xZLdDoIwDIWfZpcsowMc1wrvseiARWWkzL+3d6So+BO8Mt61PafdvuQwuewb3RkGovfotuZkN75hcsUAbNsYtD5UTBZMLiuHpkZ3aDfUd3pwDtXeHYcLZ9oTwwaIy7QryahxHRQcjaByLhS58XKbKZ7kNBttsXi+mGY8htER6bPtI3Ree+ta0pXkaUb6TmNtovBqVO10/fS9/mRM9zYuvwNBzPNkHip+Z0phlmmhuMj+x5RIrtQXJvgAlcxC3ftfIYXiEULK71R7DWwYUdhlcQU=);strokeColor=#000000;strokeWidth=2;points=[[0.5,0.54,0]];labelBackgroundColor=none;rounded=0;html=1;whiteSpace=wrap;" parent="138" vertex="1">
          <mxGeometry x="4" y="81" width="20" height="18" as="geometry" />
        </mxCell>
        <mxCell id="146" style="vsdxID=645;fillColor=none;gradientColor=none;points=[[0.5,0.54,0]];labelBackgroundColor=none;rounded=0;strokeColor=none;html=1;whiteSpace=wrap;" parent="138" vertex="1">
          <mxGeometry x="4" y="39" width="21" height="23" as="geometry" />
        </mxCell>
        <mxCell id="147" style="vsdxID=646;fillColor=#ff0000;gradientColor=none;shape=stencil(vZPdcoMgEIWfhkt3gEXQ6zR5D6ZBZWLFQfLTty8W+kPatDdt7tZzzsLHjktwswx6NoTTJXh3MGe7DwPBB8K5nQbjbYgVwS3BTee86b07Tvv0Pes1uVZP7rSecEl9CMjWJk6fk8AECHxVdimv/WN0fc5zFFAnn/rcgi0H0SYtx1oJvCnPpTQnKn2xS+Vd0MG6KbnZG7XvTRVvrLpR94W1nI2Zv8jfMgpQsiRU0Kpf+Jr4bnEvwngdsKshNgwUFpA1MFXOEFD+KSK7jYhAm5Iw4siCjwLlBV8Nqr7XCOX7tN74GANeAv7wc/8LYSw+9qyz45jW9LN/vZdRSjuN2xc=);strokeColor=#000000;points=[[0.5,0.54,0]];labelBackgroundColor=none;rounded=0;html=1;whiteSpace=wrap;" parent="146" vertex="1">
          <mxGeometry width="21" height="12" as="geometry" />
        </mxCell>
        <mxCell id="148" style="vsdxID=647;fillColor=#ff0000;gradientColor=#c40000;shape=stencil(pVFLDoIwED1NlzTTlmBZ+7lHIwUakZKhCt7e4mAUxZW7mffpvOYxte1r01kmoQ/oT3ZwRaiZ2jEpXVtbdCFOTO2Z2pYebYX+0ha0d2ZSTtPZX6cXRvIJgMkj4UZ7rjmIB3IgucFjZPEpl4JrRQ6cLUJonueEzTLJ083iWQkc9CxJzOj6BH0wwfmWeJ1zugqNwcom8WpSNqYido7YD9Z2X/BqTg1cZMuYWcqFXKT8/ff1kPBfwji8Wihd01CJ7/xnaxGixtX+Dg==);strokeColor=#FFFFFF;strokeWidth=0;points=[[0.5,0.54,0]];labelBackgroundColor=none;rounded=0;html=1;whiteSpace=wrap;" parent="146" vertex="1">
          <mxGeometry x="6" y="5" width="6" height="3" as="geometry" />
        </mxCell>
        <mxCell id="149" style="vsdxID=648;fillColor=#ff0000;gradientColor=#c40000;fillOpacity=40;shape=stencil(rVJLEoIwDD1Nl3RK4lBc+7lHRwt0rJQJVfD2lqkfQHTlLp/3krwkDDdtpRrNQLSe3El35ugrhlsGYOpKk/HBYrhjuCkc6ZLcpT5Gv1EDcrDO7jpU6CNPDAwQt7G3j0Br6q9ARC5xDFZ0CFl6gEGmHFaRQU8KZDyPoQcqFdOiL79PVG/ahJxX3rh6MoBVVOoktEsKq8pJqu20bj7Ci2rmrbOMg/yhJxcc1jM9KLmc6Fna5b+0pOPhgvG+Z2Gsje8wzs/vH0Lxd3B3Bw==);strokeColor=none;strokeWidth=0;points=[[0.5,0.54,0]];labelBackgroundColor=none;rounded=0;html=1;whiteSpace=wrap;" parent="146" vertex="1">
          <mxGeometry y="7" width="20" height="15" as="geometry" />
        </mxCell>
        <mxCell id="150" style="vsdxID=649;fillColor=#ff0000;gradientColor=none;shape=stencil(rVLLEoIwDPyaHun0gRbOiP/R0QIdK2XSqvj3Fouj1UEv3pLNbpKdBPHKdXJQiBHnwR7URe99h/gGMab7ToH2IUK8RrxqLKgW7Knfx3yQE3OKjvY8dRijjkwKRq4xoxSz8o5sI1nCLlRhJrN8hVciKmCW8HKNSRGxmUbJW9dHPmZy1C4D66XXtk82MBJalYV5WWNkm5TcRanhA543NLpXy6OLAgv6xZCgOOepoZwLLMrEUNrzv2bospkftwnB86qNNiY+xWv9/QsCFD+I1zc=);strokeColor=none;points=[[0.5,0.54,0]];labelBackgroundColor=none;rounded=0;html=1;whiteSpace=wrap;" parent="146" vertex="1">
          <mxGeometry y="8" width="20" height="11" as="geometry" />
        </mxCell>
        <mxCell id="151" style="vsdxID=650;fillColor=none;gradientColor=none;fillOpacity=40;shape=stencil(dVDRDoIwDPyaPY6M1ojviP+xyBiLuJFuCv69W4YKGt/uendtcwxr38tRMRA+kLuoybShZ3hkAMb2ikyIiGHDsO4cKU3uZtvMR5mcCV3dPW2Yc06kBIjHmp2ycTD2rxGxqHBtlnSOKi1mqMoCdjlBrwjsi0MeLa5SbJe++czlbDwnF2Qwzm4eGCRpxeM53g1SbyQ/KTX+jJcHI/h0kOtba999xVHuGpsn);strokeColor=#FFFFFF;points=[[0.5,0.54,0]];labelBackgroundColor=none;rounded=0;html=1;whiteSpace=wrap;" parent="146" vertex="1">
          <mxGeometry y="7" width="20" height="15" as="geometry" />
        </mxCell>
        <mxCell id="152" style="vsdxID=651;fillColor=#ff0000;gradientColor=#c40000;fillOpacity=40;shape=stencil(fVDLDsIgEPwajjR0N2n1XPU/iKUtsUKzoK1/L4QawYO3mZ0HZBh2bpKLYiCcJ3tTq+79xPDEALSZFGkfEMMzw26wpEayD9MnvsjojOhun7FhS7laiJgB8Sr5JZlnbf6Ym6aCNrdLugaVdjscRAXHlKA9gthWKfIpLSt3tnG5acfJeum1NYU2SxoVD0/xYZZjIblVqSU71/nnAviukAbMtd/Fwimtjec3);strokeColor=#000000;points=[[0.5,0.54,0]];labelBackgroundColor=none;rounded=0;html=1;whiteSpace=wrap;" parent="146" vertex="1">
          <mxGeometry y="7" width="20" height="15" as="geometry" />
        </mxCell>
        <mxCell id="153" style="vsdxID=652;fillColor=none;gradientColor=none;points=[[0.5,0.54,0]];labelBackgroundColor=none;rounded=0;strokeColor=none;html=1;whiteSpace=wrap;" parent="138" vertex="1">
          <mxGeometry x="39" y="71" width="28" height="38" as="geometry" />
        </mxCell>
        <mxCell id="154" style="vsdxID=653;fillColor=#FFFFFF;gradientColor=#4e8ec2;gradientDirection=north;shape=stencil(vVHLDsIgEPwajiQI6RfU+h8bu22JCGRB2/69kG1iazx58DazM/vIjjBtmiCi0CplCjecbZ8nYc5Ca+snJJsLEqYTph0C4Ujh4XvmEaqzont41gkL96naodXKrGF6YSfQtUi0OXXDVlqPfJNP6usotUhYbJIUMmQb/GGrAxpRljVycDBuc1hKM2LclX8/7H9nFfB+82Cd45T2+mcspcSRmu4F);strokeColor=#4e8ec2;points=[[0.5,0.54,0]];labelBackgroundColor=none;rounded=0;html=1;whiteSpace=wrap;" parent="153" vertex="1">
          <mxGeometry y="1" width="27" height="12" as="geometry" />
        </mxCell>
        <mxCell id="155" value="&lt;div style=&quot;font-size: 1px&quot;&gt;&lt;/div&gt;" style="verticalAlign=middle;align=center;overflow=width;vsdxID=654;fillColor=#FFFFFF;gradientColor=#4e8ec2;shape=stencil(lVLbDsIgDP0aHlkYZOqep/4HcWwjIiwF3fx7IczILpr41vac0/akRayyHe8FosQ6MFcxyNp1iB0RpVJ3AqTzEWInxKrGgGjB3HUd854HZohu5hE6jFFHgoKSZ5qdI1FJ/ZV4IBlhKZnDxaMwkQsP0yiASUFJto+ViVOWWVksm7I3B/NRWgzGcSeNnq2gOLQC+4G4UbydQXYQol+VN/3k5If1pZuVlV0587LV6m8P+baHPF3MB59LNlKp+Agpvry8L8WvYacX);strokeColor=#4e8ec2;spacingTop=-3;spacingBottom=-3;spacingLeft=-3;spacingRight=-3;points=[[0.5,0.54,0]];labelBackgroundColor=none;rounded=0;html=1;whiteSpace=wrap;" parent="153" vertex="1">
          <mxGeometry y="7" width="27" height="30" as="geometry" />
        </mxCell>
        <mxCell id="156" value="&lt;div style=&quot;font-size: 1px&quot;&gt;&lt;/div&gt;" style="verticalAlign=middle;align=center;overflow=width;vsdxID=655;fillColor=#ff0000;gradientColor=none;shape=stencil(nVLLEoIwDPyaHsuUVgY4o/5HRwp0RMqkVfDvbW1VBB+jt2R3s0kmQazQDe8FokQbUHsxyNI0iK0RpbJrBEhjI8Q2iBWVAlGDOnalz3vulC46qJNzGH1dTIiroeQc8jQi9IpsvZzDzrIQ5ElQw0J+M1zYxVngMR+lxqAMN1J1T+qWQy2wbYWrlteh1FN6EKKfwGQ6XCs78a51xqIV+7TJfXJ4MaxH8jzKk7lrGv+3EPl5oa/HscHjsP4nptz8CSzkH4htLg==);strokeColor=#000000;spacingTop=-3;spacingBottom=-3;spacingLeft=-3;spacingRight=-3;points=[[0.5,0.54,0]];labelBackgroundColor=none;rounded=0;html=1;whiteSpace=wrap;" parent="153" vertex="1">
          <mxGeometry y="1" width="26" height="36" as="geometry" />
        </mxCell>
        <UserObject label="" tags="Фон" id="157">
          <mxCell style="vsdxID=656;fillColor=none;gradientColor=none;points=[];labelBackgroundColor=none;rounded=0;strokeColor=none;html=1;whiteSpace=wrap;" parent="1" vertex="1">
            <mxGeometry x="305" y="1687" width="168" height="228" as="geometry" />
          </mxCell>
        </UserObject>
        <mxCell id="158" value="&lt;div style=&quot;font-size: 1px&quot;&gt;&lt;font style=&quot;font-size:16.93px;font-family:Ubuntu Light;color:#FFFFFF;direction:ltr;letter-spacing:0px;line-height:120%;opacity:1&quot;&gt;&lt;br/&gt;&lt;br/&gt;&lt;/font&gt;&lt;/div&gt;" style="verticalAlign=middle;align=center;overflow=width;vsdxID=657;fillColor=none;gradientColor=none;shape=stencil(nZBLDsIwEENPM1sUMoILlHIBThCRQEaEpErD9/SkNUhVFyy6G9vPGsnETe9N50irvuR0cQ+xxRPvSGuJ3mUp9SJuiZtTyu6c0y1a6M5UUqvRcRad9UBrZfLxIG8Hb7viDWz0ruk+/HsiVYhe376C3gMNEifoL1wE/0EXgrP39RgXwVYSAgad5vMFq4X1uf0A);strokeColor=#7c7c7c;strokeWidth=2;points=[[1,0.5,0],[0.5,0.5,0],[0.5,0,0],[0,0.26,0],[0,0.34,0]];labelBackgroundColor=none;rounded=1;html=1;whiteSpace=wrap;" parent="157" vertex="1">
          <mxGeometry x="6" width="153" height="228" as="geometry" />
        </mxCell>
        <mxCell id="159" value="&lt;div style=&quot;font-size: 1px&quot;&gt;&lt;font style=&quot;font-size:19.76px;font-family:Ubuntu Light;color:#000000;direction:ltr;letter-spacing:0px;line-height:120%;opacity:1&quot;&gt;Сервер БД &lt;/font&gt;&lt;font style=&quot;font-size:19.76px;font-family:Ubuntu Light;color:#000000;direction:ltr;letter-spacing:0px;line-height:120%;opacity:1&quot;&gt;PostgreSQL&lt;br/&gt;(master)&lt;br/&gt;&lt;/font&gt;&lt;/div&gt;" style="verticalAlign=middle;align=center;overflow=width;vsdxID=658;fillColor=#ffffff;gradientColor=none;fillOpacity=0;shape=stencil(nZBLDoAgDERP0z3SIyjew0SURgSD+Lu9kMZoXLhwN9O+tukAlrNpJg1SzDH4QW/URgNYgZTkjA4UkwJUgGXng+6DX1zLfmoymdXo17xh5zmRJ6Q42BWCfc2oJfdAr+Yv+AP9Cb7OJ3H/2JG1HNGz/84klThPVCc=);strokeColor=none;points=[];labelBackgroundColor=none;rounded=0;html=1;whiteSpace=wrap;" parent="157" vertex="1">
          <mxGeometry x="7" y="156" width="152" height="72" as="geometry" />
        </mxCell>
        <mxCell id="160" style="vsdxID=659;fillColor=none;gradientColor=none;points=[[0.5,0.54,0]];labelBackgroundColor=none;rounded=0;strokeColor=none;html=1;whiteSpace=wrap;" parent="157" vertex="1">
          <mxGeometry x="45" y="35" width="71" height="114" as="geometry" />
        </mxCell>
        <mxCell id="161" style="vsdxID=660;fillColor=#FF00FF;gradientColor=none;fillOpacity=0;strokeOpacity=0;shape=stencil(vVRBcoMwDHwNRzS2hTE+p+k/PI0BTylkDGno72tKmCAoNIe2N1taSbuSRhEe2tKcbSRY2/nm1V7dqSsjfIqEcHVpvevCK8JjhIe88bbwzaU+jf+zGZDD6615HzL0Y1wmQeghSrCPm4WDVF+W5zGgcvUsgDNG4EpClj4O5wlkuA1PQ/GEBLBtMM0sEuDJDhiYoDrTBd74l+D1E5NAdMT7W0CCU2OmnKhAKypvktvHpndt7JvOdK6pCeHK+MLGoVycV6YgrvZq7Xll/laQ5ICktk5AyW1BXAFfKJJA9QzLkNGcCJn+L0UP7CJd3iCJ0f4jgtI7Q02nFt2nGuac/TBV1NOq/EkXVhy5XnGUhOKe8N+iyOcUw+N+QXJXVeMBmvuXFyeYxmuFx08=);points=[[0.5,0.54,0]];labelBackgroundColor=none;rounded=0;html=1;whiteSpace=wrap;" parent="160" vertex="1">
          <mxGeometry width="71" height="114" as="geometry" />
        </mxCell>
        <mxCell id="162" style="vsdxID=661;fillColor=#00ec6a;gradientColor=#00b050;gradientDirection=north;shape=stencil(fVHbEoIgEP0aHmFQvD6X/QeTqEwEzkJpfx9ETtrtbffc2GUR29mBjwKl1DowJzHJ1g2I7VGaSj0IkM5XiDWI7ToDogdz0W3sRx6UoTqba0iYo4+VpM6DK6W3iCSUPvpDlCupV/KFXMTeXlW/5UVC8mxj+JO9TfbWolyLORw9C0tyQaokGmAZPMlIWUdstV35dTs6Yz5Li8E47qTRmxEUh15g/yDuFO83lJ2EGD/g54i+eP1zJ5WKZ1rz73fxULwpa+4=);strokeColor=#ffffff;spacingTop=-3;spacingBottom=-3;spacingLeft=-3;spacingRight=-3;points=[[0.5,0.54,0]];labelBackgroundColor=none;rounded=0;html=1;whiteSpace=wrap;" parent="160" vertex="1">
          <mxGeometry width="71" height="44" as="geometry" />
        </mxCell>
        <mxCell id="163" style="vsdxID=662;fillColor=#00ec6a;gradientColor=#00b050;shape=stencil(rVJBEoMgDHwNRxkEHfFs7T+YisqUihNptb8vFDtVO3rqLcnuJiwJYsXQil4iSgYL5ipHVdkWsROiVHWtBGVdhFiJWFEbkA2Ye1eFvBee6aObefgOU9DFhHgNJc85zzFP35VzoAu4OBQ+9CzBMQ8KmCUpxykLpZm1bjlnUyQmNURgrLDKdCtMC2hk5EZFtRbNChpGKftFOV4+TqtO7o3lMc6SIycEp1snGWZ05eTne8h/3ZB9N3mO8+R4Ny747rVWWoezWOLbO3ClcEOsfAE=);strokeColor=#ffffff;spacingTop=-3;spacingBottom=-3;spacingLeft=-3;spacingRight=-3;points=[[0.5,0.54,0]];labelBackgroundColor=none;rounded=0;html=1;whiteSpace=wrap;" parent="160" vertex="1">
          <mxGeometry y="27" width="27" height="86" as="geometry" />
        </mxCell>
        <mxCell id="164" style="vsdxID=663;fillColor=#00ec6a;gradientColor=#00b050;shape=stencil(UzV2Ls5ILEhVNTIoLinKz04tz0wpyVA1dlE1MsrMy0gtyiwBslSNXVWNndPyi1LTi/JL81Ig/IJEkEoQKze/DGRCBUSfAUiHkUElhGdkoWdqBhZxgyjOyczDqdjQwAC3UpgkTLG5oZ65EfHK8ZhMwMVABsKvaZk5OZCgQpZHDxugECRcjV0B);strokeColor=#ffffff;spacingTop=-3;spacingBottom=-3;spacingLeft=-3;spacingRight=-3;points=[[0.5,0.54,0]];labelBackgroundColor=none;rounded=0;html=1;whiteSpace=wrap;" parent="160" vertex="1">
          <mxGeometry x="27" y="16" width="44" height="97" as="geometry" />
        </mxCell>
        <mxCell id="165" value="&lt;div style=&quot;font-size: 1px&quot;&gt;&lt;/div&gt;" style="verticalAlign=middle;align=center;overflow=width;vsdxID=664;fillColor=#00b050;gradientColor=none;shape=stencil(jZLdEoIgEIWfhksZBPzp2uw9mERlMnFWSnv7MHQSraa73bPfgV0WxLK+Fp1ElPQG9EUOqjA1YkdEqWprCcrYCLEcsazUICvQt7ZweScmcoqu+j6dMDpfSMjkoeQx5xyn7KWcHN6odoXHIY64ZyDfYf9kynHIf8CYUI9P4w0v4GyrsHRiG3U8zAbOcJQ4aWZYgg+JP94y7hiIUfUBaCOM0q3XcCOgkoG9LigbUXmlfpCy28kfB9q+bBLhNP4f3y3CBu8luv2va9uFW8l9FpY/AQ==);strokeColor=#000000;spacingTop=-3;spacingBottom=-3;spacingLeft=-3;spacingRight=-3;points=[[0.5,0.54,0]];labelBackgroundColor=none;rounded=0;html=1;whiteSpace=wrap;" parent="160" vertex="1">
          <mxGeometry width="71" height="114" as="geometry" />
        </mxCell>
        <mxCell id="166" style="vsdxID=665;rotation=340;fillColor=#00ec6a;gradientColor=#00b050;shape=stencil(vVHLDsIgEPwajiQI6RfU+h8bu22JCGRB2/69kG1iazx58DazM/vIjjBtmiCi0CplCjecbZ8nYc5Ca+snJJsLEqYTph0C4Ujh4XvmEaqzont41gkL96naodXKrGF6YSfQtUi0OXXDVlqPfJNP6usotUhYbJIUMmQb/GGrAxpRljVycDBuc1hKM2LclX8/7H9nFfB+82Cd45T2+mcspcSRmu4F);strokeColor=#000000;points=[[0.5,0.54,0]];labelBackgroundColor=none;rounded=0;html=1;whiteSpace=wrap;" parent="160" vertex="1">
          <mxGeometry x="10" y="70" width="4" height="6" as="geometry" />
        </mxCell>
        <mxCell id="167" style="vsdxID=666;fillColor=#00ec6a;gradientColor=#00b050;gradientDirection=north;shape=stencil(xZLLDsIgEEW/hiWEVx+utf4HsdgStTRT1Pr3QiBqtakr427uzJ2Bk1wk1kOreo04HRzYg76a2rVIbBDnpms1GOcrJCok1nsLugF77uqoexWcoTrZS7gwxj0aNji9vaptNCrY+QkkoxCMyCK6Idl5xkgeW8nF6PRglhPGkwOr0QwYrFPO2C7Oy4LIdOGooNHYP4r3R9VMfjdcte4/2tvvPJyRlfzCtJph4otQRUlo/j8oKUhZLkNlbAZKLkI99K+QfPEMYczv6+w9sL4Vwy6qOw==);strokeColor=#000000;strokeWidth=2;points=[[0.5,0.54,0]];labelBackgroundColor=none;rounded=0;html=1;whiteSpace=wrap;" parent="160" vertex="1">
          <mxGeometry x="4" y="85" width="18" height="19" as="geometry" />
        </mxCell>
        <mxCell id="168" style="vsdxID=667;fillColor=none;gradientColor=none;points=[[0.5,0.54,0]];labelBackgroundColor=none;rounded=0;strokeColor=none;html=1;whiteSpace=wrap;" parent="160" vertex="1">
          <mxGeometry x="3" y="41" width="19" height="24" as="geometry" />
        </mxCell>
        <mxCell id="169" style="vsdxID=668;fillColor=#00b050;gradientColor=none;shape=stencil(vZPdcoMgEIWfhkt3gEXQ6zR5D6ZBZWLFQfLTty8W+kPatDdt7tZzzsLHjktwswx6NoTTJXh3MGe7DwPBB8K5nQbjbYgVwS3BTee86b07Tvv0Pes1uVZP7rSecEl9CMjWJk6fk8AECHxVdimv/WN0fc5zFFAnn/rcgi0H0SYtx1oJvCnPpTQnKn2xS+Vd0MG6KbnZG7XvTRVvrLpR94W1nI2Zv8jfMgpQsiRU0Kpf+Jr4bnEvwngdsKshNgwUFpA1MFXOEFD+KSK7jYhAm5Iw4siCjwLlBV8Nqr7XCOX7tN74GANeAv7wc/8LYSw+9qyz45jW9LN/vZdRSjuN2xc=);strokeColor=#000000;points=[[0.5,0.54,0]];labelBackgroundColor=none;rounded=0;html=1;whiteSpace=wrap;" parent="168" vertex="1">
          <mxGeometry width="19" height="12" as="geometry" />
        </mxCell>
        <mxCell id="170" style="vsdxID=669;fillColor=#00ec6a;gradientColor=#00b050;shape=stencil(pVHLEoIwDPyaHumEluFxRv2PjhToiJQJVeDvLQZGUTx5S3Y3yWaWybyvVaeZgN6hvejBFK5m8sCEMG2t0ThfMXlkMi8t6grtrS2o79SsnKurvc8bRpoLAeYZARP1WcohfCInkis8exZXucx4ktEETusKyROCFpXgUbLZKoBDukgCNZo+QOuUM7YlPs24pKvQKKx04K8GZaMqoheL/aB19wXv+kyBh/HWZhzxUGxs/v593yX859AXrxRK0zQU4jv/mZqHKHF5fAA=);strokeColor=#FFFFFF;strokeWidth=0;points=[[0.5,0.54,0]];labelBackgroundColor=none;rounded=0;html=1;whiteSpace=wrap;" parent="168" vertex="1">
          <mxGeometry x="5" y="6" width="5" height="4" as="geometry" />
        </mxCell>
        <mxCell id="171" style="vsdxID=670;fillColor=#00ec6a;gradientColor=#00b050;fillOpacity=40;shape=stencil(rVJLEoIwDD1Nl3RK4lBc+7lHRwt0rJQJVfD2lqkfQHTlLp/3krwkDDdtpRrNQLSe3El35ugrhlsGYOpKk/HBYrhjuCkc6ZLcpT5Gv1EDcrDO7jpU6CNPDAwQt7G3j0Br6q9ARC5xDFZ0CFl6gEGmHFaRQU8KZDyPoQcqFdOiL79PVG/ahJxX3rh6MoBVVOoktEsKq8pJqu20bj7Ci2rmrbOMg/yhJxcc1jM9KLmc6Fna5b+0pOPhgvG+Z2Gsje8wzs/vH0Lxd3B3Bw==);strokeColor=none;strokeWidth=0;points=[[0.5,0.54,0]];labelBackgroundColor=none;rounded=0;html=1;whiteSpace=wrap;" parent="168" vertex="1">
          <mxGeometry y="7" width="18" height="16" as="geometry" />
        </mxCell>
        <mxCell id="172" style="vsdxID=671;fillColor=#00b050;gradientColor=none;shape=stencil(rVLLEoIwDPyaHun0gRbOiP/R0QIdK2XSqvj3Fouj1UEv3pLNbpKdBPHKdXJQiBHnwR7URe99h/gGMab7ToH2IUK8RrxqLKgW7Knfx3yQE3OKjvY8dRijjkwKRq4xoxSz8o5sI1nCLlRhJrN8hVciKmCW8HKNSRGxmUbJW9dHPmZy1C4D66XXtk82MBJalYV5WWNkm5TcRanhA543NLpXy6OLAgv6xZCgOOepoZwLLMrEUNrzv2bospkftwnB86qNNiY+xWv9/QsCFD+I1zc=);strokeColor=none;points=[[0.5,0.54,0]];labelBackgroundColor=none;rounded=0;html=1;whiteSpace=wrap;" parent="168" vertex="1">
          <mxGeometry y="8" width="18" height="12" as="geometry" />
        </mxCell>
        <mxCell id="173" style="vsdxID=672;fillColor=none;gradientColor=none;fillOpacity=40;shape=stencil(dVDRDoIwDPyaPY6M1ojviP+xyBiLuJFuCv69W4YKGt/uendtcwxr38tRMRA+kLuoybShZ3hkAMb2ikyIiGHDsO4cKU3uZtvMR5mcCV3dPW2Yc06kBIjHmp2ycTD2rxGxqHBtlnSOKi1mqMoCdjlBrwjsi0MeLa5SbJe++czlbDwnF2Qwzm4eGCRpxeM53g1SbyQ/KTX+jJcHI/h0kOtba999xVHuGpsn);strokeColor=#FFFFFF;points=[[0.5,0.54,0]];labelBackgroundColor=none;rounded=0;html=1;whiteSpace=wrap;" parent="168" vertex="1">
          <mxGeometry y="7" width="18" height="16" as="geometry" />
        </mxCell>
        <mxCell id="174" style="vsdxID=673;fillColor=#00ec6a;gradientColor=#00b050;fillOpacity=40;shape=stencil(fVDLDsIgEPwajjR0N2n1XPU/iKUtsUKzoK1/L4QawYO3mZ0HZBh2bpKLYiCcJ3tTq+79xPDEALSZFGkfEMMzw26wpEayD9MnvsjojOhun7FhS7laiJgB8Sr5JZlnbf6Ym6aCNrdLugaVdjscRAXHlKA9gthWKfIpLSt3tnG5acfJeum1NYU2SxoVD0/xYZZjIblVqSU71/nnAviukAbMtd/Fwimtjec3);strokeColor=#000000;points=[[0.5,0.54,0]];labelBackgroundColor=none;rounded=0;html=1;whiteSpace=wrap;" parent="168" vertex="1">
          <mxGeometry y="7" width="18" height="16" as="geometry" />
        </mxCell>
        <mxCell id="175" style="vsdxID=674;fillColor=none;gradientColor=none;points=[[0.5,0.54,0]];labelBackgroundColor=none;rounded=0;strokeColor=none;html=1;whiteSpace=wrap;" parent="160" vertex="1">
          <mxGeometry x="35" y="74" width="25" height="40" as="geometry" />
        </mxCell>
        <mxCell id="176" style="vsdxID=675;fillColor=#FFFFFF;gradientColor=#4e8ec2;gradientDirection=north;shape=stencil(vVHLDsIgEPwajiQI6RfU+h8bu22JCGRB2/69kG1iazx58DazM/vIjjBtmiCi0CplCjecbZ8nYc5Ca+snJJsLEqYTph0C4Ujh4XvmEaqzont41gkL96naodXKrGF6YSfQtUi0OXXDVlqPfJNP6usotUhYbJIUMmQb/GGrAxpRljVycDBuc1hKM2LclX8/7H9nFfB+82Cd45T2+mcspcSRmu4F);strokeColor=#4e8ec2;points=[[0.5,0.54,0]];labelBackgroundColor=none;rounded=0;html=1;whiteSpace=wrap;" parent="175" vertex="1">
          <mxGeometry y="1" width="24" height="12" as="geometry" />
        </mxCell>
        <mxCell id="177" value="&lt;div style=&quot;font-size: 1px&quot;&gt;&lt;/div&gt;" style="verticalAlign=middle;align=center;overflow=width;vsdxID=676;fillColor=#FFFFFF;gradientColor=#4e8ec2;shape=stencil(lVLbDsIgDP0aHlkYZOqep/4HcWwjIiwF3fx7IczILpr41vac0/akRayyHe8FosQ6MFcxyNp1iB0RpVJ3AqTzEWInxKrGgGjB3HUd854HZohu5hE6jFFHgoKSZ5qdI1FJ/ZV4IBlhKZnDxaMwkQsP0yiASUFJto+ViVOWWVksm7I3B/NRWgzGcSeNnq2gOLQC+4G4UbydQXYQol+VN/3k5If1pZuVlV0587LV6m8P+baHPF3MB59LNlKp+Agpvry8L8WvYacX);strokeColor=#4e8ec2;spacingTop=-3;spacingBottom=-3;spacingLeft=-3;spacingRight=-3;points=[[0.5,0.54,0]];labelBackgroundColor=none;rounded=0;html=1;whiteSpace=wrap;" parent="175" vertex="1">
          <mxGeometry y="7" width="24" height="31" as="geometry" />
        </mxCell>
        <mxCell id="178" value="&lt;div style=&quot;font-size: 1px&quot;&gt;&lt;/div&gt;" style="verticalAlign=middle;align=center;overflow=width;vsdxID=677;fillColor=#00b050;gradientColor=none;shape=stencil(nVLLEoIwDPyaHsuUVgY4o/5HRwp0RMqkVfDvbW1VBB+jt2R3s0kmQazQDe8FokQbUHsxyNI0iK0RpbJrBEhjI8Q2iBWVAlGDOnalz3vulC46qJNzGH1dTIiroeQc8jQi9IpsvZzDzrIQ5ElQw0J+M1zYxVngMR+lxqAMN1J1T+qWQy2wbYWrlteh1FN6EKKfwGQ6XCs78a51xqIV+7TJfXJ4MaxH8jzKk7lrGv+3EPl5oa/HscHjsP4nptz8CSzkH4htLg==);strokeColor=#000000;spacingTop=-3;spacingBottom=-3;spacingLeft=-3;spacingRight=-3;points=[[0.5,0.54,0]];labelBackgroundColor=none;rounded=0;html=1;whiteSpace=wrap;" parent="175" vertex="1">
          <mxGeometry y="1" width="24" height="37" as="geometry" />
        </mxCell>
        <UserObject label="" tags="Фон" id="179">
          <mxCell style="vsdxID=678;fillColor=none;gradientColor=none;points=[];labelBackgroundColor=none;rounded=0;strokeColor=none;html=1;whiteSpace=wrap;" parent="1" vertex="1">
            <mxGeometry x="740" y="1745" width="103" height="110" as="geometry" />
          </mxCell>
        </UserObject>
        <mxCell id="180" style="vsdxID=679;fillColor=none;gradientColor=none;strokeColor=none;spacingTop=-3;spacingBottom=-3;spacingLeft=-3;spacingRight=-3;points=[[0.5,-0.25,0],[0.5,1.25,0],[1.21,0.5,0],[-0.21,0.5,0]];labelBackgroundColor=none;rounded=0;html=1;whiteSpace=wrap;" parent="179" vertex="1">
          <mxGeometry x="2" width="97" height="57" as="geometry" />
        </mxCell>
        <mxCell id="181" style="vsdxID=680;fillColor=none;gradientColor=none;strokeColor=none;spacingTop=-3;spacingBottom=-3;spacingLeft=-3;spacingRight=-3;points=[[0.5,-0.25,0],[0.5,1.25,0],[1.21,0.5,0],[-0.21,0.5,0]];labelBackgroundColor=none;rounded=0;html=1;whiteSpace=wrap;" parent="180" vertex="1">
          <mxGeometry y="-2" width="97" height="57" as="geometry" />
        </mxCell>
        <mxCell id="182" style="vsdxID=681;fillColor=#FFFFFF;gradientColor=none;shape=stencil(pZTbbsIwDIafpreWEydxfDkx9h5olLUao6iUjb392qQMkpWT1osoh9/OV9txQbNdtdiWhcZd1zbv5Ve97KqCngut601VtnXXzwqaFzRbNW351jb7zTKut4tBOcw+ms/BwyHaKcTBRuN3XBOCkbDzEuXrenNF7ix4e7+cFQzLB+TGnctf922EV1EgHgiV945FG6tFRvPjsQMyyrhxiDfjQY/sDMHKBxc8mupfFMDzT43GFM/tkZRS9ACKTxOspAHZGlZOvFKUkl687ogD0UoHFzplvfCbI1kGmsU0oKZZeChlWTk4UPdqb1RaKtYWXOI5jy6m8WTwaDyHgUWE03D27lAMkbie2SgRl0YUryf7VqrZgKB1DomZbFaUmKKcal5fR6dcT5OhmUjoP9/4H3k/ObWTVb1ex250fp63n34rti6a/wA=);strokeColor=none;spacingTop=-3;spacingBottom=-3;spacingLeft=-3;spacingRight=-3;points=[[0.5,-0.25,0],[0.5,1.25,0],[1.21,0.5,0],[-0.21,0.5,0]];labelBackgroundColor=none;rounded=0;html=1;whiteSpace=wrap;" parent="181" vertex="1">
          <mxGeometry width="97" height="57" as="geometry" />
        </mxCell>
        <mxCell id="183" style="vsdxID=682;fillColor=#515251;gradientColor=none;shape=stencil(jVTbboMwDP2avEaOnevj1LX/Ua10oDGoKN26v18gpAWrdENGsuNjOL5F0OZc7k+FQDj3XftRfFeHvhT0KhCrpiy6qo+aoK2gzbHtiveuvTSHZJ/2A3LQPtuv4QvXFGdgCEH4SSaS1Die7BL67dIluEoAyng1C6AsGEJyXzG5VYZn28r4ZjEhuAlPyZ/hC3OkAi+RTV01M+5L6gakNnPqT8FBavssTyW1D2SVA1ToHIBa5h2s9NrehKVNTup4Dt4osORZDQAkzB9a1sCwIkQ8KwMna1EaQyqokTNyrqs/nAgFLzE472IHQaNdsl1JlHG7kWWFfdC1e8i/+sbh8KxrgU3n6rhNyTk2nmvTvNIZti0Pkv1rvaJy38xjVddpsed+vsnxKN0CtP0F);strokeColor=none;spacingTop=-3;spacingBottom=-3;spacingLeft=-3;spacingRight=-3;points=[[0.5,-0.25,0],[0.5,1.25,0],[1.21,0.5,0],[-0.21,0.5,0]];labelBackgroundColor=none;rounded=0;html=1;whiteSpace=wrap;" parent="181" vertex="1">
          <mxGeometry x="5" y="22" width="86" height="31" as="geometry" />
        </mxCell>
        <mxCell id="184" style="vsdxID=683;fillColor=#515251;gradientColor=none;shape=stencil(vVHLDsIgEPwajiQI6RfU+h8bu22JCGRB2/69kG1iazx58DazM/vIjjBtmiCi0CplCjecbZ8nYc5Ca+snJJsLEqYTph0C4Ujh4XvmEaqzont41gkL96naodXKrGF6YSfQtUi0OXXDVlqPfJNP6usotUhYbJIUMmQb/GGrAxpRljVycDBuc1hKM2LclX8/7H9nFfB+82Cd45T2+mcspcSRmu4F);strokeColor=none;spacingTop=-3;spacingBottom=-3;spacingLeft=-3;spacingRight=-3;points=[[0.5,-0.25,0],[0.5,1.25,0],[1.21,0.5,0],[-0.21,0.5,0]];labelBackgroundColor=none;rounded=0;html=1;whiteSpace=wrap;" parent="181" vertex="1">
          <mxGeometry x="5" y="4" width="86" height="21" as="geometry" />
        </mxCell>
        <mxCell id="185" value="&lt;div style=&quot;font-size: 1px&quot;&gt;&lt;/div&gt;" style="text;vsdxID=679;fillColor=none;gradientColor=none;strokeColor=none;spacingTop=-3;spacingBottom=-3;spacingLeft=-3;spacingRight=-3;points=[[0.5,-0.25,0],[0.5,1.25,0],[1.21,0.5,0],[-0.21,0.5,0]];labelBackgroundColor=none;rounded=0;html=1;whiteSpace=wrap;verticalAlign=middle;align=center;overflow=width;;html=1;" parent="180" vertex="1">
          <mxGeometry y="-0.48" width="97.63" height="57.48" as="geometry" />
        </mxCell>
        <mxCell id="186" value="&lt;div style=&quot;font-size: 1px&quot;&gt;&lt;font style=&quot;font-size:16.93px;font-family:Segoe UI;color:#000000;direction:ltr;letter-spacing:0px;line-height:120%;opacity:1&quot;&gt;Хранилище БД &lt;/font&gt;&lt;font style=&quot;font-size:16.93px;font-family:Segoe UI;color:#000000;direction:ltr;letter-spacing:0px;line-height:120%;opacity:1&quot;&gt;(replica&lt;/font&gt;&lt;font style=&quot;font-size:16.93px;font-family:Segoe UI;color:#000000;direction:ltr;letter-spacing:0px;line-height:120%;opacity:1&quot;&gt;)&lt;br/&gt;&lt;/font&gt;&lt;/div&gt;" style="verticalAlign=middle;align=center;overflow=width;vsdxID=684;fillColor=none;gradientColor=none;shape=stencil(nZBLDoAgDERP0z3SIyjew0SURgSD+Lu9kMZoXLhwN9O+tukAlrNpJg1SzDH4QW/URgNYgZTkjA4UkwJUgGXng+6DX1zLfmoymdXo17xh5zmRJ6Q42BWCfc2oJfdAr+Yv+AP9Cb7OJ3H/2JG1HNGz/84klThPVCc=);strokeColor=none;points=[];labelBackgroundColor=none;rounded=0;html=1;whiteSpace=wrap;" parent="179" vertex="1">
          <mxGeometry y="56" width="103" height="54" as="geometry" />
        </mxCell>
        <UserObject label="&lt;div style=&quot;font-size: 1px&quot;&gt;&lt;font style=&quot;font-size:16.93px;font-family:Ubuntu Light;color:#FFFFFF;direction:ltr;letter-spacing:0px;line-height:120%;opacity:1&quot;&gt;&lt;br/&gt;&lt;br/&gt;&lt;/font&gt;&lt;/div&gt;" tags="Блок-схема" id="187">
          <mxCell style="verticalAlign=middle;align=center;overflow=width;vsdxID=693;fillColor=none;gradientColor=none;shape=stencil(nZBLDsIwEENPM1sUMoILlHIBThCRQEaEpErD9/SkNUhVFyy6G9vPGsnETe9N50irvuR0cQ+xxRPvSGuJ3mUp9SJuiZtTyu6c0y1a6M5UUqvRcRad9UBrZfLxIG8Hb7viDWz0ruk+/HsiVYhe376C3gMNEifoL1wE/0EXgrP39RgXwVYSAgad5vMFq4X1uf0A);strokeColor=#7c7c7c;strokeWidth=2;points=[[1,0.5,0],[0.5,0.5,0],[0.5,0,0],[0,0.26,0],[0,0.34,0]];labelBackgroundColor=none;rounded=1;html=1;whiteSpace=wrap;" parent="1" vertex="1">
            <mxGeometry x="252" y="1302" width="260" height="228" as="geometry" />
          </mxCell>
        </UserObject>
        <UserObject label="&lt;div style=&quot;font-size: 1px&quot;&gt;&lt;p style=&quot;text-align:center;margin-left:0;margin-right:0;margin-top:0px;margin-bottom:0px;text-indent:0;vertical-align:middle;direction:ltr;&quot;&gt;&lt;font style=&quot;font-size:14.11px;font-family:Calibri;color:#ffffff;direction:ltr;letter-spacing:0px;line-height:120%;opacity:1&quot;&gt;RabbitMQ&lt;/font&gt;&lt;font style=&quot;font-size:14.11px;font-family:Calibri;color:#ffffff;direction:ltr;letter-spacing:0px;line-height:120%;opacity:1&quot;&gt; 1&lt;/font&gt;&lt;font style=&quot;font-size:14.11px;font-family:Ubuntu Light;color:#ffffff;direction:ltr;letter-spacing:0px;line-height:120%;opacity:1&quot;&gt;&lt;br/&gt;&lt;/font&gt;&lt;/p&gt;&lt;/div&gt;" tags="Блок-схема" id="188">
          <mxCell style="verticalAlign=middle;align=center;overflow=width;vsdxID=694;fillColor=#00b050;gradientColor=none;shape=stencil(nZBLDsIwEENPM1sUMoILlHIBThCRQEaEpErD9/SkNUhVFyy6G9vPGsnETe9N50irvuR0cQ+xxRPvSGuJ3mUp9SJuiZtTyu6c0y1a6M5UUqvRcRad9UBrZfLxIG8Hb7viDWz0ruk+/HsiVYhe376C3gMNEifoL1wE/0EXgrP39RgXwVYSAgad5vMFq4X1uf0A);strokeColor=none;strokeWidth=2;points=[[1,0.5,0],[0.5,0.5,0],[0.5,0,0]];labelBackgroundColor=none;rounded=1;html=1;whiteSpace=wrap;" parent="1" vertex="1">
            <mxGeometry x="296" y="1446" width="172" height="42" as="geometry" />
          </mxCell>
        </UserObject>
        <UserObject label="&lt;div style=&quot;font-size: 1px&quot;&gt;&lt;font style=&quot;font-size:19.76px;font-family:Segoe UI;color:#000000;direction:ltr;letter-spacing:0px;line-height:120%;opacity:1&quot;&gt;Узел &lt;/font&gt;&lt;font style=&quot;font-size:19.76px;font-family:Segoe UI;color:#000000;direction:ltr;letter-spacing:0px;line-height:120%;opacity:1&quot;&gt;RMQ1&lt;/font&gt;&lt;font style=&quot;font-size:19.76px;font-family:Segoe UI;color:#000000;direction:ltr;letter-spacing:0px;line-height:120%;opacity:1&quot;&gt; + &lt;/font&gt;&lt;font style=&quot;font-size:19.76px;font-family:Segoe UI;color:#000000;direction:ltr;letter-spacing:0px;line-height:120%;opacity:1&quot;&gt;EKH1&lt;br/&gt;&lt;/font&gt;&lt;/div&gt;" tags="Блок-схема" id="189">
          <mxCell style="verticalAlign=middle;align=center;overflow=width;vsdxID=696;fillColor=none;gradientColor=none;shape=stencil(nZBLDoAgDERP0z3SIyjew0SURgSD+Lu9kMZoXLhwN9O+tukAlrNpJg1SzDH4QW/URgNYgZTkjA4UkwJUgGXng+6DX1zLfmoymdXo17xh5zmRJ6Q42BWCfc2oJfdAr+Yv+AP9Cb7OJ3H/2JG1HNGz/84klThPVCc=);strokeColor=none;points=[];labelBackgroundColor=none;rounded=0;html=1;whiteSpace=wrap;" parent="1" vertex="1">
            <mxGeometry x="292" y="1314" width="192" height="26" as="geometry" />
          </mxCell>
        </UserObject>
        <UserObject label="&lt;div style=&quot;font-size: 1px&quot;&gt;&lt;/div&gt;" tags="Блок-схема" id="190">
          <mxCell style="verticalAlign=middle;align=center;overflow=width;vsdxID=697;fillColor=none;gradientColor=none;shape=stencil(nZBLDsIwEENPM1sUMoILlHIBThCRQEaEpErD9/SkNUhVFyy6G9vPGsnETe9N50irvuR0cQ+xxRPvSGuJ3mUp9SJuiZtTyu6c0y1a6M5UUqvRcRad9UBrZfLxIG8Hb7viDWz0ruk+/HsiVYhe376C3gMNEifoL1wE/0EXgrP39RgXwVYSAgad5vMFq4X1uf0A);strokeColor=#7c7c7c;strokeWidth=2;points=[[1,0.5,0],[0.5,0.5,0],[0.5,0,0],[0,0.26,0],[0,0.34,0]];labelBackgroundColor=none;rounded=1;html=1;whiteSpace=wrap;" parent="1" vertex="1">
            <mxGeometry x="542" y="1301" width="260" height="228" as="geometry" />
          </mxCell>
        </UserObject>
        <UserObject label="&lt;div style=&quot;font-size: 1px&quot;&gt;&lt;p style=&quot;text-align:center;margin-left:0;margin-right:0;margin-top:0px;margin-bottom:0px;text-indent:0;vertical-align:middle;direction:ltr;&quot;&gt;&lt;font style=&quot;font-size:14.11px;font-family:Calibri;color:#ffffff;direction:ltr;letter-spacing:0px;line-height:120%;opacity:1&quot;&gt;&lt;u&gt;RabbitMQ&lt;/u&gt;&lt;/font&gt;&lt;font style=&quot;font-size:14.11px;font-family:Calibri;color:#ffffff;direction:ltr;letter-spacing:0px;line-height:120%;opacity:1&quot;&gt;&lt;u&gt; &lt;/u&gt;&lt;/font&gt;&lt;font style=&quot;font-size:14.11px;font-family:Calibri;color:#ffffff;direction:ltr;letter-spacing:0px;line-height:120%;opacity:1&quot;&gt;&lt;u&gt;2&lt;/u&gt;&lt;/font&gt;&lt;font style=&quot;font-size:14.11px;font-family:Ubuntu Light;color:#ffffff;direction:ltr;letter-spacing:0px;line-height:120%;opacity:1&quot;&gt;&lt;u&gt;&lt;br/&gt;&lt;/u&gt;&lt;/font&gt;&lt;/p&gt;&lt;/div&gt;" tags="Блок-схема" id="191">
          <mxCell style="verticalAlign=middle;align=center;overflow=width;vsdxID=698;fillColor=#00b050;gradientColor=none;shape=stencil(nZBLDsIwEENPM1sUMoILlHIBThCRQEaEpErD9/SkNUhVFyy6G9vPGsnETe9N50irvuR0cQ+xxRPvSGuJ3mUp9SJuiZtTyu6c0y1a6M5UUqvRcRad9UBrZfLxIG8Hb7viDWz0ruk+/HsiVYhe376C3gMNEifoL1wE/0EXgrP39RgXwVYSAgad5vMFq4X1uf0A);strokeColor=none;strokeWidth=2;points=[[1,0.5,0],[0.5,0.5,0],[0.5,0,0]];labelBackgroundColor=none;rounded=1;html=1;whiteSpace=wrap;" parent="1" vertex="1">
            <mxGeometry x="588" y="1446" width="174" height="43" as="geometry" />
          </mxCell>
        </UserObject>
        <UserObject label="&lt;div style=&quot;font-size: 1px&quot;&gt;&lt;font style=&quot;font-size:19.76px;font-family:Segoe UI;color:#000000;direction:ltr;letter-spacing:0px;line-height:120%;opacity:1&quot;&gt;Узел &lt;/font&gt;&lt;font style=&quot;font-size:19.76px;font-family:Segoe UI;color:#000000;direction:ltr;letter-spacing:0px;line-height:120%;opacity:1&quot;&gt;RMQ2&lt;/font&gt;&lt;font style=&quot;font-size:19.76px;font-family:Segoe UI;color:#000000;direction:ltr;letter-spacing:0px;line-height:120%;opacity:1&quot;&gt; + &lt;/font&gt;&lt;font style=&quot;font-size:19.76px;font-family:Segoe UI;color:#000000;direction:ltr;letter-spacing:0px;line-height:120%;opacity:1&quot;&gt;EKH2&lt;/font&gt;&lt;font style=&quot;font-size:19.76px;font-family:Segoe UI;color:#000000;direction:ltr;letter-spacing:0px;line-height:120%;opacity:1&quot;&gt;&lt;br/&gt;&lt;/font&gt;&lt;/div&gt;" tags="Блок-схема" id="192">
          <mxCell style="verticalAlign=middle;align=center;overflow=width;vsdxID=700;fillColor=none;gradientColor=none;shape=stencil(nZBLDoAgDERP0z3SIyjew0SURgSD+Lu9kMZoXLhwN9O+tukAlrNpJg1SzDH4QW/URgNYgZTkjA4UkwJUgGXng+6DX1zLfmoymdXo17xh5zmRJ6Q42BWCfc2oJfdAr+Yv+AP9Cb7OJ3H/2JG1HNGz/84klThPVCc=);strokeColor=none;points=[];labelBackgroundColor=none;rounded=0;html=1;whiteSpace=wrap;" parent="1" vertex="1">
            <mxGeometry x="580" y="1314" width="192" height="26" as="geometry" />
          </mxCell>
        </UserObject>
        <UserObject label="&lt;div style=&quot;font-size: 1px&quot;&gt;&lt;font style=&quot;font-size:16.93px;font-family:Ubuntu Light;color:#FFFFFF;direction:ltr;letter-spacing:0px;line-height:120%;opacity:1&quot;&gt;&lt;u&gt;&lt;br/&gt;&lt;br/&gt;&lt;/u&gt;&lt;/font&gt;&lt;/div&gt;" tags="Блок-схема" id="193">
          <mxCell style="verticalAlign=middle;align=center;overflow=width;vsdxID=701;fillColor=none;gradientColor=none;shape=stencil(nZBLDsIwEENPM1sUMoILlHIBThCRQEaEpErD9/SkNUhVFyy6G9vPGsnETe9N50irvuR0cQ+xxRPvSGuJ3mUp9SJuiZtTyu6c0y1a6M5UUqvRcRad9UBrZfLxIG8Hb7viDWz0ruk+/HsiVYhe376C3gMNEifoL1wE/0EXgrP39RgXwVYSAgad5vMFq4X1uf0A);strokeColor=#7c7c7c;strokeWidth=2;points=[[1,0.5,0],[0.5,0.5,0],[0.5,0,0],[0,0.26,0],[0,0.34,0]];labelBackgroundColor=none;rounded=1;html=1;whiteSpace=wrap;" parent="1" vertex="1">
            <mxGeometry x="833" y="1301" width="260" height="228" as="geometry" />
          </mxCell>
        </UserObject>
        <UserObject label="&lt;div style=&quot;font-size: 1px&quot;&gt;&lt;p style=&quot;text-align:center;margin-left:0;margin-right:0;margin-top:0px;margin-bottom:0px;text-indent:0;vertical-align:middle;direction:ltr;&quot;&gt;&lt;font style=&quot;font-size:14.11px;font-family:Calibri;color:#ffffff;direction:ltr;letter-spacing:0px;line-height:120%;opacity:1&quot;&gt;&lt;u&gt;RabbitMQ&lt;/u&gt;&lt;/font&gt;&lt;font style=&quot;font-size:14.11px;font-family:Calibri;color:#ffffff;direction:ltr;letter-spacing:0px;line-height:120%;opacity:1&quot;&gt;&lt;u&gt; &lt;/u&gt;&lt;/font&gt;&lt;font style=&quot;font-size:14.11px;font-family:Calibri;color:#ffffff;direction:ltr;letter-spacing:0px;line-height:120%;opacity:1&quot;&gt;&lt;u&gt;3&lt;/u&gt;&lt;/font&gt;&lt;font style=&quot;font-size:14.11px;font-family:Ubuntu Light;color:#ffffff;direction:ltr;letter-spacing:0px;line-height:120%;opacity:1&quot;&gt;&lt;u&gt;&lt;br/&gt;&lt;/u&gt;&lt;/font&gt;&lt;/p&gt;&lt;/div&gt;" tags="Блок-схема" id="194">
          <mxCell style="verticalAlign=middle;align=center;overflow=width;vsdxID=702;fillColor=#00b050;gradientColor=none;shape=stencil(nZBLDsIwEENPM1sUMoILlHIBThCRQEaEpErD9/SkNUhVFyy6G9vPGsnETe9N50irvuR0cQ+xxRPvSGuJ3mUp9SJuiZtTyu6c0y1a6M5UUqvRcRad9UBrZfLxIG8Hb7viDWz0ruk+/HsiVYhe376C3gMNEifoL1wE/0EXgrP39RgXwVYSAgad5vMFq4X1uf0A);strokeColor=none;strokeWidth=2;points=[[1,0.5,0],[0.5,0.5,0],[0.5,0,0]];labelBackgroundColor=none;rounded=1;html=1;whiteSpace=wrap;" parent="1" vertex="1">
            <mxGeometry x="876" y="1446" width="172" height="42" as="geometry" />
          </mxCell>
        </UserObject>
        <UserObject label="&lt;div style=&quot;font-size: 1px&quot;&gt;&lt;font style=&quot;font-size:19.76px;font-family:Segoe UI;color:#000000;direction:ltr;letter-spacing:0px;line-height:120%;opacity:1&quot;&gt;Узел &lt;/font&gt;&lt;font style=&quot;font-size:19.76px;font-family:Segoe UI;color:#000000;direction:ltr;letter-spacing:0px;line-height:120%;opacity:1&quot;&gt;RMQ3&lt;/font&gt;&lt;font style=&quot;font-size:19.76px;font-family:Segoe UI;color:#000000;direction:ltr;letter-spacing:0px;line-height:120%;opacity:1&quot;&gt; + &lt;/font&gt;&lt;font style=&quot;font-size:19.76px;font-family:Segoe UI;color:#000000;direction:ltr;letter-spacing:0px;line-height:120%;opacity:1&quot;&gt;EKH3&lt;/font&gt;&lt;font style=&quot;font-size:19.76px;font-family:Segoe UI;color:#000000;direction:ltr;letter-spacing:0px;line-height:120%;opacity:1&quot;&gt;&lt;br/&gt;&lt;/font&gt;&lt;/div&gt;" tags="Блок-схема" id="195">
          <mxCell style="verticalAlign=middle;align=center;overflow=width;vsdxID=704;fillColor=none;gradientColor=none;shape=stencil(nZBLDoAgDERP0z3SIyjew0SURgSD+Lu9kMZoXLhwN9O+tukAlrNpJg1SzDH4QW/URgNYgZTkjA4UkwJUgGXng+6DX1zLfmoymdXo17xh5zmRJ6Q42BWCfc2oJfdAr+Yv+AP9Cb7OJ3H/2JG1HNGz/84klThPVCc=);strokeColor=none;points=[];labelBackgroundColor=none;rounded=0;html=1;whiteSpace=wrap;" parent="1" vertex="1">
            <mxGeometry x="868" y="1315" width="192" height="26" as="geometry" />
          </mxCell>
        </UserObject>
        <UserObject label="&lt;div style=&quot;font-size: 1px&quot;&gt;&lt;p style=&quot;text-align:center;margin-left:0;margin-right:0;margin-top:0px;margin-bottom:0px;text-indent:0;vertical-align:middle;direction:ltr;&quot;&gt;&lt;font style=&quot;font-size:14.11px;font-family:Calibri;color:#FFFFFF;direction:ltr;letter-spacing:0px;line-height:120%;opacity:1&quot;&gt;etcd – haproxy–keepalived&lt;br/&gt;&lt;/font&gt;&lt;/p&gt;&lt;/div&gt;" tags="Блок-схема" id="196">
          <mxCell style="verticalAlign=middle;align=center;overflow=width;vsdxID=706;fillColor=#ff0000;gradientColor=none;shape=stencil(nZBLDsIwEENPM1sUMoILlHIBThCRQEaEpErD9/SkNUhVFyy6G9vPGsnETe9N50irvuR0cQ+xxRPvSGuJ3mUp9SJuiZtTyu6c0y1a6M5UUqvRcRad9UBrZfLxIG8Hb7viDWz0ruk+/HsiVYhe376C3gMNEifoL1wE/0EXgrP39RgXwVYSAgad5vMFq4X1uf0A);strokeColor=none;strokeWidth=2;points=[[1,0.5,0],[0.5,0.5,0],[0.5,0,0]];labelBackgroundColor=none;rounded=1;html=1;whiteSpace=wrap;" parent="1" vertex="1">
            <mxGeometry x="876" y="1360" width="172" height="42" as="geometry" />
          </mxCell>
        </UserObject>
        <UserObject label="&lt;div style=&quot;font-size: 1px&quot;&gt;&lt;p style=&quot;text-align:center;margin-left:0;margin-right:0;margin-top:0px;margin-bottom:0px;text-indent:0;vertical-align:middle;direction:ltr;&quot;&gt;&lt;font style=&quot;font-size:14.11px;font-family:Calibri;color:#FFFFFF;direction:ltr;letter-spacing:0px;line-height:120%;opacity:1&quot;&gt;etcd – haproxy–keepalived&lt;br/&gt;&lt;/font&gt;&lt;/p&gt;&lt;/div&gt;" tags="Блок-схема" id="197">
          <mxCell style="verticalAlign=middle;align=center;overflow=width;vsdxID=707;fillColor=#00b050;gradientColor=none;shape=stencil(nZBLDsIwEENPM1sUMoILlHIBThCRQEaEpErD9/SkNUhVFyy6G9vPGsnETe9N50irvuR0cQ+xxRPvSGuJ3mUp9SJuiZtTyu6c0y1a6M5UUqvRcRad9UBrZfLxIG8Hb7viDWz0ruk+/HsiVYhe376C3gMNEifoL1wE/0EXgrP39RgXwVYSAgad5vMFq4X1uf0A);strokeColor=none;strokeWidth=2;points=[[1,0.5,0],[0.5,0.5,0],[0.5,0,0]];labelBackgroundColor=none;rounded=1;html=1;whiteSpace=wrap;" parent="1" vertex="1">
            <mxGeometry x="586" y="1359" width="172" height="42" as="geometry" />
          </mxCell>
        </UserObject>
        <UserObject label="&lt;div style=&quot;font-size: 1px&quot;&gt;&lt;font style=&quot;font-size:12.7px;font-family:Segoe UI;color:#FFFFFF;direction:ltr;letter-spacing:0px;line-height:120%;opacity:1&quot;&gt;Внешний сервис сообщений&lt;br/&gt;&lt;/font&gt;&lt;/div&gt;" tags="Блок-схема" id="198">
          <mxCell style="verticalAlign=middle;align=center;overflow=width;vsdxID=710;fillColor=#00b050;gradientColor=none;shape=stencil(nZBLDsIwEENPM1sUMoILlHIBThCRQEaEpErD9/SkNUhVFyy6G9vPGsnETe9N50irvuR0cQ+xxRPvSGuJ3mUp9SJuiZtTyu6c0y1a6M5UUqvRcRad9UBrZfLxIG8Hb7viDWz0ruk+/HsiVYhe376C3gMNEifoL1wE/0EXgrP39RgXwVYSAgad5vMFq4X1uf0A);strokeColor=#8c8c8c;strokeWidth=2;points=[[1,0.5,0],[0.5,0.5,0],[0.5,0,0]];labelBackgroundColor=none;rounded=1;html=1;whiteSpace=wrap;" parent="1" vertex="1">
            <mxGeometry x="1352" y="863" width="130" height="51" as="geometry" />
          </mxCell>
        </UserObject>
        <UserObject label="&lt;div style=&quot;font-size: 1px&quot;&gt;&lt;font style=&quot;font-size:12.7px;font-family:Segoe UI;color:#FFFFFF;direction:ltr;letter-spacing:0px;line-height:120%;opacity:1&quot;&gt;Удостоверяющий центр&lt;br/&gt;&lt;/font&gt;&lt;/div&gt;" tags="Блок-схема" id="199">
          <mxCell style="verticalAlign=middle;align=center;overflow=width;vsdxID=711;fillColor=#00b050;gradientColor=none;shape=stencil(nZBLDsIwEENPM1sUMoILlHIBThCRQEaEpErD9/SkNUhVFyy6G9vPGsnETe9N50irvuR0cQ+xxRPvSGuJ3mUp9SJuiZtTyu6c0y1a6M5UUqvRcRad9UBrZfLxIG8Hb7viDWz0ruk+/HsiVYhe376C3gMNEifoL1wE/0EXgrP39RgXwVYSAgad5vMFq4X1uf0A);strokeColor=#8c8c8c;strokeWidth=2;points=[[1,0.5,0],[0.5,0.5,0],[0.5,0,0]];labelBackgroundColor=none;rounded=1;html=1;whiteSpace=wrap;" parent="1" vertex="1">
            <mxGeometry x="1354" y="927" width="130" height="51" as="geometry" />
          </mxCell>
        </UserObject>
        <UserObject label="&lt;div style=&quot;font-size: 1px&quot;&gt;&lt;/div&gt;" tags="Блок-схема" id="200">
          <mxCell style="verticalAlign=middle;align=center;overflow=width;vsdxID=712;rotation=90;fillColor=none;gradientColor=none;shape=stencil(nZFLDsIwDERP4y0KyQKxLuUCnCAihliEpEpL+ZyetANS6YJFs7JnXmxpTKZqvW2YtGq7nC58F9d5MjvSWqLnLF2pyNRkqlPKfM7pFh36xhZSq1Fhhz/rgdbK5uNBXgxts9r+PjAYck39sPwBVMF6foYp9HugQeIE/ZqL4D/oQnC2vhRjPAhOQkC6U38eZ5FwClO/AQ==);dashed=1;strokeColor=#7c7c7c;strokeWidth=2;points=[[1,0.5,0],[0.5,0.5,0],[0.5,0,0]];labelBackgroundColor=#FFFFFF;rounded=1;html=1;whiteSpace=wrap;" parent="1" vertex="1">
            <mxGeometry x="1315" y="771" width="199" height="258" as="geometry" />
          </mxCell>
        </UserObject>
        <UserObject label="&lt;div style=&quot;font-size: 1px&quot;&gt;&lt;font style=&quot;font-size:16.93px;font-family:Segoe UI;color:#000000;direction:ltr;letter-spacing:0px;line-height:120%;opacity:1&quot;&gt;Внешние сервисы решения «Личный кабинет»&lt;/font&gt;&lt;font style=&quot;font-size:16.93px;font-family:Segoe UI;color:#000000;direction:ltr;letter-spacing:0px;line-height:120%;opacity:1&quot;&gt;&lt;br/&gt;&lt;/font&gt;&lt;/div&gt;" tags="Блок-схема" id="201">
          <mxCell style="verticalAlign=middle;align=center;overflow=width;vsdxID=713;fillColor=none;gradientColor=none;shape=stencil(nZBLDoAgDERP0z3SIyjew0SURgSD+Lu9kMZoXLhwN9O+tukAlrNpJg1SzDH4QW/URgNYgZTkjA4UkwJUgGXng+6DX1zLfmoymdXo17xh5zmRJ6Q42BWCfc2oJfdAr+Yv+AP9Cb7OJ3H/2JG1HNGz/84klThPVCc=);strokeColor=none;points=[[1,0.5,0],[0.5,0.5,0],[0.5,0,0]];labelBackgroundColor=none;rounded=0;html=1;whiteSpace=wrap;" parent="1" vertex="1">
            <mxGeometry x="1299" y="815" width="231" height="36" as="geometry" />
          </mxCell>
        </UserObject>
        <UserObject label="&lt;div style=&quot;font-size: 1px&quot;&gt;&lt;/div&gt;" tags="Блок-схема" id="202">
          <mxCell style="verticalAlign=bottom;align=center;overflow=width;vsdxID=715;fillColor=none;gradientColor=none;shape=stencil(nZBLDsIwEENPM1sUMoILlHIBThCRQEaEpErD9/SkNUhVFyy6G9vPGsnETe9N50irvuR0cQ+xxRPvSGuJ3mUp9SJuiZtTyu6c0y1a6M5UUqvRcRad9UBrZfLxIG8Hb7viDWz0ruk+/HsiVYhe376C3gMNEifoL1wE/0EXgrP39RgXwVYSAgad5vMFq4X1uf0A);strokeColor=#b2b2b2;strokeWidth=2;points=[[1,0.5,0],[0.5,0.5,0],[0.5,0,0]];labelBackgroundColor=none;rounded=1;html=1;whiteSpace=wrap;" parent="1" vertex="1">
            <mxGeometry x="447" y="271" width="416" height="52" as="geometry" />
          </mxCell>
        </UserObject>
        <UserObject label="&lt;div style=&quot;font-size: 1px&quot;&gt;&lt;font style=&quot;font-size:16.93px;font-family:Segoe UI;color:#FFFFFF;direction:ltr;letter-spacing:0px;line-height:120%;opacity:1&quot;&gt;Reverse-proxy 1&lt;br/&gt;&lt;/font&gt;&lt;/div&gt;" tags="Блок-схема" id="203">
          <mxCell style="verticalAlign=middle;align=center;overflow=width;vsdxID=716;fillColor=#00b050;gradientColor=none;shape=stencil(nZBLDsIwEENPM1sUMoILlHIBThCRQEaEpErD9/SkNUhVFyy6G9vPGsnETe9N50irvuR0cQ+xxRPvSGuJ3mUp9SJuiZtTyu6c0y1a6M5UUqvRcRad9UBrZfLxIG8Hb7viDWz0ruk+/HsiVYhe376C3gMNEifoL1wE/0EXgrP39RgXwVYSAgad5vMFq4X1uf0A);strokeColor=#8c8c8c;strokeWidth=2;points=[[1,0.5,0],[0.5,0.5,0],[0.5,0,0]];labelBackgroundColor=none;rounded=1;html=1;whiteSpace=wrap;" parent="1" vertex="1">
            <mxGeometry x="457" y="281" width="168" height="30" as="geometry" />
          </mxCell>
        </UserObject>
        <UserObject label="&lt;div style=&quot;font-size: 1px&quot;&gt;&lt;font style=&quot;font-size:16.93px;font-family:Segoe UI;color:#FFFFFF;direction:ltr;letter-spacing:0px;line-height:120%;opacity:1&quot;&gt;Reverse-proxy 2&lt;br/&gt;&lt;/font&gt;&lt;/div&gt;" tags="Блок-схема" id="204">
          <mxCell style="verticalAlign=middle;align=center;overflow=width;vsdxID=717;fillColor=#ff0000;gradientColor=none;shape=stencil(nZBLDsIwEENPM1sUMoILlHIBThCRQEaEpErD9/SkNUhVFyy6G9vPGsnETe9N50irvuR0cQ+xxRPvSGuJ3mUp9SJuiZtTyu6c0y1a6M5UUqvRcRad9UBrZfLxIG8Hb7viDWz0ruk+/HsiVYhe376C3gMNEifoL1wE/0EXgrP39RgXwVYSAgad5vMFq4X1uf0A);strokeColor=#8c8c8c;strokeWidth=2;points=[[1,0.5,0],[0.5,0.5,0],[0.5,0,0]];labelBackgroundColor=none;rounded=1;html=1;whiteSpace=wrap;" parent="1" vertex="1">
            <mxGeometry x="685" y="281" width="168" height="30" as="geometry" />
          </mxCell>
        </UserObject>
        <mxCell id="209" parent="1" vertex="1">
          <mxGeometry x="344" y="448" as="geometry" />
        </mxCell>
        <UserObject label="" tags="Соединительная_линия" id="211">
          <mxCell style="vsdxID=156;edgeStyle=none;startArrow=none;endArrow=block;startSize=5;endSize=5;strokeWidth=2;strokeColor=#000000;spacingTop=0;spacingBottom=0;spacingLeft=0;spacingRight=0;verticalAlign=middle;html=1;labelBackgroundColor=#FFFFFF;rounded=0;exitX=0;exitY=0.5;exitDx=0;exitDy=0;exitPerimeter=0;entryX=0;entryY=0.5079365079365079;entryDx=0;entryDy=0;entryPerimeter=0;" parent="1" source="41" target="102" edge="1">
            <mxGeometry relative="1" as="geometry">
              <mxPoint y="-1" as="offset" />
              <Array as="points">
                <mxPoint x="76" y="707" />
                <mxPoint x="76" y="1467.73" />
              </Array>
            </mxGeometry>
          </mxCell>
        </UserObject>
        <UserObject label="" tags="Соединительная_линия" id="212">
          <mxCell style="vsdxID=155;edgeStyle=none;startArrow=block;endArrow=block;startSize=9;endSize=9;strokeWidth=2;strokeColor=#000000;spacingTop=0;spacingBottom=0;spacingLeft=0;spacingRight=0;verticalAlign=middle;html=1;labelBackgroundColor=#FFFFFF;rounded=0;exitX=0.5;exitY=1;exitDx=0;exitDy=0;exitPerimeter=0;entryX=0.5061728395061729;entryY=0;entryDx=0;entryDy=0;entryPerimeter=0;" parent="1" source="41" target="39" edge="1">
            <mxGeometry relative="1" as="geometry">
              <mxPoint x="-1" as="offset" />
              <Array as="points">
                <mxPoint x="358" y="940.79" />
                <mxPoint x="655.6" y="940.79" />
              </Array>
            </mxGeometry>
          </mxCell>
        </UserObject>
        <UserObject label="" tags="Соединительная_линия" id="213">
          <mxCell style="vsdxID=11;edgeStyle=none;startArrow=block;endArrow=block;startSize=9;endSize=9;strokeWidth=2;strokeColor=#000000;spacingTop=0;spacingBottom=0;spacingLeft=0;spacingRight=0;verticalAlign=middle;html=1;labelBackgroundColor=#FFFFFF;rounded=0;exitX=0.5;exitY=0;exitDx=0;exitDy=0;exitPerimeter=0;entryX=0.4987593052109181;entryY=1.0084033613445378;entryDx=0;entryDy=0;entryPerimeter=0;" parent="1" source="38" target="9" edge="1">
            <mxGeometry relative="1" as="geometry">
              <mxPoint x="9" y="-1" as="offset" />
              <Array as="points" />
            </mxGeometry>
          </mxCell>
        </UserObject>
        <mxCell id="214" parent="1" vertex="1">
          <mxGeometry x="946" y="909" as="geometry" />
        </mxCell>
        <UserObject label="" tags="Соединительная_линия" id="215">
          <mxCell style="vsdxID=184;edgeStyle=none;startArrow=block;endArrow=block;startSize=9;endSize=9;strokeWidth=2;strokeColor=#000000;spacingTop=0;spacingBottom=0;spacingLeft=0;spacingRight=0;verticalAlign=middle;html=1;labelBackgroundColor=#FFFFFF;rounded=0;entryX=0.5061728395061729;entryY=0;entryDx=0;entryDy=0;entryPerimeter=0;" parent="1" source="214" target="39" edge="1">
            <mxGeometry relative="1" as="geometry">
              <mxPoint as="offset" />
              <Array as="points">
                <mxPoint x="946" y="941" />
                <mxPoint x="655.86" y="941" />
              </Array>
            </mxGeometry>
          </mxCell>
        </UserObject>
        <UserObject label="" tags="Соединительная_линия" id="216">
          <mxCell style="vsdxID=185;edgeStyle=none;startArrow=none;endArrow=block;startSize=5;endSize=5;strokeWidth=2;strokeColor=#000000;spacingTop=0;spacingBottom=0;spacingLeft=0;spacingRight=0;verticalAlign=middle;html=1;labelBackgroundColor=#FFFFFF;rounded=0;exitX=1;exitY=0.5;exitDx=0;exitDy=0;exitPerimeter=0;entryX=1;entryY=0.5079365079365079;entryDx=0;entryDy=0;entryPerimeter=0;jumpStyle=arc;" parent="1" source="3" target="102" edge="1">
            <mxGeometry relative="1" as="geometry">
              <mxPoint as="offset" />
              <Array as="points">
                <mxPoint x="1238.2" y="707" />
                <mxPoint x="1238.2" y="1467.73" />
                <mxPoint x="1153.99" y="1467.73" />
              </Array>
            </mxGeometry>
          </mxCell>
        </UserObject>
        <UserObject label="" tags="Соединительная_линия" id="217">
          <mxCell style="vsdxID=187;edgeStyle=none;startArrow=none;endArrow=block;startSize=5;endSize=5;strokeWidth=2;strokeColor=#000000;spacingTop=0;spacingBottom=0;spacingLeft=0;spacingRight=0;verticalAlign=middle;html=1;labelBackgroundColor=#FFFFFF;rounded=0;exitX=0;exitY=0.5;exitDx=0;exitDy=0;exitPerimeter=0;entryX=0;entryY=0.5;entryDx=0;entryDy=0;entryPerimeter=0;" parent="1" source="41" target="15" edge="1">
            <mxGeometry relative="1" as="geometry">
              <mxPoint as="offset" />
              <Array as="points">
                <mxPoint x="76" y="707" />
                <mxPoint x="76" y="1973.14" />
              </Array>
            </mxGeometry>
          </mxCell>
        </UserObject>
        <UserObject label="" tags="Соединительная_линия" id="218">
          <mxCell style="vsdxID=188;edgeStyle=none;startArrow=none;endArrow=block;startSize=5;endSize=5;strokeWidth=2;strokeColor=#000000;spacingTop=0;spacingBottom=0;spacingLeft=0;spacingRight=0;verticalAlign=middle;html=1;labelBackgroundColor=#FFFFFF;rounded=0;exitX=1;exitY=0.5;exitDx=0;exitDy=0;exitPerimeter=0;entryX=1;entryY=0.5;entryDx=0;entryDy=0;entryPerimeter=0;" parent="1" source="3" target="15" edge="1">
            <mxGeometry relative="1" as="geometry">
              <mxPoint y="-1" as="offset" />
              <Array as="points">
                <mxPoint x="1238.2" y="707" />
                <mxPoint x="1238.2" y="1973.14" />
              </Array>
            </mxGeometry>
          </mxCell>
        </UserObject>
        <UserObject label="" tags="Соединительная_линия" id="219">
          <mxCell style="vsdxID=209;edgeStyle=none;startArrow=block;endArrow=block;startSize=9;endSize=9;strokeWidth=2;strokeColor=#000000;spacingTop=0;spacingBottom=0;spacingLeft=0;spacingRight=0;verticalAlign=middle;html=1;labelBackgroundColor=#FFFFFF;rounded=0;exitX=0.7491039426523297;exitY=1.0050251256281406;exitDx=0;exitDy=0;exitPerimeter=0;entryX=0.5061728395061729;entryY=0;entryDx=0;entryDy=0;entryPerimeter=0;" parent="1" source="90" target="39" edge="1">
            <mxGeometry relative="1" as="geometry">
              <mxPoint as="offset" />
              <Array as="points">
                <mxPoint x="931" y="1205.07" />
                <mxPoint x="655.39" y="1205.07" />
              </Array>
            </mxGeometry>
          </mxCell>
        </UserObject>
        <UserObject label="" tags="Соединительная_линия" id="220">
          <mxCell style="vsdxID=210;edgeStyle=none;startArrow=block;endArrow=block;startSize=9;endSize=9;strokeWidth=2;strokeColor=#000000;spacingTop=0;spacingBottom=0;spacingLeft=0;spacingRight=0;verticalAlign=middle;html=1;labelBackgroundColor=#FFFFFF;rounded=0;exitX=0.26881720430107525;exitY=1.0050251256281406;exitDx=0;exitDy=0;exitPerimeter=0;entryX=0.5061728395061729;entryY=0;entryDx=0;entryDy=0;entryPerimeter=0;" parent="1" source="90" target="39" edge="1">
            <mxGeometry relative="1" as="geometry">
              <mxPoint x="-1" as="offset" />
              <Array as="points">
                <mxPoint x="395" y="1205.24" />
                <mxPoint x="655.2" y="1205.24" />
              </Array>
            </mxGeometry>
          </mxCell>
        </UserObject>
        <UserObject label="" tags="Соединительная_линия" id="221">
          <mxCell style="vsdxID=211;edgeStyle=none;startArrow=block;endArrow=block;startSize=9;endSize=9;strokeWidth=2;strokeColor=#000000;spacingTop=0;spacingBottom=0;spacingLeft=0;spacingRight=0;verticalAlign=middle;html=1;labelBackgroundColor=#FFFFFF;rounded=0;exitX=1;exitY=0.5060975609756098;exitDx=0;exitDy=0;exitPerimeter=0;entryX=1;entryY=0.5079365079365079;entryDx=0;entryDy=0;entryPerimeter=0;jumpStyle=arc;" parent="1" source="73" target="102" edge="1">
            <mxGeometry relative="1" as="geometry">
              <mxPoint y="-1" as="offset" />
              <Array as="points">
                <mxPoint x="1238.2" y="1080" />
                <mxPoint x="1238.2" y="1468.03" />
                <mxPoint x="1153.99" y="1468.03" />
              </Array>
            </mxGeometry>
          </mxCell>
        </UserObject>
        <UserObject label="" tags="Соединительная_линия" id="222">
          <mxCell style="vsdxID=215;edgeStyle=none;startArrow=block;endArrow=block;startSize=9;endSize=9;strokeWidth=2;strokeColor=#000000;spacingTop=0;spacingBottom=0;spacingLeft=0;spacingRight=0;verticalAlign=middle;html=1;labelBackgroundColor=#FFFFFF;rounded=0;exitX=0.5;exitY=1;exitDx=0;exitDy=0;exitPerimeter=0;entryX=0.24014336917562723;entryY=0;entryDx=0;entryDy=0;entryPerimeter=0;" parent="1" source="41" target="90" edge="1">
            <mxGeometry relative="1" as="geometry">
              <mxPoint x="7" y="-1" as="offset" />
              <Array as="points">
                <mxPoint x="358" y="940.79" />
                <mxPoint x="363.4" y="940.79" />
              </Array>
            </mxGeometry>
          </mxCell>
        </UserObject>
        <UserObject label="&lt;div style=&quot;font-size: 1px&quot;&gt;&lt;font style=&quot;font-size:16.93px;font-family:Calibri;color:#000000;direction:ltr;letter-spacing:0px;line-height:120%;opacity:1&quot;&gt;replication&lt;br/&gt;&lt;/font&gt;&lt;/div&gt;" tags="Соединительная_линия" id="223">
          <mxCell style="vsdxID=685;edgeStyle=none;dashed=1;startArrow=none;endArrow=block;startSize=5;endSize=5;strokeWidth=2;strokeColor=#000000;spacingTop=0;spacingBottom=0;spacingLeft=0;spacingRight=0;verticalAlign=middle;html=1;labelBackgroundColor=#FFFFFF;rounded=0;align=center;exitX=1;exitY=0.4827586206896552;exitDx=0;exitDy=0;exitPerimeter=0;entryX=0;entryY=0.4827586206896552;entryDx=0;entryDy=0;entryPerimeter=0;" parent="1" source="126" target="127" edge="1">
            <mxGeometry relative="1" as="geometry">
              <mxPoint x="-1" as="offset" />
              <Array as="points" />
            </mxGeometry>
          </mxCell>
        </UserObject>
        <UserObject label="" tags="Соединительная_линия" id="224">
          <mxCell style="vsdxID=686;edgeStyle=none;startArrow=none;endArrow=block;startSize=5;endSize=5;strokeColor=#000000;spacingTop=0;spacingBottom=0;spacingLeft=0;spacingRight=0;verticalAlign=middle;html=1;labelBackgroundColor=#FFFFFF;rounded=0;exitX=1.0065359477124183;exitY=0.5;exitDx=0;exitDy=0;exitPerimeter=0;entryX=0.038834951456310676;entryY=0.5058823529411764;entryDx=0;entryDy=0;entryPerimeter=0;" parent="1" source="158" target="128" edge="1">
            <mxGeometry relative="1" as="geometry">
              <mxPoint x="-1" as="offset" />
              <Array as="points">
                <mxPoint x="468.75" y="1801" />
                <mxPoint x="468.75" y="1801.01" />
              </Array>
            </mxGeometry>
          </mxCell>
        </UserObject>
        <UserObject label="" tags="Соединительная_линия" id="225">
          <mxCell style="vsdxID=687;edgeStyle=none;startArrow=none;endArrow=block;startSize=5;endSize=5;strokeColor=#000000;spacingTop=0;spacingBottom=0;spacingLeft=0;spacingRight=0;verticalAlign=middle;html=1;labelBackgroundColor=#FFFFFF;rounded=0;exitX=0;exitY=0.5;exitDx=0;exitDy=0;exitPerimeter=0;entryX=0.970873786407767;entryY=0.5058823529411764;entryDx=0;entryDy=0;entryPerimeter=0;" parent="1" source="136" target="179" edge="1">
            <mxGeometry relative="1" as="geometry">
              <mxPoint as="offset" />
              <Array as="points">
                <mxPoint x="885.25" y="1800" />
                <mxPoint x="885.25" y="1799.86" />
              </Array>
            </mxGeometry>
          </mxCell>
        </UserObject>
        <UserObject label="" tags="Соединительная_линия" id="226">
          <mxCell style="vsdxID=688;edgeStyle=none;dashed=1;startArrow=block;endArrow=block;startSize=5;endSize=5;strokeWidth=2;strokeColor=#000000;spacingTop=0;spacingBottom=0;spacingLeft=0;spacingRight=0;verticalAlign=middle;html=1;labelBackgroundColor=#FFFFFF;rounded=0;exitX=1.005813953488372;exitY=0.5;exitDx=0;exitDy=0;exitPerimeter=0;entryX=0;entryY=0.4883720930232558;entryDx=0;entryDy=0;entryPerimeter=0;" parent="1" source="188" target="191" edge="1">
            <mxGeometry relative="1" as="geometry">
              <mxPoint x="-1" as="offset" />
              <Array as="points">
                <mxPoint x="484" y="1467" />
                <mxPoint x="484" y="1467.19" />
              </Array>
            </mxGeometry>
          </mxCell>
        </UserObject>
        <UserObject label="" tags="Соединительная_линия" id="227">
          <mxCell style="vsdxID=689;edgeStyle=none;dashed=1;startArrow=block;endArrow=block;startSize=5;endSize=5;strokeWidth=2;strokeColor=#000000;spacingTop=0;spacingBottom=0;spacingLeft=0;spacingRight=0;verticalAlign=middle;html=1;labelBackgroundColor=#FFFFFF;rounded=0;exitX=1;exitY=0.4883720930232558;exitDx=0;exitDy=0;exitPerimeter=0;entryX=0;entryY=0.5;entryDx=0;entryDy=0;entryPerimeter=0;" parent="1" source="191" target="194" edge="1">
            <mxGeometry relative="1" as="geometry">
              <mxPoint as="offset" />
              <Array as="points">
                <mxPoint x="777" y="1467" />
                <mxPoint x="777" y="1466.81" />
              </Array>
            </mxGeometry>
          </mxCell>
        </UserObject>
        <UserObject label="" tags="Соединительная_линия" id="228">
          <mxCell style="vsdxID=690;edgeStyle=none;startArrow=none;endArrow=block;startSize=5;endSize=5;strokeWidth=2;strokeColor=#000000;spacingTop=0;spacingBottom=0;spacingLeft=0;spacingRight=0;verticalAlign=middle;html=1;labelBackgroundColor=#FFFFFF;rounded=0;exitX=1;exitY=0.5079365079365079;exitDx=0;exitDy=0;exitPerimeter=0;entryX=0.5;entryY=0;entryDx=0;entryDy=0;entryPerimeter=0;" parent="1" source="100" target="126" edge="1">
            <mxGeometry relative="1" as="geometry">
              <mxPoint as="offset" />
              <Array as="points">
                <mxPoint x="1150.28" y="1380" />
                <mxPoint x="1150.28" y="1635.98" />
                <mxPoint x="388.53" y="1635.98" />
              </Array>
            </mxGeometry>
          </mxCell>
        </UserObject>
        <UserObject label="" tags="Соединительная_линия" id="229">
          <mxCell style="vsdxID=705;edgeStyle=none;dashed=1;startArrow=block;endArrow=block;startSize=5;endSize=5;strokeWidth=2;strokeColor=#000000;spacingTop=0;spacingBottom=0;spacingLeft=0;spacingRight=0;verticalAlign=middle;html=1;labelBackgroundColor=#FFFFFF;rounded=0;exitX=1.005813953488372;exitY=0.5;exitDx=0;exitDy=0;exitPerimeter=0;entryX=0;entryY=0.5;entryDx=0;entryDy=0;entryPerimeter=0;" parent="1" source="194" target="188" edge="1">
            <mxGeometry relative="1" as="geometry">
              <mxPoint x="-1" as="offset" />
              <Array as="points">
                <mxPoint x="1064" y="1467" />
                <mxPoint x="1064" y="1423.11" />
                <mxPoint x="281.01" y="1423.11" />
                <mxPoint x="281.01" y="1467" />
              </Array>
            </mxGeometry>
          </mxCell>
        </UserObject>
        <UserObject label="" tags="Соединительная_линия" id="230">
          <mxCell style="vsdxID=708;edgeStyle=none;startArrow=none;endArrow=block;startSize=5;endSize=5;strokeWidth=2;strokeColor=#000000;spacingTop=0;spacingBottom=0;spacingLeft=0;spacingRight=0;verticalAlign=middle;html=1;labelBackgroundColor=#FFFFFF;rounded=0;exitX=0;exitY=0.5517241379310345;exitDx=0;exitDy=0;exitPerimeter=0;entryX=0;entryY=0.5079365079365079;entryDx=0;entryDy=0;entryPerimeter=0;" parent="1" source="39" target="100" edge="1">
            <mxGeometry relative="1" as="geometry">
              <mxPoint as="offset" />
              <Array as="points">
                <mxPoint x="147.08" y="1255" />
                <mxPoint x="147.08" y="1379.7" />
              </Array>
            </mxGeometry>
          </mxCell>
        </UserObject>
        <UserObject label="" tags="Соединительная_линия" id="231">
          <mxCell style="vsdxID=709;edgeStyle=none;startArrow=none;endArrow=block;startSize=5;endSize=5;strokeWidth=2;strokeColor=#000000;spacingTop=0;spacingBottom=0;spacingLeft=0;spacingRight=0;verticalAlign=middle;html=1;labelBackgroundColor=#FFFFFF;rounded=0;exitX=1;exitY=0.5079365079365079;exitDx=0;exitDy=0;exitPerimeter=0;entryX=0.5;entryY=0;entryDx=0;entryDy=0;entryPerimeter=0;" parent="1" source="100" target="127" edge="1">
            <mxGeometry relative="1" as="geometry">
              <mxPoint as="offset" />
              <Array as="points">
                <mxPoint x="1150.28" y="1380" />
                <mxPoint x="1150.28" y="1635.98" />
                <mxPoint x="965" y="1635.98" />
              </Array>
            </mxGeometry>
          </mxCell>
        </UserObject>
        <UserObject label="" tags="Соединительная_линия" id="232">
          <mxCell style="vsdxID=714;edgeStyle=none;startArrow=none;endArrow=block;startSize=5;endSize=5;strokeWidth=2;strokeColor=#000000;spacingTop=0;spacingBottom=0;spacingLeft=0;spacingRight=0;verticalAlign=middle;html=1;labelBackgroundColor=#FFFFFF;rounded=0;exitX=1;exitY=0.5;exitDx=0;exitDy=0;exitPerimeter=0;" parent="1" source="3" target="200" edge="1">
            <mxGeometry relative="1" as="geometry">
              <mxPoint y="-1" as="offset" />
              <Array as="points">
                <mxPoint x="1238.2" y="707" />
                <mxPoint x="1238.2" y="900.02" />
                <mxPoint x="1285.04" y="900.02" />
              </Array>
            </mxGeometry>
          </mxCell>
        </UserObject>
        <UserObject label="" tags="Соединительная_линия" id="233">
          <mxCell style="vsdxID=718;edgeStyle=none;startArrow=none;endArrow=block;startSize=5;endSize=5;strokeWidth=2;strokeColor=#000000;spacingTop=0;spacingBottom=0;spacingLeft=0;spacingRight=0;verticalAlign=middle;html=1;labelBackgroundColor=#FFFFFF;rounded=0;exitX=0.5;exitY=1.007;exitDx=0;exitDy=0;exitPerimeter=0;entryX=0.507;entryY=-0.009;entryDx=0;entryDy=0;entryPerimeter=0;" parent="1" source="202" target="40" edge="1">
            <mxGeometry relative="1" as="geometry">
              <mxPoint as="offset" />
              <Array as="points">
                <mxPoint x="655" y="340" />
                <mxPoint x="361" y="338" />
              </Array>
              <mxPoint x="540" y="371" as="targetPoint" />
            </mxGeometry>
          </mxCell>
        </UserObject>
        <UserObject label="" tags="Соединительная_линия" id="234">
          <mxCell style="vsdxID=719;edgeStyle=none;startArrow=none;endArrow=block;startSize=5;endSize=5;strokeWidth=2;strokeColor=#000000;spacingTop=0;spacingBottom=0;spacingLeft=0;spacingRight=0;verticalAlign=middle;html=1;labelBackgroundColor=#FFFFFF;rounded=0;exitX=0.5;exitY=1.007;exitDx=0;exitDy=0;exitPerimeter=0;entryX=0.532;entryY=-0.002;entryDx=0;entryDy=0;entryPerimeter=0;" parent="1" source="202" edge="1">
            <mxGeometry relative="1" as="geometry">
              <mxPoint x="-1" as="offset" />
              <Array as="points">
                <mxPoint x="655" y="340" />
                <mxPoint x="949.87" y="340.81" />
              </Array>
              <mxPoint x="949.9980000000002" y="505.002" as="targetPoint" />
              <mxPoint x="643.87" y="323.81" as="sourcePoint" />
            </mxGeometry>
          </mxCell>
        </UserObject>
        <UserObject label="" tags="Соединительная_линия" id="237">
          <mxCell style="vsdxID=726;edgeStyle=none;startArrow=block;endArrow=block;startSize=9;endSize=9;strokeWidth=2;strokeColor=#000000;spacingTop=0;spacingBottom=0;spacingLeft=0;spacingRight=0;verticalAlign=middle;html=1;labelBackgroundColor=#FFFFFF;rounded=0;exitX=0.5;exitY=0;exitDx=0;exitDy=0;exitPerimeter=0;entryX=0.5;entryY=1.0344827586206897;entryDx=0;entryDy=0;entryPerimeter=0;" parent="1" source="202" target="38" edge="1">
            <mxGeometry relative="1" as="geometry">
              <mxPoint x="-10" as="offset" />
              <Array as="points" />
            </mxGeometry>
          </mxCell>
        </UserObject>
        <UserObject label="" tags="Соединительная_линия" id="241">
          <mxCell style="vsdxID=732;edgeStyle=none;startArrow=none;endArrow=block;startSize=5;endSize=5;strokeWidth=2;strokeColor=#000000;spacingTop=0;spacingBottom=0;spacingLeft=0;spacingRight=0;verticalAlign=middle;html=1;labelBackgroundColor=#FFFFFF;rounded=0;exitX=1;exitY=0.5;exitDx=0;exitDy=0;exitPerimeter=0;entryX=1;entryY=0.5060975609756098;entryDx=0;entryDy=0;entryPerimeter=0;" parent="1" source="202" target="73" edge="1">
            <mxGeometry relative="1" as="geometry">
              <mxPoint as="offset" />
              <Array as="points">
                <mxPoint x="1238.5" y="297" />
                <mxPoint x="1238.5" y="1079.72" />
              </Array>
            </mxGeometry>
          </mxCell>
        </UserObject>
        <UserObject label="" tags="Соединительная_линия" id="242">
          <mxCell style="vsdxID=733;edgeStyle=none;startArrow=none;endArrow=block;startSize=5;endSize=5;strokeWidth=2;strokeColor=#000000;spacingTop=0;spacingBottom=0;spacingLeft=0;spacingRight=0;verticalAlign=middle;html=1;labelBackgroundColor=#FFFFFF;rounded=0;exitX=0;exitY=0.5;exitDx=0;exitDy=0;exitPerimeter=0;entryX=0;entryY=0.5;entryDx=0;entryDy=0;entryPerimeter=0;" parent="1" source="202" target="70" edge="1">
            <mxGeometry relative="1" as="geometry">
              <mxPoint y="-1" as="offset" />
              <Array as="points">
                <mxPoint x="76.32" y="297" />
                <mxPoint x="76.32" y="1080.12" />
              </Array>
            </mxGeometry>
          </mxCell>
        </UserObject>
        <UserObject label="" tags="Соединительная_линия" id="243">
          <mxCell style="vsdxID=15;edgeStyle=none;startArrow=block;endArrow=block;startSize=9;endSize=9;strokeWidth=2;strokeColor=#000000;spacingTop=0;spacingBottom=0;spacingLeft=0;spacingRight=0;verticalAlign=middle;html=1;labelBackgroundColor=#FFFFFF;rounded=0;exitX=0;exitY=0.5;exitDx=0;exitDy=0;exitPerimeter=0;entryX=1;entryY=0.5;entryDx=0;entryDy=0;entryPerimeter=0;" parent="1" source="12" target="10" edge="1">
            <mxGeometry relative="1" as="geometry">
              <mxPoint x="-1" as="offset" />
              <Array as="points" />
            </mxGeometry>
          </mxCell>
        </UserObject>
        <mxCell id="244" parent="1" vertex="1">
          <mxGeometry x="946" y="909" as="geometry" />
        </mxCell>
        <UserObject label="" tags="Соединительная_линия" id="245">
          <mxCell style="vsdxID=216;edgeStyle=none;startArrow=block;endArrow=block;startSize=9;endSize=9;strokeWidth=2;strokeColor=#000000;spacingTop=0;spacingBottom=0;spacingLeft=0;spacingRight=0;verticalAlign=middle;html=1;labelBackgroundColor=#FFFFFF;rounded=0;entryX=0.7508960573476703;entryY=0;entryDx=0;entryDy=0;entryPerimeter=0;" parent="1" source="244" target="90" edge="1">
            <mxGeometry relative="1" as="geometry">
              <mxPoint x="-4" y="-1" as="offset" />
              <Array as="points">
                <mxPoint x="946" y="941" />
                <mxPoint x="933.4" y="941" />
              </Array>
            </mxGeometry>
          </mxCell>
        </UserObject>
        <UserObject label="" tags="Блок-схема Соединительная_линия symbols Блок-схема Соединительная_линия symbols Соединительная_линия Блок-схема symbols Соединительная_линия Блок-схема symbols Блок-схема Соединительная_линия symbols Блок-схема Соединительная_линия symbols" id="247">
          <mxCell parent="1" vertex="1" visible="0">
            <mxGeometry as="geometry" />
          </mxCell>
        </UserObject>
        <mxCell id="DFHVs1_VYBX1MqRt5Ilc-247" value="NOMAD" parent="0" />
        <UserObject label="&lt;div style=&quot;font-size: 1px&quot;&gt;&lt;font style=&quot;font-size:16.93px;font-family:Segoe UI;color:#FFFFFF;direction:ltr;letter-spacing:0px;line-height:120%;opacity:1&quot;&gt;Мобильные приложения&lt;br/&gt;&lt;/font&gt;&lt;/div&gt;" tags="Блок-схема" id="DFHVs1_VYBX1MqRt5Ilc-248">
          <mxCell style="verticalAlign=middle;align=center;overflow=width;vsdxID=260;fillColor=#8ea7b5;gradientColor=none;shape=stencil(nZBLDsIwEENPM1sUMoILlHIBThCRQEaEpErD9/SkNUhVFyy6G9vPGsnETe9N50irvuR0cQ+xxRPvSGuJ3mUp9SJuiZtTyu6c0y1a6M5UUqvRcRad9UBrZfLxIG8Hb7viDWz0ruk+/HsiVYhe376C3gMNEifoL1wE/0EXgrP39RgXwVYSAgad5vMFq4X1uf0A);strokeColor=none;strokeWidth=3;points=[[0.5,1,0],[0.5,0,0],[1,0.5,0]];labelBackgroundColor=none;rounded=1;html=1;whiteSpace=wrap;" parent="DFHVs1_VYBX1MqRt5Ilc-247" vertex="1">
            <mxGeometry x="463" y="101" width="182" height="45" as="geometry" />
          </mxCell>
        </UserObject>
        <UserObject label="&lt;div style=&quot;font-size: 1px&quot;&gt;&lt;font style=&quot;font-size:12.7px;font-family:Segoe UI;color:#FFFFFF;direction:ltr;letter-spacing:0px;line-height:120%;opacity:1&quot;&gt;Узел мобильных приложений (&lt;/font&gt;&lt;font style=&quot;font-size:12.7px;font-family:Segoe UI;color:#FFFFFF;direction:ltr;letter-spacing:0px;line-height:120%;opacity:1&quot;&gt;Nomad&lt;/font&gt;&lt;font style=&quot;font-size:12.7px;font-family:Segoe UI;color:#FFFFFF;direction:ltr;letter-spacing:0px;line-height:120%;opacity:1&quot;&gt;)&lt;br/&gt;&lt;/font&gt;&lt;/div&gt;" tags="Блок-схема" id="DFHVs1_VYBX1MqRt5Ilc-249">
          <mxCell style="verticalAlign=middle;align=center;overflow=width;vsdxID=722;fillColor=#00b050;gradientColor=none;shape=stencil(nZBLDsIwEENPM1sUMoILlHIBThCRQEaEpErD9/SkNUhVFyy6G9vPGsnETe9N50irvuR0cQ+xxRPvSGuJ3mUp9SJuiZtTyu6c0y1a6M5UUqvRcRad9UBrZfLxIG8Hb7viDWz0ruk+/HsiVYhe376C3gMNEifoL1wE/0EXgrP39RgXwVYSAgad5vMFq4X1uf0A);strokeColor=#8c8c8c;strokeWidth=2;points=[[1,0.5,0],[0.5,0.5,0],[0.5,0,0]];labelBackgroundColor=none;rounded=1;html=1;whiteSpace=wrap;" parent="DFHVs1_VYBX1MqRt5Ilc-247" vertex="1">
            <mxGeometry x="261" y="371" width="168" height="51" as="geometry" />
          </mxCell>
        </UserObject>
        <UserObject label="&lt;div style=&quot;font-size: 1px&quot;&gt;&lt;font style=&quot;font-size:12.7px;font-family:Segoe UI;color:#FFFFFF;direction:ltr;letter-spacing:0px;line-height:120%;opacity:1&quot;&gt;Узел мобильных приложений (&lt;/font&gt;&lt;font style=&quot;font-size:12.7px;font-family:Segoe UI;color:#FFFFFF;direction:ltr;letter-spacing:0px;line-height:120%;opacity:1&quot;&gt;Nomad&lt;/font&gt;&lt;font style=&quot;font-size:12.7px;font-family:Segoe UI;color:#FFFFFF;direction:ltr;letter-spacing:0px;line-height:120%;opacity:1&quot;&gt;)&lt;br/&gt;&lt;/font&gt;&lt;/div&gt;" tags="Блок-схема" id="DFHVs1_VYBX1MqRt5Ilc-250">
          <mxCell style="verticalAlign=middle;align=center;overflow=width;vsdxID=723;fillColor=#00b050;gradientColor=none;shape=stencil(nZBLDsIwEENPM1sUMoILlHIBThCRQEaEpErD9/SkNUhVFyy6G9vPGsnETe9N50irvuR0cQ+xxRPvSGuJ3mUp9SJuiZtTyu6c0y1a6M5UUqvRcRad9UBrZfLxIG8Hb7viDWz0ruk+/HsiVYhe376C3gMNEifoL1wE/0EXgrP39RgXwVYSAgad5vMFq4X1uf0A);strokeColor=#8c8c8c;strokeWidth=2;points=[[1,0.5,0],[0.5,0.5,0],[0.5,0,0]];labelBackgroundColor=none;rounded=1;html=1;whiteSpace=wrap;" parent="DFHVs1_VYBX1MqRt5Ilc-247" vertex="1">
            <mxGeometry x="885" y="371" width="168" height="51" as="geometry" />
          </mxCell>
        </UserObject>
        <UserObject label="" tags="Соединительная_линия" id="DFHVs1_VYBX1MqRt5Ilc-251">
          <mxCell style="vsdxID=724;edgeStyle=none;startArrow=none;endArrow=block;startSize=5;endSize=5;strokeWidth=2;strokeColor=#000000;spacingTop=0;spacingBottom=0;spacingLeft=0;spacingRight=0;verticalAlign=middle;html=1;labelBackgroundColor=#FFFFFF;rounded=0;exitX=0.499;exitY=1.018;exitDx=0;exitDy=0;exitPerimeter=0;entryX=0.5;entryY=0;entryDx=0;entryDy=0;entryPerimeter=0;" parent="DFHVs1_VYBX1MqRt5Ilc-247" edge="1" source="202">
            <mxGeometry relative="1" as="geometry">
              <mxPoint as="offset" />
              <Array as="points">
                <mxPoint x="655" y="340" />
                <mxPoint x="968" y="340" />
              </Array>
              <mxPoint x="655" y="323" as="sourcePoint" />
              <mxPoint x="968" y="371" as="targetPoint" />
            </mxGeometry>
          </mxCell>
        </UserObject>
        <UserObject label="" tags="Соединительная_линия" id="DFHVs1_VYBX1MqRt5Ilc-252">
          <mxCell style="vsdxID=725;edgeStyle=none;startArrow=none;endArrow=block;startSize=5;endSize=5;strokeWidth=2;strokeColor=#000000;spacingTop=0;spacingBottom=0;spacingLeft=0;spacingRight=0;verticalAlign=middle;html=1;labelBackgroundColor=#FFFFFF;rounded=0;exitX=0.5;exitY=0.984;exitDx=0;exitDy=0;exitPerimeter=0;entryX=0.5;entryY=0;entryDx=0;entryDy=0;entryPerimeter=0;" parent="DFHVs1_VYBX1MqRt5Ilc-247" edge="1" source="202">
            <mxGeometry relative="1" as="geometry">
              <mxPoint x="-1" as="offset" />
              <Array as="points">
                <mxPoint x="655" y="340" />
                <mxPoint x="343.77" y="338.04" />
              </Array>
              <mxPoint x="655" y="323" as="sourcePoint" />
              <mxPoint x="344" y="371" as="targetPoint" />
            </mxGeometry>
          </mxCell>
        </UserObject>
        <UserObject label="" tags="Соединительная_линия" id="DFHVs1_VYBX1MqRt5Ilc-253">
          <mxCell style="vsdxID=728;edgeStyle=none;startArrow=none;endArrow=block;startSize=5;endSize=5;strokeWidth=2;strokeColor=#000000;spacingTop=0;spacingBottom=0;spacingLeft=0;spacingRight=0;verticalAlign=middle;html=1;labelBackgroundColor=#FFFFFF;rounded=0;exitX=0.5;exitY=1;exitDx=0;exitDy=0;exitPerimeter=0;entryX=0.5061728395061729;entryY=0;entryDx=0;entryDy=0;entryPerimeter=0;" parent="DFHVs1_VYBX1MqRt5Ilc-247" edge="1">
            <mxGeometry relative="1" as="geometry">
              <mxPoint as="offset" />
              <Array as="points">
                <mxPoint x="344" y="447.1" />
                <mxPoint x="656.15" y="447.1" />
              </Array>
              <mxPoint x="344" y="422" as="sourcePoint" />
              <mxPoint x="656" y="1239" as="targetPoint" />
            </mxGeometry>
          </mxCell>
        </UserObject>
        <UserObject label="" tags="Соединительная_линия" id="DFHVs1_VYBX1MqRt5Ilc-254">
          <mxCell style="vsdxID=731;edgeStyle=none;startArrow=none;endArrow=block;startSize=5;endSize=5;strokeWidth=2;strokeColor=#000000;spacingTop=0;spacingBottom=0;spacingLeft=0;spacingRight=0;verticalAlign=middle;html=1;labelBackgroundColor=#FFFFFF;rounded=0;exitX=0.5;exitY=1;exitDx=0;exitDy=0;exitPerimeter=0;entryX=0.5061728395061729;entryY=0;entryDx=0;entryDy=0;entryPerimeter=0;" parent="DFHVs1_VYBX1MqRt5Ilc-247" edge="1">
            <mxGeometry relative="1" as="geometry">
              <mxPoint as="offset" />
              <Array as="points">
                <mxPoint x="968" y="447" />
                <mxPoint x="656.15" y="447" />
              </Array>
              <mxPoint x="968" y="422" as="sourcePoint" />
              <mxPoint x="656" y="1239" as="targetPoint" />
            </mxGeometry>
          </mxCell>
        </UserObject>
        <mxCell id="DFHVs1_VYBX1MqRt5Ilc-256" value="ARIO" parent="0" />
        <mxCell id="DFHVs1_VYBX1MqRt5Ilc-257" value="&lt;div style=&quot;font-size: 1px&quot;&gt;&lt;font style=&quot;font-size:19.76px;font-family:Segoe UI;color:#000000;direction:ltr;letter-spacing:0px;line-height:120%;opacity:1&quot;&gt;Узел&lt;/font&gt;&lt;font style=&quot;font-size:19.76px;font-family:Segoe UI;color:#000000;direction:ltr;letter-spacing:0px;line-height:120%;opacity:1&quot;&gt; Directum Ario&lt;br/&gt;&lt;/font&gt;&lt;/div&gt;" style="verticalAlign=top;align=center;overflow=width;vsdxID=4;fillColor=#ffffff;gradientColor=none;shape=stencil(nZFLDsIwDERP4y0KyQKxLuUCnCAihliEpEpL+ZyetANS6YJFs7JnXmxpTKZqvW2YtGq7nC58F9d5MjvSWqLnLF2pyNRkqlPKfM7pFh36xhZSq1Fhhz/rgdbK5uNBXgxts9r+PjAYck39sPwBVMF6foYp9HugQeIE/ZqL4D/oQnC2vhRjPAhOQkC6U38eZ5FwClO/AQ==);strokeColor=#7c7c7c;strokeWidth=2;points=[];labelBackgroundColor=#FFFFFF;rounded=1;html=1;whiteSpace=wrap;" parent="DFHVs1_VYBX1MqRt5Ilc-256" vertex="1">
          <mxGeometry x="701" y="802" width="488" height="85" as="geometry" />
        </mxCell>
        <mxCell id="DFHVs1_VYBX1MqRt5Ilc-258" value="&lt;div style=&quot;font-size: 1px&quot;&gt;&lt;font style=&quot;font-size:14.11px;font-family:Segoe UI;color:#FFFFFF;direction:ltr;letter-spacing:0px;line-height:120%;opacity:1&quot;&gt;TextExtractorService&lt;/font&gt;&lt;font style=&quot;font-size:14.11px;font-family:Segoe UI;color:#FFFFFF;direction:ltr;letter-spacing:0px;line-height:120%;opacity:1&quot;&gt;&lt;br/&gt;&lt;/font&gt;&lt;/div&gt;" style="verticalAlign=middle;align=center;overflow=width;vsdxID=5;fillColor=#00b050;gradientColor=none;shape=stencil(nZBLDsIwEENPM1sUMoILlHIBThCRQEaEpErD9/SkNUhVFyy6G9vPGsnETe9N50irvuR0cQ+xxRPvSGuJ3mUp9SJuiZtTyu6c0y1a6M5UUqvRcRad9UBrZfLxIG8Hb7viDWz0ruk+/HsiVYhe376C3gMNEifoL1wE/0EXgrP39RgXwVYSAgad5vMFq4X1uf0A);strokeColor=#6a819f;strokeWidth=2;points=[[1,0.5,0],[0.5,0.5,0],[0.5,0,0]];labelBackgroundColor=none;rounded=1;html=1;whiteSpace=wrap;" parent="DFHVs1_VYBX1MqRt5Ilc-256" vertex="1">
          <mxGeometry x="721" y="841" width="168" height="30" as="geometry" />
        </mxCell>
        <mxCell id="DFHVs1_VYBX1MqRt5Ilc-259" value="&lt;div style=&quot;font-size: 1px&quot;&gt;&lt;font style=&quot;font-size:14.11px;font-family:Segoe UI;color:#FFFFFF;direction:ltr;letter-spacing:0px;line-height:120%;opacity:1&quot;&gt;SmartService, etc&lt;/font&gt;&lt;font style=&quot;font-size:14.11px;font-family:Segoe UI;color:#FFFFFF;direction:ltr;letter-spacing:0px;line-height:120%;opacity:1&quot;&gt;&lt;br/&gt;&lt;/font&gt;&lt;/div&gt;" style="verticalAlign=middle;align=center;overflow=width;vsdxID=6;fillColor=#00b050;gradientColor=none;shape=stencil(nZBLDsIwEENPM1sUMoILlHIBThCRQEaEpErD9/SkNUhVFyy6G9vPGsnETe9N50irvuR0cQ+xxRPvSGuJ3mUp9SJuiZtTyu6c0y1a6M5UUqvRcRad9UBrZfLxIG8Hb7viDWz0ruk+/HsiVYhe376C3gMNEifoL1wE/0EXgrP39RgXwVYSAgad5vMFq4X1uf0A);strokeColor=#6a819f;strokeWidth=2;points=[[1,0.5,0],[0.5,0.5,0],[0.5,0,0]];labelBackgroundColor=none;rounded=1;html=1;whiteSpace=wrap;" parent="DFHVs1_VYBX1MqRt5Ilc-256" vertex="1">
          <mxGeometry x="995" y="841" width="168" height="30" as="geometry" />
        </mxCell>
        <mxCell id="DFHVs1_VYBX1MqRt5Ilc-260" value="MONITORING" parent="0" />
        <mxCell id="DFHVs1_VYBX1MqRt5Ilc-261" value="&lt;div style=&quot;font-size: 1px&quot;&gt;&lt;font style=&quot;font-size:14.11px;font-family:Segoe UI;color:#ffffff;direction:ltr;letter-spacing:0px;line-height:120%;opacity:1&quot;&gt;Узел решения «Мониторинг системы &lt;/font&gt;&lt;font style=&quot;font-size:14.11px;font-family:Segoe UI;color:#ffffff;direction:ltr;letter-spacing:0px;line-height:120%;opacity:1&quot;&gt;Directum RX&lt;/font&gt;&lt;font style=&quot;font-size:14.11px;font-family:Segoe UI;color:#ffffff;direction:ltr;letter-spacing:0px;line-height:120%;opacity:1&quot;&gt;»&lt;/font&gt;&lt;font style=&quot;font-size:14.11px;font-family:Segoe UI;color:#FFFFFF;direction:ltr;letter-spacing:0px;line-height:120%;opacity:1&quot;&gt;&lt;br/&gt;&lt;/font&gt;&lt;/div&gt;" style="verticalAlign=middle;align=center;overflow=width;vsdxID=150;fillColor=#00b050;gradientColor=none;shape=stencil(nZBLDsIwEENPM1sUMoILlHIBThCRQEaEpErD9/SkNUhVFyy6G9vPGsnETe9N50irvuR0cQ+xxRPvSGuJ3mUp9SJuiZtTyu6c0y1a6M5UUqvRcRad9UBrZfLxIG8Hb7viDWz0ruk+/HsiVYhe376C3gMNEifoL1wE/0EXgrP39RgXwVYSAgad5vMFq4X1uf0A);strokeColor=#8c8c8c;points=[[1,0.5,0],[0.5,0.5,0],[0.5,0,0]];labelBackgroundColor=none;rounded=1;html=1;whiteSpace=wrap;" parent="DFHVs1_VYBX1MqRt5Ilc-260" vertex="1">
          <mxGeometry x="121" y="786" width="235" height="57" as="geometry" />
        </mxCell>
        <mxCell id="DFHVs1_VYBX1MqRt5Ilc-262" value="ELASTIC" parent="0" />
        <mxCell id="DFHVs1_VYBX1MqRt5Ilc-263" value="&lt;div style=&quot;font-size: 1px&quot;&gt;&lt;font style=&quot;font-size:14.11px;font-family:Segoe UI;color:#ffffff;direction:ltr;letter-spacing:0px;line-height:120%;opacity:1&quot;&gt;Узел полнотекстового поиска&lt;/font&gt;&lt;font style=&quot;font-size:14.11px;font-family:Segoe UI;color:#FFFFFF;direction:ltr;letter-spacing:0px;line-height:120%;opacity:1&quot;&gt;&lt;br/&gt;&lt;/font&gt;&lt;/div&gt;" style="verticalAlign=middle;align=center;overflow=width;vsdxID=136;fillColor=#00b050;gradientColor=none;shape=stencil(nZBLDsIwEENPM1sUMoILlHIBThCRQEaEpErD9/SkNUhVFyy6G9vPGsnETe9N50irvuR0cQ+xxRPvSGuJ3mUp9SJuiZtTyu6c0y1a6M5UUqvRcRad9UBrZfLxIG8Hb7viDWz0ruk+/HsiVYhe376C3gMNEifoL1wE/0EXgrP39RgXwVYSAgad5vMFq4X1uf0A);strokeColor=#8c8c8c;points=[[1,0.5,0],[0.5,0.5,0],[0.5,0,0]];labelBackgroundColor=none;rounded=1;html=1;whiteSpace=wrap;" parent="DFHVs1_VYBX1MqRt5Ilc-262" vertex="1">
          <mxGeometry x="362" y="786" width="235" height="57" as="geometry" />
        </mxCell>
        <mxCell id="DFHVs1_VYBX1MqRt5Ilc-264" value="DCS" style="" parent="0" />
        <mxCell id="DFHVs1_VYBX1MqRt5Ilc-265" value="&lt;div style=&quot;font-size: 1px&quot;&gt;&lt;font style=&quot;font-size:14.11px;font-family:Segoe UI;color:#FFFFFF;direction:ltr;letter-spacing:0px;line-height:120%;opacity:1&quot;&gt;Узел &lt;/font&gt;&lt;font style=&quot;font-size:14.11px;font-family:Segoe UI;color:#FFFFFF;direction:ltr;letter-spacing:0px;line-height:120%;opacity:1&quot;&gt;DCS&lt;/font&gt;&lt;font style=&quot;font-size:14.11px;font-family:Segoe UI;color:#FFFFFF;direction:ltr;letter-spacing:0px;line-height:120%;opacity:1&quot;&gt;&lt;br/&gt;&lt;/font&gt;&lt;/div&gt;" style="verticalAlign=middle;align=center;overflow=width;vsdxID=137;fillColor=#00b050;gradientColor=none;shape=stencil(nZBLDsIwEENPM1sUMoILlHIBThCRQEaEpErD9/SkNUhVFyy6G9vPGsnETe9N50irvuR0cQ+xxRPvSGuJ3mUp9SJuiZtTyu6c0y1a6M5UUqvRcRad9UBrZfLxIG8Hb7viDWz0ruk+/HsiVYhe376C3gMNEifoL1wE/0EXgrP39RgXwVYSAgad5vMFq4X1uf0A);strokeColor=#8c8c8c;points=[[1,0.5,0],[0.5,0.5,0],[0.5,0,0]];labelBackgroundColor=none;rounded=1;html=1;whiteSpace=wrap;" parent="DFHVs1_VYBX1MqRt5Ilc-264" vertex="1">
          <mxGeometry x="363" y="847" width="235" height="57" as="geometry" />
        </mxCell>
        <mxCell id="NxOqKFvY_tAPBLQv36Df-247" value="ONLINEEDITOR" parent="0" />
        <mxCell id="NxOqKFvY_tAPBLQv36Df-249" value="&lt;div style=&quot;font-size: 1px&quot;&gt;&lt;font style=&quot;font-size:14.11px;font-family:Segoe UI;color:#ffffff;direction:ltr;letter-spacing:0px;line-height:120%;opacity:1&quot;&gt;Узел решения «Интеграция с Онлайн Редакторами&lt;/font&gt;&lt;font style=&quot;font-size:14.11px;font-family:Segoe UI;color:#ffffff;direction:ltr;letter-spacing:0px;line-height:120%;opacity:1&quot;&gt;»&lt;/font&gt;&lt;font style=&quot;font-size:14.11px;font-family:Segoe UI;color:#FFFFFF;direction:ltr;letter-spacing:0px;line-height:120%;opacity:1&quot;&gt;&lt;br&gt;&lt;/font&gt;&lt;/div&gt;" style="verticalAlign=middle;align=center;overflow=width;vsdxID=970;fillColor=#00b050;gradientColor=none;shape=stencil(nZBLDsIwEENPM1sUMoILlHIBThCRQEaEpErD9/SkNUhVFyy6G9vPGsnETe9N50irvuR0cQ+xxRPvSGuJ3mUp9SJuiZtTyu6c0y1a6M5UUqvRcRad9UBrZfLxIG8Hb7viDWz0ruk+/HsiVYhe376C3gMNEifoL1wE/0EXgrP39RgXwVYSAgad5vMFq4X1uf0A);strokeColor=#8c8c8c;points=[[1,0.5,0],[0.5,0.5,0],[0.5,0,0]];labelBackgroundColor=none;rounded=1;html=1;whiteSpace=wrap;" parent="NxOqKFvY_tAPBLQv36Df-247" vertex="1">
          <mxGeometry x="121" y="847" width="235" height="57" as="geometry" />
        </mxCell>
      </root>
    </mxGraphModel>
  </diagram>
</mxfile>
